G04*
G04 #@! TF.GenerationSoftware,Altium Limited,Altium Designer,23.1.1 (15)*
G04*
G04 Layer_Color=32896*
%FSLAX26Y26*%
%MOIN*%
G70*
G04*
G04 #@! TF.SameCoordinates,D0E4B440-4BE9-487C-8C21-8B387810EFB0*
G04*
G04*
G04 #@! TF.FilePolarity,Positive*
G04*
G01*
G75*
%ADD12C,0.007874*%
G36*
X2813885Y-659112D02*
Y-677020D01*
X2808971Y-681934D01*
X2793537D01*
X2790407Y-678841D01*
X2787349Y-681934D01*
X2769914D01*
X2765000Y-677093D01*
Y-659184D01*
X2769914Y-654234D01*
X2787386D01*
X2790407Y-657292D01*
X2793537Y-654234D01*
X2808898D01*
X2813885Y-659112D01*
D02*
G37*
G36*
X2813812Y-696058D02*
Y-718844D01*
X2807661D01*
Y-697259D01*
X2792300D01*
Y-718225D01*
X2786148D01*
Y-697259D01*
X2771115D01*
Y-718844D01*
X2765000D01*
Y-696058D01*
X2769914Y-691144D01*
X2786148D01*
X2789169Y-694201D01*
X2792300Y-691144D01*
X2808898D01*
X2813812Y-696058D01*
D02*
G37*
G36*
Y-729873D02*
Y-746945D01*
X2808862Y-751822D01*
X2769950D01*
X2765000Y-746909D01*
Y-729873D01*
X2769950Y-724996D01*
X2808862D01*
X2813812Y-729873D01*
D02*
G37*
G36*
X2813740Y-771260D02*
X2807588D01*
Y-766528D01*
X2771151D01*
Y-771260D01*
X2765000D01*
Y-755535D01*
X2771151D01*
Y-760376D01*
X2807588D01*
Y-755535D01*
X2813740D01*
Y-771260D01*
D02*
G37*
G36*
X2813740Y-147027D02*
X2779232D01*
X2813740Y-162024D01*
Y-168321D01*
X2765000D01*
Y-162169D01*
X2800636D01*
X2765000Y-146590D01*
Y-140875D01*
X2813740D01*
Y-147027D01*
D02*
G37*
G36*
X2813667Y-176948D02*
Y-198751D01*
X2765073D01*
Y-192600D01*
X2782909D01*
Y-184010D01*
X2769987D01*
X2765000Y-179095D01*
Y-171961D01*
X2771152D01*
Y-177858D01*
X2782909D01*
Y-176911D01*
X2787786Y-171961D01*
X2808716D01*
X2813667Y-176948D01*
D02*
G37*
G36*
X2813812Y-229182D02*
X2770096D01*
X2765146Y-224304D01*
Y-202428D01*
X2771297D01*
Y-223067D01*
X2786986D01*
Y-202428D01*
X2793137D01*
Y-223067D01*
X2807661D01*
Y-202428D01*
X2813812D01*
Y-229182D01*
D02*
G37*
G36*
X2814832Y-237736D02*
Y-254808D01*
X2809881Y-259685D01*
X2791244D01*
X2786367Y-254771D01*
Y-239010D01*
X2771152D01*
Y-253534D01*
X2781271D01*
Y-259685D01*
X2769950D01*
X2765000Y-254771D01*
Y-237736D01*
X2769987Y-232858D01*
X2787568D01*
X2792482Y-237772D01*
Y-253534D01*
X2808680D01*
Y-239010D01*
X2797869D01*
Y-232858D01*
X2809845D01*
X2814832Y-237736D01*
D02*
G37*
G36*
X1113739Y-710545D02*
X1071151Y-720300D01*
Y-721101D01*
X1113739Y-731074D01*
Y-737372D01*
X1065000Y-725578D01*
Y-715750D01*
X1113739Y-704248D01*
Y-710545D01*
D02*
G37*
G36*
X1113921Y-766346D02*
X1109044Y-771260D01*
X1091426D01*
X1086694Y-766346D01*
Y-749784D01*
X1071151D01*
Y-771260D01*
X1065000D01*
Y-748583D01*
X1069914Y-743633D01*
X1087932D01*
X1092846Y-748583D01*
Y-765109D01*
X1107770D01*
Y-743633D01*
X1113921D01*
Y-766346D01*
D02*
G37*
G36*
X1213812Y-675310D02*
Y-698096D01*
X1207661D01*
Y-676511D01*
X1192300D01*
Y-697477D01*
X1186148D01*
Y-676511D01*
X1171115D01*
Y-698096D01*
X1165000D01*
Y-675310D01*
X1169914Y-670396D01*
X1186148D01*
X1189169Y-673453D01*
X1192300Y-670396D01*
X1208898D01*
X1213812Y-675310D01*
D02*
G37*
G36*
X1213739Y-710399D02*
X1171151Y-720154D01*
Y-720955D01*
X1213739Y-730929D01*
Y-737226D01*
X1165000Y-725433D01*
Y-715605D01*
X1213739Y-704102D01*
Y-710399D01*
D02*
G37*
G36*
X1213812Y-748474D02*
Y-771260D01*
X1207661D01*
Y-749675D01*
X1192300D01*
Y-770641D01*
X1186148D01*
Y-749675D01*
X1171115D01*
Y-771260D01*
X1165000D01*
Y-748474D01*
X1169914Y-743560D01*
X1186148D01*
X1189169Y-746617D01*
X1192300Y-743560D01*
X1208898D01*
X1213812Y-748474D01*
D02*
G37*
G36*
X1613885Y-695985D02*
Y-713821D01*
X1608971Y-718735D01*
X1569914D01*
X1565000Y-713894D01*
Y-696058D01*
X1569914Y-691107D01*
X1608935D01*
X1613885Y-695985D01*
D02*
G37*
G36*
Y-729873D02*
Y-746945D01*
X1608935Y-751822D01*
X1570023D01*
X1565073Y-746909D01*
Y-729873D01*
X1570023Y-724996D01*
X1608935D01*
X1613885Y-729873D01*
D02*
G37*
G36*
X1613812Y-771260D02*
X1607661D01*
Y-766528D01*
X1571224D01*
Y-771260D01*
X1565073D01*
Y-755535D01*
X1571224D01*
Y-760376D01*
X1607661D01*
Y-755535D01*
X1613812D01*
Y-771260D01*
D02*
G37*
G36*
X1513812Y-696058D02*
Y-718735D01*
X1507661D01*
Y-697259D01*
X1492264D01*
Y-713857D01*
X1487422Y-718735D01*
X1469368D01*
X1465000Y-713857D01*
Y-691144D01*
X1471151D01*
Y-712583D01*
X1486112D01*
Y-696058D01*
X1491026Y-691144D01*
X1508862D01*
X1513812Y-696058D01*
D02*
G37*
G36*
Y-729873D02*
Y-746945D01*
X1508862Y-751822D01*
X1469950D01*
X1465000Y-746909D01*
Y-729873D01*
X1469950Y-724996D01*
X1508862D01*
X1513812Y-729873D01*
D02*
G37*
G36*
X1513739Y-771260D02*
X1507588D01*
Y-766528D01*
X1471151D01*
Y-771260D01*
X1465000D01*
Y-755535D01*
X1471151D01*
Y-760376D01*
X1507588D01*
Y-755535D01*
X1513739D01*
Y-771260D01*
D02*
G37*
G36*
X1413921Y-691180D02*
X1409044Y-696094D01*
X1391426D01*
X1386694Y-691180D01*
Y-674618D01*
X1371151D01*
Y-696094D01*
X1365000D01*
Y-673417D01*
X1369914Y-668466D01*
X1387932D01*
X1392846Y-673417D01*
Y-689942D01*
X1407770D01*
Y-668466D01*
X1413921D01*
Y-691180D01*
D02*
G37*
G36*
X1371151Y-707414D02*
X1408971D01*
X1413885Y-712328D01*
Y-718626D01*
X1407734Y-718589D01*
Y-713566D01*
X1371151D01*
Y-718589D01*
X1365000D01*
Y-703410D01*
X1371151D01*
Y-707414D01*
D02*
G37*
G36*
X1413812Y-729873D02*
Y-746945D01*
X1408862Y-751822D01*
X1369950D01*
X1365000Y-746909D01*
Y-729873D01*
X1369950Y-724996D01*
X1408862D01*
X1413812Y-729873D01*
D02*
G37*
G36*
X1413739Y-771260D02*
X1407588D01*
Y-766528D01*
X1371151D01*
Y-771260D01*
X1365000D01*
Y-755535D01*
X1371151D01*
Y-760376D01*
X1407588D01*
Y-755535D01*
X1413739D01*
Y-771260D01*
D02*
G37*
G36*
X1313812Y-673417D02*
Y-696203D01*
X1307661D01*
Y-674618D01*
X1292300D01*
Y-695585D01*
X1286148D01*
Y-674618D01*
X1271115D01*
Y-696203D01*
X1265000D01*
Y-673417D01*
X1269914Y-668503D01*
X1286148D01*
X1289169Y-671561D01*
X1292300Y-668503D01*
X1308898D01*
X1313812Y-673417D01*
D02*
G37*
G36*
X1271151Y-707414D02*
X1308971D01*
X1313885Y-712328D01*
Y-718626D01*
X1307734Y-718589D01*
Y-713566D01*
X1271151D01*
Y-718589D01*
X1265000D01*
Y-703410D01*
X1271151D01*
Y-707414D01*
D02*
G37*
G36*
X1313812Y-729873D02*
Y-746945D01*
X1308862Y-751822D01*
X1269950D01*
X1265000Y-746909D01*
Y-729873D01*
X1269950Y-724996D01*
X1308862D01*
X1313812Y-729873D01*
D02*
G37*
G36*
X1313739Y-771260D02*
X1307588D01*
Y-766528D01*
X1271151D01*
Y-771260D01*
X1265000D01*
Y-755535D01*
X1271151D01*
Y-760376D01*
X1307588D01*
Y-755535D01*
X1313739D01*
Y-771260D01*
D02*
G37*
G36*
X1713812Y-697332D02*
X1687313D01*
Y-712729D01*
X1713812D01*
Y-718880D01*
X1686075D01*
X1681161Y-713966D01*
Y-697332D01*
X1665000D01*
Y-691180D01*
X1713812D01*
Y-697332D01*
D02*
G37*
G36*
Y-729873D02*
Y-746945D01*
X1708862Y-751822D01*
X1669950D01*
X1665000Y-746909D01*
Y-729873D01*
X1669950Y-724996D01*
X1708862D01*
X1713812Y-729873D01*
D02*
G37*
G36*
X1713739Y-771260D02*
X1707588D01*
Y-766528D01*
X1671151D01*
Y-771260D01*
X1665000D01*
Y-755535D01*
X1671151D01*
Y-760376D01*
X1707588D01*
Y-755535D01*
X1713739D01*
Y-771260D01*
D02*
G37*
G36*
X1813739Y-695439D02*
Y-713748D01*
X1808898Y-718662D01*
X1789169D01*
X1784255Y-713748D01*
Y-697186D01*
X1771115D01*
Y-718662D01*
X1765000D01*
Y-695985D01*
X1769914Y-691034D01*
X1784255D01*
X1787350Y-694092D01*
X1790407Y-691034D01*
X1808825D01*
X1813739Y-695439D01*
D02*
G37*
G36*
X1813812Y-729873D02*
Y-746945D01*
X1808862Y-751822D01*
X1769950D01*
X1765000Y-746909D01*
Y-729873D01*
X1769950Y-724996D01*
X1808862D01*
X1813812Y-729873D01*
D02*
G37*
G36*
X1813739Y-771260D02*
X1807588D01*
Y-766528D01*
X1771151D01*
Y-771260D01*
X1765000D01*
Y-755535D01*
X1771151D01*
Y-760376D01*
X1807588D01*
Y-755535D01*
X1813739D01*
Y-771260D01*
D02*
G37*
G36*
X1913885Y-673344D02*
Y-691180D01*
X1908971Y-696094D01*
X1869914D01*
X1865000Y-691253D01*
Y-673417D01*
X1869914Y-668466D01*
X1908935D01*
X1913885Y-673344D01*
D02*
G37*
G36*
X1871224Y-707414D02*
X1909044D01*
X1913958Y-712328D01*
Y-718626D01*
X1907806Y-718589D01*
Y-713566D01*
X1871224D01*
Y-718589D01*
X1865073D01*
Y-703410D01*
X1871224D01*
Y-707414D01*
D02*
G37*
G36*
X1913885Y-729873D02*
Y-746945D01*
X1908935Y-751822D01*
X1870023D01*
X1865073Y-746909D01*
Y-729873D01*
X1870023Y-724996D01*
X1908935D01*
X1913885Y-729873D01*
D02*
G37*
G36*
X1913812Y-771260D02*
X1907661D01*
Y-766528D01*
X1871224D01*
Y-771260D01*
X1865073D01*
Y-755535D01*
X1871224D01*
Y-760376D01*
X1907661D01*
Y-755535D01*
X1913812D01*
Y-771260D01*
D02*
G37*
G36*
X2213812Y-659876D02*
Y-682663D01*
X2207661D01*
Y-661077D01*
X2192300D01*
Y-682044D01*
X2186148D01*
Y-661077D01*
X2171115D01*
Y-682663D01*
X2165000D01*
Y-659876D01*
X2169914Y-654962D01*
X2186148D01*
X2189169Y-658020D01*
X2192300Y-654962D01*
X2208898D01*
X2213812Y-659876D01*
D02*
G37*
G36*
Y-696058D02*
Y-718735D01*
X2207661D01*
Y-697259D01*
X2192264D01*
Y-713857D01*
X2187422Y-718735D01*
X2169368D01*
X2165000Y-713857D01*
Y-691144D01*
X2171151D01*
Y-712583D01*
X2186112D01*
Y-696058D01*
X2191026Y-691144D01*
X2208862D01*
X2213812Y-696058D01*
D02*
G37*
G36*
Y-729873D02*
Y-746945D01*
X2208862Y-751822D01*
X2169950D01*
X2165000Y-746909D01*
Y-729873D01*
X2169950Y-724996D01*
X2208862D01*
X2213812Y-729873D01*
D02*
G37*
G36*
X2213740Y-771260D02*
X2207588D01*
Y-766528D01*
X2171151D01*
Y-771260D01*
X2165000D01*
Y-755535D01*
X2171151D01*
Y-760376D01*
X2207588D01*
Y-755535D01*
X2213740D01*
Y-771260D01*
D02*
G37*
G36*
X2113885Y-673053D02*
Y-690962D01*
X2108971Y-695876D01*
X2093537D01*
X2090407Y-692782D01*
X2087349Y-695876D01*
X2069914D01*
X2065000Y-691034D01*
Y-673126D01*
X2069914Y-668175D01*
X2087386D01*
X2090407Y-671233D01*
X2093537Y-668175D01*
X2108898D01*
X2113885Y-673053D01*
D02*
G37*
G36*
X2071151Y-707414D02*
X2108971D01*
X2113885Y-712328D01*
Y-718626D01*
X2107733Y-718589D01*
Y-713566D01*
X2071151D01*
Y-718589D01*
X2065000D01*
Y-703410D01*
X2071151D01*
Y-707414D01*
D02*
G37*
G36*
X2113812Y-729873D02*
Y-746945D01*
X2108862Y-751822D01*
X2069950D01*
X2065000Y-746909D01*
Y-729873D01*
X2069950Y-724996D01*
X2108862D01*
X2113812Y-729873D01*
D02*
G37*
G36*
X2113740Y-771260D02*
X2107588D01*
Y-766528D01*
X2071151D01*
Y-771260D01*
X2065000D01*
Y-755535D01*
X2071151D01*
Y-760376D01*
X2107588D01*
Y-755535D01*
X2113740D01*
Y-771260D01*
D02*
G37*
G36*
X2013921Y-713821D02*
X2009044Y-718735D01*
X1991426D01*
X1986694Y-713821D01*
Y-697259D01*
X1971151D01*
Y-718735D01*
X1965000D01*
Y-696058D01*
X1969914Y-691107D01*
X1987932D01*
X1992846Y-696058D01*
Y-712583D01*
X2007770D01*
Y-691107D01*
X2013921D01*
Y-713821D01*
D02*
G37*
G36*
X2013812Y-729873D02*
Y-746945D01*
X2008862Y-751822D01*
X1969950D01*
X1965000Y-746909D01*
Y-729873D01*
X1969950Y-724996D01*
X2008862D01*
X2013812Y-729873D01*
D02*
G37*
G36*
X2013739Y-771260D02*
X2007588D01*
Y-766528D01*
X1971151D01*
Y-771260D01*
X1965000D01*
Y-755535D01*
X1971151D01*
Y-760376D01*
X2007588D01*
Y-755535D01*
X2013739D01*
Y-771260D01*
D02*
G37*
G36*
X2471151Y-671233D02*
X2508971D01*
X2513885Y-676147D01*
Y-682444D01*
X2507733Y-682408D01*
Y-677385D01*
X2471151D01*
Y-682408D01*
X2465000D01*
Y-667229D01*
X2471151D01*
Y-671233D01*
D02*
G37*
G36*
X2513812Y-696058D02*
Y-718735D01*
X2507661D01*
Y-697259D01*
X2492264D01*
Y-713857D01*
X2487422Y-718735D01*
X2469368D01*
X2465000Y-713857D01*
Y-691144D01*
X2471151D01*
Y-712583D01*
X2486112D01*
Y-696058D01*
X2491026Y-691144D01*
X2508862D01*
X2513812Y-696058D01*
D02*
G37*
G36*
Y-729873D02*
Y-746945D01*
X2508862Y-751822D01*
X2469950D01*
X2465000Y-746909D01*
Y-729873D01*
X2469950Y-724996D01*
X2508862D01*
X2513812Y-729873D01*
D02*
G37*
G36*
X2513740Y-771260D02*
X2507588D01*
Y-766528D01*
X2471151D01*
Y-771260D01*
X2465000D01*
Y-755535D01*
X2471151D01*
Y-760376D01*
X2507588D01*
Y-755535D01*
X2513740D01*
Y-771260D01*
D02*
G37*
G36*
X2413812Y-659876D02*
Y-682553D01*
X2407661D01*
Y-661077D01*
X2392264D01*
Y-677676D01*
X2387422Y-682553D01*
X2369368D01*
X2365000Y-677676D01*
Y-654962D01*
X2371151D01*
Y-676402D01*
X2386112D01*
Y-659876D01*
X2391026Y-654962D01*
X2408862D01*
X2413812Y-659876D01*
D02*
G37*
G36*
Y-696058D02*
Y-718735D01*
X2407661D01*
Y-697259D01*
X2392264D01*
Y-713857D01*
X2387422Y-718735D01*
X2369368D01*
X2365000Y-713857D01*
Y-691144D01*
X2371151D01*
Y-712583D01*
X2386112D01*
Y-696058D01*
X2391026Y-691144D01*
X2408862D01*
X2413812Y-696058D01*
D02*
G37*
G36*
Y-729873D02*
Y-746945D01*
X2408862Y-751822D01*
X2369950D01*
X2365000Y-746909D01*
Y-729873D01*
X2369950Y-724996D01*
X2408862D01*
X2413812Y-729873D01*
D02*
G37*
G36*
X2413740Y-771260D02*
X2407588D01*
Y-766528D01*
X2371151D01*
Y-771260D01*
X2365000D01*
Y-755535D01*
X2371151D01*
Y-760376D01*
X2407588D01*
Y-755535D01*
X2413740D01*
Y-771260D01*
D02*
G37*
G36*
X2313740Y-672798D02*
Y-691107D01*
X2308898Y-696021D01*
X2289169D01*
X2284256Y-691107D01*
Y-674545D01*
X2271115D01*
Y-696021D01*
X2265000D01*
Y-673344D01*
X2269914Y-668394D01*
X2284256D01*
X2287349Y-671451D01*
X2290407Y-668394D01*
X2308825D01*
X2313740Y-672798D01*
D02*
G37*
G36*
X2271151Y-707414D02*
X2308971D01*
X2313885Y-712328D01*
Y-718626D01*
X2307733Y-718589D01*
Y-713566D01*
X2271151D01*
Y-718589D01*
X2265000D01*
Y-703410D01*
X2271151D01*
Y-707414D01*
D02*
G37*
G36*
X2313812Y-729873D02*
Y-746945D01*
X2308862Y-751822D01*
X2269950D01*
X2265000Y-746909D01*
Y-729873D01*
X2269950Y-724996D01*
X2308862D01*
X2313812Y-729873D01*
D02*
G37*
G36*
X2313740Y-771260D02*
X2307588D01*
Y-766528D01*
X2271151D01*
Y-771260D01*
X2265000D01*
Y-755535D01*
X2271151D01*
Y-760376D01*
X2307588D01*
Y-755535D01*
X2313740D01*
Y-771260D01*
D02*
G37*
G36*
X2713921Y-661077D02*
Y-680806D01*
X2707770D01*
Y-662279D01*
X2665073D01*
Y-656127D01*
X2709008D01*
X2713921Y-661077D01*
D02*
G37*
G36*
X2713812Y-696058D02*
Y-718844D01*
X2707661D01*
Y-697259D01*
X2692300D01*
Y-718225D01*
X2686148D01*
Y-697259D01*
X2671115D01*
Y-718844D01*
X2665000D01*
Y-696058D01*
X2669914Y-691144D01*
X2686148D01*
X2689169Y-694201D01*
X2692300Y-691144D01*
X2708898D01*
X2713812Y-696058D01*
D02*
G37*
G36*
Y-729873D02*
Y-746945D01*
X2708862Y-751822D01*
X2669950D01*
X2665000Y-746909D01*
Y-729873D01*
X2669950Y-724996D01*
X2708862D01*
X2713812Y-729873D01*
D02*
G37*
G36*
X2713740Y-771260D02*
X2707588D01*
Y-766528D01*
X2671151D01*
Y-771260D01*
X2665000D01*
Y-755535D01*
X2671151D01*
Y-760376D01*
X2707588D01*
Y-755535D01*
X2713740D01*
Y-771260D01*
D02*
G37*
G36*
X2613667Y-657947D02*
Y-679896D01*
X2565000D01*
Y-673745D01*
X2581707D01*
Y-657983D01*
X2586622Y-653069D01*
X2608716D01*
X2613667Y-657947D01*
D02*
G37*
G36*
X2613740Y-688523D02*
Y-710327D01*
X2565146D01*
Y-704175D01*
X2582981D01*
Y-695585D01*
X2570059D01*
X2565073Y-690670D01*
Y-683536D01*
X2571224D01*
Y-689433D01*
X2582981D01*
Y-688486D01*
X2587859Y-683536D01*
X2608789D01*
X2613740Y-688523D01*
D02*
G37*
G36*
X2613885Y-740757D02*
X2570169D01*
X2565218Y-735879D01*
Y-714003D01*
X2571370D01*
Y-734642D01*
X2587058D01*
Y-714003D01*
X2593210D01*
Y-734642D01*
X2607733D01*
Y-714003D01*
X2613885D01*
Y-740757D01*
D02*
G37*
G36*
X2614904Y-749311D02*
Y-766383D01*
X2609954Y-771260D01*
X2591317D01*
X2586439Y-766346D01*
Y-750585D01*
X2571224D01*
Y-765109D01*
X2581343D01*
Y-771260D01*
X2570023D01*
X2565073Y-766346D01*
Y-749311D01*
X2570059Y-744433D01*
X2587641D01*
X2592555Y-749347D01*
Y-765109D01*
X2608753D01*
Y-750585D01*
X2597942D01*
Y-744433D01*
X2609918D01*
X2614904Y-749311D01*
D02*
G37*
G36*
X2613922Y-165664D02*
X2609044Y-170578D01*
X2591426D01*
X2586694Y-165664D01*
Y-149102D01*
X2571152D01*
Y-170578D01*
X2565000D01*
Y-147901D01*
X2569914Y-142950D01*
X2587932D01*
X2592846Y-147901D01*
Y-164426D01*
X2607770D01*
Y-142950D01*
X2613922D01*
Y-165664D01*
D02*
G37*
G36*
X2613812Y-184483D02*
Y-207269D01*
X2607661D01*
Y-185684D01*
X2592300D01*
Y-206650D01*
X2586148D01*
Y-185684D01*
X2571115D01*
Y-207269D01*
X2565000D01*
Y-184483D01*
X2569914Y-179569D01*
X2586148D01*
X2589170Y-182626D01*
X2592300Y-179569D01*
X2608898D01*
X2613812Y-184483D01*
D02*
G37*
G36*
Y-218298D02*
Y-235370D01*
X2608862Y-240248D01*
X2569950D01*
X2565000Y-235333D01*
Y-218298D01*
X2569950Y-213421D01*
X2608862D01*
X2613812Y-218298D01*
D02*
G37*
G36*
X2613740Y-259685D02*
X2607588D01*
Y-254953D01*
X2571152D01*
Y-259685D01*
X2565000D01*
Y-243960D01*
X2571152D01*
Y-248802D01*
X2607588D01*
Y-243960D01*
X2613740D01*
Y-259685D01*
D02*
G37*
G36*
X2713812Y-149175D02*
X2687313D01*
Y-164572D01*
X2713812D01*
Y-170724D01*
X2686076D01*
X2681162Y-165810D01*
Y-149175D01*
X2665000D01*
Y-143023D01*
X2713812D01*
Y-149175D01*
D02*
G37*
G36*
Y-184483D02*
Y-207269D01*
X2707661D01*
Y-185684D01*
X2692300D01*
Y-206650D01*
X2686148D01*
Y-185684D01*
X2671115D01*
Y-207269D01*
X2665000D01*
Y-184483D01*
X2669914Y-179569D01*
X2686148D01*
X2689170Y-182626D01*
X2692300Y-179569D01*
X2708898D01*
X2713812Y-184483D01*
D02*
G37*
G36*
Y-218298D02*
Y-235370D01*
X2708862Y-240248D01*
X2669950D01*
X2665000Y-235333D01*
Y-218298D01*
X2669950Y-213421D01*
X2708862D01*
X2713812Y-218298D01*
D02*
G37*
G36*
X2713740Y-259685D02*
X2707588D01*
Y-254953D01*
X2671152D01*
Y-259685D01*
X2665000D01*
Y-243960D01*
X2671152D01*
Y-248802D01*
X2707588D01*
Y-243960D01*
X2713740D01*
Y-259685D01*
D02*
G37*
G36*
X2313922Y-166064D02*
X2309044Y-170978D01*
X2291426D01*
X2286694Y-166064D01*
Y-149502D01*
X2271152D01*
Y-170978D01*
X2265000D01*
Y-148301D01*
X2269914Y-143351D01*
X2287932D01*
X2292846Y-148301D01*
Y-164827D01*
X2307770D01*
Y-143351D01*
X2313922D01*
Y-166064D01*
D02*
G37*
G36*
X2313812Y-184483D02*
Y-207160D01*
X2307661D01*
Y-185684D01*
X2292264D01*
Y-202282D01*
X2287422Y-207160D01*
X2269368D01*
X2265000Y-202282D01*
Y-179569D01*
X2271152D01*
Y-201008D01*
X2286112D01*
Y-184483D01*
X2291026Y-179569D01*
X2308862D01*
X2313812Y-184483D01*
D02*
G37*
G36*
Y-218298D02*
Y-235370D01*
X2308862Y-240248D01*
X2269950D01*
X2265000Y-235333D01*
Y-218298D01*
X2269950Y-213421D01*
X2308862D01*
X2313812Y-218298D01*
D02*
G37*
G36*
X2313740Y-259685D02*
X2307588D01*
Y-254953D01*
X2271152D01*
Y-259685D01*
X2265000D01*
Y-243960D01*
X2271152D01*
Y-248802D01*
X2307588D01*
Y-243960D01*
X2313740D01*
Y-259685D01*
D02*
G37*
G36*
X2413812Y-147901D02*
Y-170687D01*
X2407661D01*
Y-149102D01*
X2392300D01*
Y-170068D01*
X2386148D01*
Y-149102D01*
X2371115D01*
Y-170687D01*
X2365000D01*
Y-147901D01*
X2369914Y-142987D01*
X2386148D01*
X2389170Y-146044D01*
X2392300Y-142987D01*
X2408898D01*
X2413812Y-147901D01*
D02*
G37*
G36*
Y-184483D02*
Y-207269D01*
X2407661D01*
Y-185684D01*
X2392300D01*
Y-206650D01*
X2386148D01*
Y-185684D01*
X2371115D01*
Y-207269D01*
X2365000D01*
Y-184483D01*
X2369914Y-179569D01*
X2386148D01*
X2389170Y-182626D01*
X2392300Y-179569D01*
X2408898D01*
X2413812Y-184483D01*
D02*
G37*
G36*
Y-218298D02*
Y-235370D01*
X2408862Y-240248D01*
X2369950D01*
X2365000Y-235333D01*
Y-218298D01*
X2369950Y-213421D01*
X2408862D01*
X2413812Y-218298D01*
D02*
G37*
G36*
X2413740Y-259685D02*
X2407588D01*
Y-254953D01*
X2371152D01*
Y-259685D01*
X2365000D01*
Y-243960D01*
X2371152D01*
Y-248802D01*
X2407588D01*
Y-243960D01*
X2413740D01*
Y-259685D01*
D02*
G37*
G36*
X2513812Y-147901D02*
Y-170578D01*
X2507661D01*
Y-149102D01*
X2492264D01*
Y-165700D01*
X2487422Y-170578D01*
X2469368D01*
X2465000Y-165700D01*
Y-142987D01*
X2471152D01*
Y-164426D01*
X2486112D01*
Y-147901D01*
X2491026Y-142987D01*
X2508862D01*
X2513812Y-147901D01*
D02*
G37*
G36*
Y-184483D02*
Y-207269D01*
X2507661D01*
Y-185684D01*
X2492300D01*
Y-206650D01*
X2486148D01*
Y-185684D01*
X2471115D01*
Y-207269D01*
X2465000D01*
Y-184483D01*
X2469914Y-179569D01*
X2486148D01*
X2489170Y-182626D01*
X2492300Y-179569D01*
X2508898D01*
X2513812Y-184483D01*
D02*
G37*
G36*
Y-218298D02*
Y-235370D01*
X2508862Y-240248D01*
X2469950D01*
X2465000Y-235333D01*
Y-218298D01*
X2469950Y-213421D01*
X2508862D01*
X2513812Y-218298D01*
D02*
G37*
G36*
X2513740Y-259685D02*
X2507588D01*
Y-254953D01*
X2471152D01*
Y-259685D01*
X2465000D01*
Y-243960D01*
X2471152D01*
Y-248802D01*
X2507588D01*
Y-243960D01*
X2513740D01*
Y-259685D01*
D02*
G37*
G36*
X2013812Y-163116D02*
X1987313D01*
Y-178513D01*
X2013812D01*
Y-184665D01*
X1986076D01*
X1981162Y-179751D01*
Y-163116D01*
X1965000D01*
Y-156964D01*
X2013812D01*
Y-163116D01*
D02*
G37*
G36*
X1971152Y-195839D02*
X2008971D01*
X2013885Y-200754D01*
Y-207051D01*
X2007734Y-207014D01*
Y-201991D01*
X1971152D01*
Y-207014D01*
X1965000D01*
Y-191835D01*
X1971152D01*
Y-195839D01*
D02*
G37*
G36*
X2013812Y-218298D02*
Y-235370D01*
X2008862Y-240248D01*
X1969950D01*
X1965000Y-235333D01*
Y-218298D01*
X1969950Y-213421D01*
X2008862D01*
X2013812Y-218298D01*
D02*
G37*
G36*
X2013740Y-259685D02*
X2007588D01*
Y-254953D01*
X1971152D01*
Y-259685D01*
X1965000D01*
Y-243960D01*
X1971152D01*
Y-248802D01*
X2007588D01*
Y-243960D01*
X2013740D01*
Y-259685D01*
D02*
G37*
G36*
X2113922Y-149903D02*
Y-169631D01*
X2107770D01*
Y-151104D01*
X2065073D01*
Y-144952D01*
X2109008D01*
X2113922Y-149903D01*
D02*
G37*
G36*
X2113812Y-184483D02*
Y-207160D01*
X2107661D01*
Y-185684D01*
X2092264D01*
Y-202282D01*
X2087422Y-207160D01*
X2069368D01*
X2065000Y-202282D01*
Y-179569D01*
X2071152D01*
Y-201008D01*
X2086112D01*
Y-184483D01*
X2091026Y-179569D01*
X2108862D01*
X2113812Y-184483D01*
D02*
G37*
G36*
Y-218298D02*
Y-235370D01*
X2108862Y-240248D01*
X2069950D01*
X2065000Y-235333D01*
Y-218298D01*
X2069950Y-213421D01*
X2108862D01*
X2113812Y-218298D01*
D02*
G37*
G36*
X2113740Y-259685D02*
X2107588D01*
Y-254953D01*
X2071152D01*
Y-259685D01*
X2065000D01*
Y-243960D01*
X2071152D01*
Y-248802D01*
X2107588D01*
Y-243960D01*
X2113740D01*
Y-259685D01*
D02*
G37*
G36*
X2213922Y-165992D02*
X2209008Y-170833D01*
X2169914D01*
X2165000Y-165992D01*
Y-148155D01*
X2169914Y-143205D01*
X2190371D01*
X2195285Y-148155D01*
Y-164718D01*
X2207770D01*
Y-143205D01*
X2213922D01*
Y-165992D01*
D02*
G37*
G36*
X2213812Y-184483D02*
Y-207160D01*
X2207661D01*
Y-185684D01*
X2192264D01*
Y-202282D01*
X2187422Y-207160D01*
X2169368D01*
X2165000Y-202282D01*
Y-179569D01*
X2171152D01*
Y-201008D01*
X2186112D01*
Y-184483D01*
X2191026Y-179569D01*
X2208862D01*
X2213812Y-184483D01*
D02*
G37*
G36*
Y-218298D02*
Y-235370D01*
X2208862Y-240248D01*
X2169950D01*
X2165000Y-235333D01*
Y-218298D01*
X2169950Y-213421D01*
X2208862D01*
X2213812Y-218298D01*
D02*
G37*
G36*
X2213740Y-259685D02*
X2207588D01*
Y-254953D01*
X2171152D01*
Y-259685D01*
X2165000D01*
Y-243960D01*
X2171152D01*
Y-248802D01*
X2207588D01*
Y-243960D01*
X2213740D01*
Y-259685D01*
D02*
G37*
G36*
X1913812Y-161842D02*
Y-184519D01*
X1907661D01*
Y-163043D01*
X1892264D01*
Y-179642D01*
X1887422Y-184519D01*
X1869368D01*
X1865000Y-179642D01*
Y-156928D01*
X1871152D01*
Y-178368D01*
X1886112D01*
Y-161842D01*
X1891026Y-156928D01*
X1908862D01*
X1913812Y-161842D01*
D02*
G37*
G36*
X1871152Y-195839D02*
X1908971D01*
X1913885Y-200754D01*
Y-207051D01*
X1907734Y-207014D01*
Y-201991D01*
X1871152D01*
Y-207014D01*
X1865000D01*
Y-191835D01*
X1871152D01*
Y-195839D01*
D02*
G37*
G36*
X1913812Y-218298D02*
Y-235370D01*
X1908862Y-240248D01*
X1869950D01*
X1865000Y-235333D01*
Y-218298D01*
X1869950Y-213421D01*
X1908862D01*
X1913812Y-218298D01*
D02*
G37*
G36*
X1913740Y-259685D02*
X1907588D01*
Y-254953D01*
X1871152D01*
Y-259685D01*
X1865000D01*
Y-243960D01*
X1871152D01*
Y-248802D01*
X1907588D01*
Y-243960D01*
X1913740D01*
Y-259685D01*
D02*
G37*
G36*
X1813667Y-176038D02*
Y-197987D01*
X1765000D01*
Y-176038D01*
X1769950Y-171160D01*
X1808716D01*
X1813667Y-176038D01*
D02*
G37*
G36*
X1813740Y-207888D02*
X1779232D01*
X1813740Y-222885D01*
Y-229182D01*
X1765000D01*
Y-223030D01*
X1800636D01*
X1765000Y-207451D01*
Y-201736D01*
X1813740D01*
Y-207888D01*
D02*
G37*
G36*
X1813667Y-237736D02*
Y-254735D01*
X1808716Y-259685D01*
X1769914D01*
X1765000Y-254735D01*
Y-237736D01*
X1769950Y-232822D01*
X1789934D01*
Y-245962D01*
X1783782D01*
Y-238937D01*
X1771152D01*
Y-253534D01*
X1807515D01*
Y-238937D01*
X1795430D01*
Y-232822D01*
X1808716D01*
X1813667Y-237736D01*
D02*
G37*
G36*
X1713667Y-176038D02*
Y-197987D01*
X1665000D01*
Y-176038D01*
X1669950Y-171160D01*
X1708716D01*
X1713667Y-176038D01*
D02*
G37*
G36*
X1713740Y-207888D02*
X1679232D01*
X1713740Y-222885D01*
Y-229182D01*
X1665000D01*
Y-223030D01*
X1700636D01*
X1665000Y-207451D01*
Y-201736D01*
X1713740D01*
Y-207888D01*
D02*
G37*
G36*
X1713667Y-237736D02*
Y-254735D01*
X1708716Y-259685D01*
X1669914D01*
X1665000Y-254735D01*
Y-237736D01*
X1669950Y-232822D01*
X1689934D01*
Y-245962D01*
X1683782D01*
Y-238937D01*
X1671152D01*
Y-253534D01*
X1707515D01*
Y-238937D01*
X1695430D01*
Y-232822D01*
X1708716D01*
X1713667Y-237736D01*
D02*
G37*
%LPC*%
G36*
X2807733Y-660386D02*
X2793537D01*
Y-675783D01*
X2807733D01*
Y-660386D01*
D02*
G37*
G36*
X2787386D02*
X2771115D01*
Y-675783D01*
X2787386D01*
Y-660386D01*
D02*
G37*
G36*
X2807661Y-731147D02*
X2771151D01*
Y-745671D01*
X2807661D01*
Y-731147D01*
D02*
G37*
G36*
X2807515Y-178113D02*
X2789024D01*
Y-192600D01*
X2807515D01*
Y-178113D01*
D02*
G37*
G36*
X1607734Y-697259D02*
X1571115D01*
Y-712583D01*
X1607734D01*
Y-697259D01*
D02*
G37*
G36*
Y-731147D02*
X1571224D01*
Y-745671D01*
X1607734D01*
Y-731147D01*
D02*
G37*
G36*
X1507661D02*
X1471151D01*
Y-745671D01*
X1507661D01*
Y-731147D01*
D02*
G37*
G36*
X1407661D02*
X1371151D01*
Y-745671D01*
X1407661D01*
Y-731147D01*
D02*
G37*
G36*
X1307661D02*
X1271151D01*
Y-745671D01*
X1307661D01*
Y-731147D01*
D02*
G37*
G36*
X1707661D02*
X1671151D01*
Y-745671D01*
X1707661D01*
Y-731147D01*
D02*
G37*
G36*
X1807624Y-697186D02*
X1790407D01*
Y-712510D01*
X1807624D01*
Y-697186D01*
D02*
G37*
G36*
X1807661Y-731147D02*
X1771151D01*
Y-745671D01*
X1807661D01*
Y-731147D01*
D02*
G37*
G36*
X1907734Y-674618D02*
X1871115D01*
Y-689942D01*
X1907734D01*
Y-674618D01*
D02*
G37*
G36*
Y-731147D02*
X1871224D01*
Y-745671D01*
X1907734D01*
Y-731147D01*
D02*
G37*
G36*
X2207661D02*
X2171151D01*
Y-745671D01*
X2207661D01*
Y-731147D01*
D02*
G37*
G36*
X2107733Y-674327D02*
X2093537D01*
Y-689724D01*
X2107733D01*
Y-674327D01*
D02*
G37*
G36*
X2087386D02*
X2071115D01*
Y-689724D01*
X2087386D01*
Y-674327D01*
D02*
G37*
G36*
X2107661Y-731147D02*
X2071151D01*
Y-745671D01*
X2107661D01*
Y-731147D01*
D02*
G37*
G36*
X2007661D02*
X1971151D01*
Y-745671D01*
X2007661D01*
Y-731147D01*
D02*
G37*
G36*
X2507661D02*
X2471151D01*
Y-745671D01*
X2507661D01*
Y-731147D01*
D02*
G37*
G36*
X2407661D02*
X2371151D01*
Y-745671D01*
X2407661D01*
Y-731147D01*
D02*
G37*
G36*
X2307624Y-674545D02*
X2290407D01*
Y-689870D01*
X2307624D01*
Y-674545D01*
D02*
G37*
G36*
X2307661Y-731147D02*
X2271151D01*
Y-745671D01*
X2307661D01*
Y-731147D01*
D02*
G37*
G36*
X2707661D02*
X2671151D01*
Y-745671D01*
X2707661D01*
Y-731147D01*
D02*
G37*
G36*
X2607515Y-659184D02*
X2587859Y-659221D01*
Y-673672D01*
X2607515D01*
Y-659184D01*
D02*
G37*
G36*
X2607588Y-689688D02*
X2589097D01*
Y-704175D01*
X2607588D01*
Y-689688D01*
D02*
G37*
G36*
X2607661Y-219572D02*
X2571152D01*
Y-234096D01*
X2607661D01*
Y-219572D01*
D02*
G37*
G36*
X2707661D02*
X2671152D01*
Y-234096D01*
X2707661D01*
Y-219572D01*
D02*
G37*
G36*
X2307661D02*
X2271152D01*
Y-234096D01*
X2307661D01*
Y-219572D01*
D02*
G37*
G36*
X2407661D02*
X2371152D01*
Y-234096D01*
X2407661D01*
Y-219572D01*
D02*
G37*
G36*
X2507661D02*
X2471152D01*
Y-234096D01*
X2507661D01*
Y-219572D01*
D02*
G37*
G36*
X2007661D02*
X1971152D01*
Y-234096D01*
X2007661D01*
Y-219572D01*
D02*
G37*
G36*
X2107661D02*
X2071152D01*
Y-234096D01*
X2107661D01*
Y-219572D01*
D02*
G37*
G36*
X2189133Y-149357D02*
X2171152D01*
Y-164718D01*
X2189133D01*
Y-149357D01*
D02*
G37*
G36*
X2207661Y-219572D02*
X2171152D01*
Y-234096D01*
X2207661D01*
Y-219572D01*
D02*
G37*
G36*
X1907661D02*
X1871152D01*
Y-234096D01*
X1907661D01*
Y-219572D01*
D02*
G37*
G36*
X1807515Y-177312D02*
X1771152D01*
Y-191835D01*
X1807515D01*
Y-177312D01*
D02*
G37*
G36*
X1707515D02*
X1671152D01*
Y-191835D01*
X1707515D01*
Y-177312D01*
D02*
G37*
%LPD*%
D12*
X1636496Y-10000D02*
X2836496D01*
X1636496Y-110000D02*
Y-10000D01*
Y-110000D02*
X2836496D01*
Y-10000D01*
X1036496Y-897402D02*
Y-797402D01*
X2766496D01*
X2761496D02*
X2836496D01*
Y-897402D02*
Y-797402D01*
X1036496Y-897402D02*
X2836496D01*
X2737284Y-896615D02*
Y-798189D01*
M02*
