G04*
G04 #@! TF.GenerationSoftware,Altium Limited,Altium Designer,23.1.1 (15)*
G04*
G04 Layer_Physical_Order=1*
G04 Layer_Color=255*
%FSLAX26Y26*%
%MOIN*%
G70*
G04*
G04 #@! TF.SameCoordinates,D0E4B440-4BE9-487C-8C21-8B387810EFB0*
G04*
G04*
G04 #@! TF.FilePolarity,Positive*
G04*
G01*
G75*
%ADD13C,0.010000*%
%ADD14C,0.008000*%
%ADD15C,0.006000*%
G04:AMPARAMS|DCode=16|XSize=78.74mil|YSize=31.496mil|CornerRadius=7.874mil|HoleSize=0mil|Usage=FLASHONLY|Rotation=90.000|XOffset=0mil|YOffset=0mil|HoleType=Round|Shape=RoundedRectangle|*
%AMROUNDEDRECTD16*
21,1,0.078740,0.015748,0,0,90.0*
21,1,0.062992,0.031496,0,0,90.0*
1,1,0.015748,0.007874,0.031496*
1,1,0.015748,0.007874,-0.031496*
1,1,0.015748,-0.007874,-0.031496*
1,1,0.015748,-0.007874,0.031496*
%
%ADD16ROUNDEDRECTD16*%
G04:AMPARAMS|DCode=17|XSize=49.213mil|YSize=25.591mil|CornerRadius=6.398mil|HoleSize=0mil|Usage=FLASHONLY|Rotation=180.000|XOffset=0mil|YOffset=0mil|HoleType=Round|Shape=RoundedRectangle|*
%AMROUNDEDRECTD17*
21,1,0.049213,0.012795,0,0,180.0*
21,1,0.036417,0.025591,0,0,180.0*
1,1,0.012795,-0.018209,0.006398*
1,1,0.012795,0.018209,0.006398*
1,1,0.012795,0.018209,-0.006398*
1,1,0.012795,-0.018209,-0.006398*
%
%ADD17ROUNDEDRECTD17*%
G04:AMPARAMS|DCode=18|XSize=31.496mil|YSize=70.866mil|CornerRadius=7.874mil|HoleSize=0mil|Usage=FLASHONLY|Rotation=270.000|XOffset=0mil|YOffset=0mil|HoleType=Round|Shape=RoundedRectangle|*
%AMROUNDEDRECTD18*
21,1,0.031496,0.055118,0,0,270.0*
21,1,0.015748,0.070866,0,0,270.0*
1,1,0.015748,-0.027559,-0.007874*
1,1,0.015748,-0.027559,0.007874*
1,1,0.015748,0.027559,0.007874*
1,1,0.015748,0.027559,-0.007874*
%
%ADD18ROUNDEDRECTD18*%
%ADD19R,0.009842X0.015748*%
%ADD20R,0.015748X0.009842*%
%ADD21R,0.194882X0.194882*%
G04:AMPARAMS|DCode=22|XSize=30mil|YSize=30mil|CornerRadius=7.5mil|HoleSize=0mil|Usage=FLASHONLY|Rotation=180.000|XOffset=0mil|YOffset=0mil|HoleType=Round|Shape=RoundedRectangle|*
%AMROUNDEDRECTD22*
21,1,0.030000,0.015000,0,0,180.0*
21,1,0.015000,0.030000,0,0,180.0*
1,1,0.015000,-0.007500,0.007500*
1,1,0.015000,0.007500,0.007500*
1,1,0.015000,0.007500,-0.007500*
1,1,0.015000,-0.007500,-0.007500*
%
%ADD22ROUNDEDRECTD22*%
G04:AMPARAMS|DCode=23|XSize=50mil|YSize=35mil|CornerRadius=8.75mil|HoleSize=0mil|Usage=FLASHONLY|Rotation=90.000|XOffset=0mil|YOffset=0mil|HoleType=Round|Shape=RoundedRectangle|*
%AMROUNDEDRECTD23*
21,1,0.050000,0.017500,0,0,90.0*
21,1,0.032500,0.035000,0,0,90.0*
1,1,0.017500,0.008750,0.016250*
1,1,0.017500,0.008750,-0.016250*
1,1,0.017500,-0.008750,-0.016250*
1,1,0.017500,-0.008750,0.016250*
%
%ADD23ROUNDEDRECTD23*%
G04:AMPARAMS|DCode=24|XSize=11.811mil|YSize=51.181mil|CornerRadius=2.953mil|HoleSize=0mil|Usage=FLASHONLY|Rotation=180.000|XOffset=0mil|YOffset=0mil|HoleType=Round|Shape=RoundedRectangle|*
%AMROUNDEDRECTD24*
21,1,0.011811,0.045275,0,0,180.0*
21,1,0.005905,0.051181,0,0,180.0*
1,1,0.005906,-0.002953,0.022638*
1,1,0.005906,0.002953,0.022638*
1,1,0.005906,0.002953,-0.022638*
1,1,0.005906,-0.002953,-0.022638*
%
%ADD24ROUNDEDRECTD24*%
G04:AMPARAMS|DCode=25|XSize=23.622mil|YSize=51.181mil|CornerRadius=5.906mil|HoleSize=0mil|Usage=FLASHONLY|Rotation=180.000|XOffset=0mil|YOffset=0mil|HoleType=Round|Shape=RoundedRectangle|*
%AMROUNDEDRECTD25*
21,1,0.023622,0.039370,0,0,180.0*
21,1,0.011811,0.051181,0,0,180.0*
1,1,0.011811,-0.005906,0.019685*
1,1,0.011811,0.005906,0.019685*
1,1,0.011811,0.005906,-0.019685*
1,1,0.011811,-0.005906,-0.019685*
%
%ADD25ROUNDEDRECTD25*%
G04:AMPARAMS|DCode=26|XSize=30mil|YSize=30mil|CornerRadius=7.5mil|HoleSize=0mil|Usage=FLASHONLY|Rotation=90.000|XOffset=0mil|YOffset=0mil|HoleType=Round|Shape=RoundedRectangle|*
%AMROUNDEDRECTD26*
21,1,0.030000,0.015000,0,0,90.0*
21,1,0.015000,0.030000,0,0,90.0*
1,1,0.015000,0.007500,0.007500*
1,1,0.015000,0.007500,-0.007500*
1,1,0.015000,-0.007500,-0.007500*
1,1,0.015000,-0.007500,0.007500*
%
%ADD26ROUNDEDRECTD26*%
G04:AMPARAMS|DCode=27|XSize=47.244mil|YSize=55.118mil|CornerRadius=11.811mil|HoleSize=0mil|Usage=FLASHONLY|Rotation=0.000|XOffset=0mil|YOffset=0mil|HoleType=Round|Shape=RoundedRectangle|*
%AMROUNDEDRECTD27*
21,1,0.047244,0.031496,0,0,0.0*
21,1,0.023622,0.055118,0,0,0.0*
1,1,0.023622,0.011811,-0.015748*
1,1,0.023622,-0.011811,-0.015748*
1,1,0.023622,-0.011811,0.015748*
1,1,0.023622,0.011811,0.015748*
%
%ADD27ROUNDEDRECTD27*%
G04:AMPARAMS|DCode=28|XSize=19.685mil|YSize=47.244mil|CornerRadius=4.921mil|HoleSize=0mil|Usage=FLASHONLY|Rotation=270.000|XOffset=0mil|YOffset=0mil|HoleType=Round|Shape=RoundedRectangle|*
%AMROUNDEDRECTD28*
21,1,0.019685,0.037402,0,0,270.0*
21,1,0.009843,0.047244,0,0,270.0*
1,1,0.009842,-0.018701,-0.004921*
1,1,0.009842,-0.018701,0.004921*
1,1,0.009842,0.018701,0.004921*
1,1,0.009842,0.018701,-0.004921*
%
%ADD28ROUNDEDRECTD28*%
G04:AMPARAMS|DCode=29|XSize=119.291mil|YSize=119.291mil|CornerRadius=29.823mil|HoleSize=0mil|Usage=FLASHONLY|Rotation=0.000|XOffset=0mil|YOffset=0mil|HoleType=Round|Shape=RoundedRectangle|*
%AMROUNDEDRECTD29*
21,1,0.119291,0.059646,0,0,0.0*
21,1,0.059646,0.119291,0,0,0.0*
1,1,0.059646,0.029823,-0.029823*
1,1,0.059646,-0.029823,-0.029823*
1,1,0.059646,-0.029823,0.029823*
1,1,0.059646,0.029823,0.029823*
%
%ADD29ROUNDEDRECTD29*%
G04:AMPARAMS|DCode=30|XSize=9.842mil|YSize=50mil|CornerRadius=2.461mil|HoleSize=0mil|Usage=FLASHONLY|Rotation=0.000|XOffset=0mil|YOffset=0mil|HoleType=Round|Shape=RoundedRectangle|*
%AMROUNDEDRECTD30*
21,1,0.009842,0.045079,0,0,0.0*
21,1,0.004921,0.050000,0,0,0.0*
1,1,0.004921,0.002461,-0.022539*
1,1,0.004921,-0.002461,-0.022539*
1,1,0.004921,-0.002461,0.022539*
1,1,0.004921,0.002461,0.022539*
%
%ADD30ROUNDEDRECTD30*%
G04:AMPARAMS|DCode=31|XSize=9.842mil|YSize=50mil|CornerRadius=2.461mil|HoleSize=0mil|Usage=FLASHONLY|Rotation=90.000|XOffset=0mil|YOffset=0mil|HoleType=Round|Shape=RoundedRectangle|*
%AMROUNDEDRECTD31*
21,1,0.009842,0.045079,0,0,90.0*
21,1,0.004921,0.050000,0,0,90.0*
1,1,0.004921,0.022539,0.002461*
1,1,0.004921,0.022539,-0.002461*
1,1,0.004921,-0.022539,-0.002461*
1,1,0.004921,-0.022539,0.002461*
%
%ADD31ROUNDEDRECTD31*%
%ADD56C,0.020000*%
%ADD57C,0.015000*%
%ADD58C,0.085630*%
%ADD59C,0.066929*%
%ADD60R,0.066929X0.066929*%
%ADD61O,0.047244X0.078740*%
%ADD62C,0.029528*%
%ADD63O,0.047244X0.070866*%
%ADD64C,0.019685*%
G36*
X1572769Y-46677D02*
X1572027Y-45923D01*
X1571270Y-45248D01*
X1570496Y-44652D01*
X1569707Y-44136D01*
X1568901Y-43699D01*
X1568147Y-43371D01*
X1567934Y-43456D01*
X1567383Y-43786D01*
X1566955Y-44176D01*
X1566649Y-44626D01*
X1566465Y-45136D01*
X1566404Y-45706D01*
Y-42869D01*
X1566388Y-42865D01*
X1565518Y-42746D01*
X1564631Y-42706D01*
X1564819Y-36706D01*
X1565696Y-36669D01*
X1566404Y-36575D01*
Y-33706D01*
X1566465Y-34276D01*
X1566649Y-34786D01*
X1566955Y-35236D01*
X1567383Y-35626D01*
X1567934Y-35956D01*
X1568279Y-36095D01*
X1569111Y-35756D01*
X1569943Y-35337D01*
X1570765Y-34843D01*
X1571579Y-34273D01*
X1572384Y-33626D01*
X1573180Y-32904D01*
X1572769Y-46677D01*
D02*
G37*
G36*
X1066592Y-44819D02*
X1066530Y-44249D01*
X1066347Y-43739D01*
X1066041Y-43289D01*
X1065612Y-42899D01*
X1065062Y-42569D01*
X1064388Y-42299D01*
X1063593Y-42089D01*
X1062675Y-41939D01*
X1061634Y-41849D01*
X1060472Y-41819D01*
Y-35819D01*
X1061634Y-35789D01*
X1062675Y-35699D01*
X1063593Y-35549D01*
X1064388Y-35339D01*
X1065062Y-35069D01*
X1065612Y-34739D01*
X1066041Y-34349D01*
X1066347Y-33899D01*
X1066530Y-33389D01*
X1066592Y-32819D01*
Y-44819D01*
D02*
G37*
G36*
X956445Y-41819D02*
X955047Y-41849D01*
X953832Y-41939D01*
X952799Y-42089D01*
X951947Y-42299D01*
X951278Y-42569D01*
X950790Y-42899D01*
X950485Y-43289D01*
X950361Y-43739D01*
X950419Y-44249D01*
X950660Y-44819D01*
X945899Y-36200D01*
X945838Y-36127D01*
X945881Y-36063D01*
X946028Y-36006D01*
X946280Y-35956D01*
X946636Y-35914D01*
X947662Y-35853D01*
X949986Y-35819D01*
X956445Y-41819D01*
D02*
G37*
G36*
X1096068Y-45809D02*
X1095894Y-46336D01*
X1095879Y-46939D01*
X1096022Y-47618D01*
X1096325Y-48374D01*
X1096786Y-49206D01*
X1097406Y-50115D01*
X1098185Y-51100D01*
X1099122Y-52161D01*
X1100219Y-53299D01*
X1095976Y-57542D01*
X1094839Y-56445D01*
X1092792Y-54729D01*
X1091884Y-54109D01*
X1091051Y-53648D01*
X1090295Y-53345D01*
X1089616Y-53202D01*
X1089013Y-53217D01*
X1088486Y-53391D01*
X1088035Y-53724D01*
X1096401Y-45358D01*
X1096068Y-45809D01*
D02*
G37*
G36*
X2052413Y-21386D02*
X2054412Y-22518D01*
X2056848Y-23510D01*
X2059722Y-24362D01*
X2063034Y-25074D01*
X2066784Y-25647D01*
X2075597Y-26372D01*
X2086162Y-26537D01*
X2053033Y-59666D01*
X2053021Y-54165D01*
X2052143Y-40288D01*
X2051570Y-36538D01*
X2050858Y-33226D01*
X2050006Y-30352D01*
X2049014Y-27916D01*
X2047881Y-25917D01*
X2046609Y-24356D01*
X2050852Y-20113D01*
X2052413Y-21386D01*
D02*
G37*
G36*
X1221663Y-69856D02*
X1222329Y-69924D01*
X1224383Y-70000D01*
Y-80000D01*
X1223320Y-80019D01*
X1221663Y-80150D01*
Y-85000D01*
X1221562Y-84050D01*
X1221258Y-83200D01*
X1220752Y-82450D01*
X1220044Y-81800D01*
X1219133Y-81250D01*
X1218408Y-80957D01*
X1217916Y-81209D01*
X1217436Y-81531D01*
X1217029Y-81890D01*
Y-80536D01*
X1216704Y-80450D01*
X1215186Y-80200D01*
X1213466Y-80050D01*
X1211543Y-80000D01*
Y-70000D01*
X1213466Y-69950D01*
X1215186Y-69800D01*
X1216704Y-69550D01*
X1217029Y-69464D01*
Y-68110D01*
X1217436Y-68469D01*
X1217916Y-68791D01*
X1218408Y-69043D01*
X1219133Y-68750D01*
X1220044Y-68200D01*
X1220752Y-67550D01*
X1221258Y-66800D01*
X1221562Y-65950D01*
X1221663Y-65000D01*
Y-69856D01*
D02*
G37*
G36*
X753986Y-69985D02*
X754383Y-70000D01*
Y-80000D01*
X753986Y-80007D01*
Y-85000D01*
X753885Y-84050D01*
X753581Y-83200D01*
X753075Y-82450D01*
X752366Y-81800D01*
X751456Y-81250D01*
X750342Y-80800D01*
X749471Y-80568D01*
X749095Y-80680D01*
X748469Y-80926D01*
X747916Y-81209D01*
X747436Y-81531D01*
X747029Y-81890D01*
Y-80158D01*
X745788Y-80050D01*
X743866Y-80000D01*
Y-70000D01*
X745788Y-69950D01*
X747029Y-69842D01*
Y-68110D01*
X747436Y-68469D01*
X747916Y-68791D01*
X748469Y-69074D01*
X749095Y-69320D01*
X749471Y-69432D01*
X750342Y-69200D01*
X751456Y-68750D01*
X752366Y-68200D01*
X753075Y-67550D01*
X753581Y-66800D01*
X753885Y-65950D01*
X753986Y-65000D01*
Y-69985D01*
D02*
G37*
G36*
X1855647Y-72970D02*
X1854967Y-71554D01*
X1854180Y-70287D01*
X1853286Y-69170D01*
X1852285Y-68201D01*
X1851177Y-67382D01*
X1849962Y-66711D01*
X1848640Y-66189D01*
X1847211Y-65817D01*
X1845675Y-65593D01*
X1844032Y-65519D01*
Y-59519D01*
X1845585Y-59442D01*
X1847015Y-59211D01*
X1848323Y-58825D01*
X1849509Y-58285D01*
X1850572Y-57591D01*
X1851513Y-56743D01*
X1852331Y-55741D01*
X1853026Y-54584D01*
X1853599Y-53273D01*
X1854050Y-51808D01*
X1855647Y-72970D01*
D02*
G37*
G36*
X2753272Y-74555D02*
X2753214Y-74060D01*
X2753043Y-73618D01*
X2752756Y-73227D01*
X2752356Y-72888D01*
X2751840Y-72601D01*
X2751211Y-72367D01*
X2750466Y-72185D01*
X2749608Y-72054D01*
X2748634Y-71976D01*
X2747546Y-71950D01*
Y-65950D01*
X2748634Y-65924D01*
X2749608Y-65846D01*
X2750466Y-65716D01*
X2751211Y-65533D01*
X2751840Y-65299D01*
X2752356Y-65012D01*
X2752756Y-64674D01*
X2753043Y-64283D01*
X2753214Y-63840D01*
X2753272Y-63345D01*
Y-74555D01*
D02*
G37*
G36*
X1387017Y-86675D02*
X1387251Y-86736D01*
X1388091Y-86883D01*
X1388984Y-86971D01*
X1389929Y-87000D01*
Y-93000D01*
X1388984Y-93029D01*
X1388091Y-93117D01*
X1387251Y-93264D01*
X1387017Y-93325D01*
Y-96000D01*
X1386956Y-95430D01*
X1386773Y-94920D01*
X1386466Y-94470D01*
X1386038Y-94080D01*
X1385579Y-93805D01*
X1385049Y-94056D01*
X1384421Y-94438D01*
X1383845Y-94878D01*
X1383322Y-95377D01*
X1382852Y-95934D01*
Y-93099D01*
X1382060Y-93030D01*
X1380897Y-93000D01*
Y-87000D01*
X1382060Y-86970D01*
X1382852Y-86901D01*
Y-84066D01*
X1383322Y-84623D01*
X1383845Y-85122D01*
X1384421Y-85562D01*
X1385049Y-85944D01*
X1385579Y-86195D01*
X1386038Y-85920D01*
X1386466Y-85530D01*
X1386773Y-85080D01*
X1386956Y-84570D01*
X1387017Y-84000D01*
Y-86675D01*
D02*
G37*
G36*
X2120563Y-59044D02*
X2127668Y-84199D01*
X2128677Y-86461D01*
X2129635Y-88171D01*
X2130542Y-89329D01*
X2127267Y-94539D01*
X2125507Y-93090D01*
X2123405Y-91919D01*
X2120959Y-91026D01*
X2118169Y-90411D01*
X2115037Y-90074D01*
X2111562Y-90015D01*
X2107743Y-90234D01*
X2103582Y-90731D01*
X2094229Y-92559D01*
X2119203Y-52920D01*
X2120563Y-59044D01*
D02*
G37*
G36*
X1536595Y-96594D02*
X1536534Y-96024D01*
X1536350Y-95514D01*
X1536044Y-95064D01*
X1535616Y-94674D01*
X1535065Y-94344D01*
X1534392Y-94074D01*
X1533596Y-93864D01*
X1532678Y-93714D01*
X1531638Y-93624D01*
X1530475Y-93594D01*
Y-87594D01*
X1531638Y-87564D01*
X1532678Y-87474D01*
X1533596Y-87324D01*
X1534392Y-87114D01*
X1535065Y-86844D01*
X1535616Y-86514D01*
X1536044Y-86124D01*
X1536350Y-85674D01*
X1536534Y-85164D01*
X1536595Y-84594D01*
Y-96594D01*
D02*
G37*
G36*
X1512204Y-84443D02*
X1512985Y-85105D01*
X1513779Y-85688D01*
X1514585Y-86194D01*
X1515404Y-86622D01*
X1516235Y-86972D01*
X1517079Y-87244D01*
X1517935Y-87439D01*
X1518804Y-87555D01*
X1519686Y-87594D01*
Y-93594D01*
X1518804Y-93633D01*
X1517935Y-93750D01*
X1517079Y-93944D01*
X1516235Y-94216D01*
X1515404Y-94567D01*
X1514585Y-94994D01*
X1513779Y-95500D01*
X1512985Y-96084D01*
X1512204Y-96745D01*
X1511435Y-97484D01*
Y-83704D01*
X1512204Y-84443D01*
D02*
G37*
G36*
X2686162Y-93463D02*
X2680660Y-93476D01*
X2666784Y-94354D01*
X2663034Y-94926D01*
X2659722Y-95638D01*
X2656848Y-96491D01*
X2654412Y-97483D01*
X2652413Y-98615D01*
X2650852Y-99887D01*
X2646609Y-95644D01*
X2647881Y-94084D01*
X2649014Y-92085D01*
X2650006Y-89648D01*
X2650858Y-86774D01*
X2651570Y-83462D01*
X2652143Y-79712D01*
X2652868Y-70899D01*
X2653033Y-60335D01*
X2686162Y-93463D01*
D02*
G37*
G36*
X2586162D02*
X2580660Y-93476D01*
X2566784Y-94354D01*
X2563034Y-94926D01*
X2559722Y-95638D01*
X2556848Y-96491D01*
X2554412Y-97483D01*
X2552413Y-98615D01*
X2550852Y-99887D01*
X2546609Y-95644D01*
X2547881Y-94084D01*
X2549014Y-92085D01*
X2550006Y-89648D01*
X2550858Y-86774D01*
X2551570Y-83462D01*
X2552143Y-79712D01*
X2552868Y-70899D01*
X2553033Y-60335D01*
X2586162Y-93463D01*
D02*
G37*
G36*
X2419972Y-65836D02*
X2420850Y-79712D01*
X2421422Y-83462D01*
X2422134Y-86774D01*
X2422987Y-89648D01*
X2423979Y-92085D01*
X2425111Y-94084D01*
X2426383Y-95644D01*
X2422140Y-99887D01*
X2420579Y-98615D01*
X2418581Y-97483D01*
X2416144Y-96491D01*
X2413270Y-95638D01*
X2409958Y-94926D01*
X2406208Y-94354D01*
X2397395Y-93629D01*
X2386831Y-93463D01*
X2419959Y-60335D01*
X2419972Y-65836D01*
D02*
G37*
G36*
X2319972D02*
X2320850Y-79712D01*
X2321422Y-83462D01*
X2322134Y-86774D01*
X2322987Y-89648D01*
X2323979Y-92085D01*
X2325111Y-94084D01*
X2326383Y-95644D01*
X2322140Y-99887D01*
X2320579Y-98615D01*
X2318581Y-97483D01*
X2316144Y-96491D01*
X2313270Y-95638D01*
X2309958Y-94926D01*
X2306208Y-94354D01*
X2297395Y-93629D01*
X2286831Y-93463D01*
X2319959Y-60335D01*
X2319972Y-65836D01*
D02*
G37*
G36*
X2219972D02*
X2220850Y-79712D01*
X2221422Y-83462D01*
X2222134Y-86774D01*
X2222987Y-89648D01*
X2223979Y-92085D01*
X2225111Y-94084D01*
X2226383Y-95644D01*
X2222140Y-99887D01*
X2220579Y-98615D01*
X2218581Y-97483D01*
X2216144Y-96491D01*
X2213270Y-95638D01*
X2209958Y-94926D01*
X2206208Y-94354D01*
X2197395Y-93629D01*
X2186831Y-93463D01*
X2219959Y-60335D01*
X2219972Y-65836D01*
D02*
G37*
G36*
X2019972D02*
X2020850Y-79712D01*
X2021422Y-83462D01*
X2022134Y-86774D01*
X2022987Y-89648D01*
X2023979Y-92085D01*
X2025111Y-94084D01*
X2026383Y-95644D01*
X2022140Y-99887D01*
X2020580Y-98615D01*
X2018581Y-97483D01*
X2016144Y-96491D01*
X2013270Y-95638D01*
X2009958Y-94926D01*
X2006208Y-94354D01*
X1997395Y-93629D01*
X1986831Y-93463D01*
X2019959Y-60335D01*
X2019972Y-65836D01*
D02*
G37*
G36*
X1919972D02*
X1920850Y-79712D01*
X1921422Y-83462D01*
X1922134Y-86774D01*
X1922987Y-89648D01*
X1923979Y-92085D01*
X1925111Y-94084D01*
X1926383Y-95644D01*
X1922140Y-99887D01*
X1920580Y-98615D01*
X1918581Y-97483D01*
X1916144Y-96491D01*
X1913270Y-95638D01*
X1909958Y-94926D01*
X1906208Y-94354D01*
X1897395Y-93629D01*
X1886831Y-93463D01*
X1919959Y-60335D01*
X1919972Y-65836D01*
D02*
G37*
G36*
X1504307Y-100436D02*
X1503241Y-100457D01*
X1502221Y-100542D01*
X1501247Y-100691D01*
X1500320Y-100903D01*
X1499438Y-101180D01*
X1498603Y-101520D01*
X1497813Y-101924D01*
X1497071Y-102392D01*
X1496374Y-102924D01*
X1495723Y-103520D01*
X1491480Y-99277D01*
X1492076Y-98626D01*
X1492608Y-97930D01*
X1493076Y-97186D01*
X1493480Y-96397D01*
X1493820Y-95562D01*
X1494097Y-94680D01*
X1494309Y-93753D01*
X1494458Y-92779D01*
X1494543Y-91759D01*
X1494564Y-90692D01*
X1504307Y-100436D01*
D02*
G37*
G36*
X1085748Y-101105D02*
X1085765Y-102172D01*
X1085897Y-104090D01*
X1085973Y-104648D01*
X1089952Y-104713D01*
X1089153Y-104796D01*
X1088438Y-105072D01*
X1087808Y-105543D01*
X1087261Y-106206D01*
X1086799Y-107063D01*
X1086694Y-107356D01*
X1086808Y-107614D01*
X1087089Y-108101D01*
X1087404Y-108515D01*
X1086345Y-108434D01*
X1086126Y-109358D01*
X1085916Y-110796D01*
X1085790Y-112427D01*
X1085748Y-114252D01*
X1075748D01*
X1075706Y-112395D01*
X1075580Y-110732D01*
X1075370Y-109264D01*
X1075075Y-107989D01*
X1074927Y-107564D01*
X1073664Y-107468D01*
X1074060Y-107080D01*
X1074415Y-106617D01*
X1074484Y-106498D01*
X1074235Y-106021D01*
X1073688Y-105329D01*
X1073058Y-104830D01*
X1072343Y-104525D01*
X1071544Y-104415D01*
X1075302Y-104476D01*
X1075415Y-104016D01*
X1075561Y-103179D01*
X1075665Y-102267D01*
X1075748Y-100218D01*
X1085748Y-101105D01*
D02*
G37*
G36*
X2501071Y-110203D02*
X2495071Y-112426D01*
X2494848Y-110068D01*
X2494180Y-107746D01*
X2493065Y-105463D01*
X2491505Y-103216D01*
X2489499Y-101007D01*
X2487047Y-98836D01*
X2484150Y-96702D01*
X2480807Y-94606D01*
X2477018Y-92547D01*
X2472783Y-90526D01*
X2516742Y-74321D01*
X2501071Y-110203D01*
D02*
G37*
G36*
X1128039Y-115602D02*
X1128156Y-116471D01*
X1128350Y-117327D01*
X1128622Y-118171D01*
X1128972Y-119002D01*
X1129400Y-119821D01*
X1129906Y-120627D01*
X1130489Y-121421D01*
X1131151Y-122202D01*
X1131890Y-122971D01*
X1118110D01*
X1118849Y-122202D01*
X1119511Y-121421D01*
X1120094Y-120627D01*
X1120600Y-119821D01*
X1121028Y-119002D01*
X1121378Y-118171D01*
X1121650Y-117327D01*
X1121844Y-116471D01*
X1121961Y-115602D01*
X1122000Y-114720D01*
X1128000D01*
X1128039Y-115602D01*
D02*
G37*
G36*
X1134863Y-131165D02*
X1134948Y-132185D01*
X1135097Y-133159D01*
X1135309Y-134086D01*
X1135586Y-134968D01*
X1135926Y-135803D01*
X1136330Y-136592D01*
X1136798Y-137335D01*
X1137330Y-138032D01*
X1137926Y-138683D01*
X1133683Y-142926D01*
X1133032Y-142330D01*
X1132335Y-141798D01*
X1131592Y-141330D01*
X1130803Y-140926D01*
X1129968Y-140586D01*
X1129086Y-140309D01*
X1128159Y-140097D01*
X1127185Y-139948D01*
X1126165Y-139863D01*
X1125098Y-139842D01*
X1134842Y-130098D01*
X1134863Y-131165D01*
D02*
G37*
G36*
X744526Y-205142D02*
X744616Y-206182D01*
X744755Y-207029D01*
X748386D01*
X747647Y-207798D01*
X746986Y-208579D01*
X746402Y-209373D01*
X746195Y-209704D01*
X746416Y-209854D01*
X746926Y-210038D01*
X747496Y-210099D01*
X745947D01*
X745896Y-210179D01*
X745469Y-210998D01*
X745119Y-211830D01*
X744846Y-212673D01*
X744652Y-213530D01*
X744535Y-214399D01*
X744496Y-215280D01*
X738496D01*
X738457Y-214399D01*
X738341Y-213530D01*
X738146Y-212673D01*
X737874Y-211830D01*
X737524Y-210998D01*
X737096Y-210179D01*
X737045Y-210099D01*
X735496D01*
X736066Y-210038D01*
X736576Y-209854D01*
X736798Y-209704D01*
X736590Y-209373D01*
X736007Y-208579D01*
X735346Y-207798D01*
X734606Y-207029D01*
X738238D01*
X738376Y-206182D01*
X738466Y-205142D01*
X738496Y-203979D01*
X744496D01*
X744526Y-205142D01*
D02*
G37*
G36*
X892560Y-207377D02*
X894606Y-209094D01*
X895515Y-209714D01*
X896347Y-210175D01*
X897103Y-210477D01*
X897783Y-210621D01*
X898386Y-210606D01*
X898913Y-210432D01*
X899363Y-210099D01*
X890998Y-218464D01*
X891331Y-218014D01*
X891505Y-217487D01*
X891520Y-216884D01*
X891376Y-216204D01*
X891074Y-215448D01*
X890613Y-214616D01*
X889993Y-213708D01*
X889214Y-212722D01*
X888276Y-211661D01*
X887180Y-210523D01*
X891422Y-206281D01*
X892560Y-207377D01*
D02*
G37*
G36*
X454020Y-214514D02*
X452933Y-214823D01*
X450921Y-215526D01*
X449997Y-215919D01*
X448308Y-216789D01*
X447545Y-217265D01*
X446836Y-217770D01*
X446180Y-218303D01*
X445579Y-218863D01*
X440096Y-215861D01*
X440714Y-215181D01*
X441237Y-214472D01*
X441666Y-213732D01*
X442001Y-212963D01*
X442242Y-212163D01*
X442389Y-211333D01*
X442442Y-210473D01*
X442400Y-209583D01*
X442265Y-208663D01*
X442035Y-207714D01*
X454020Y-214514D01*
D02*
G37*
G36*
X977971Y-221998D02*
X978108Y-222002D01*
Y-228002D01*
X977972Y-228005D01*
X977972Y-231891D01*
X977203Y-231152D01*
X976422Y-230491D01*
X975628Y-229907D01*
X974822Y-229402D01*
X974003Y-228974D01*
X973500Y-228763D01*
X972967Y-229082D01*
X972539Y-229472D01*
X972233Y-229922D01*
X972049Y-230432D01*
X971988Y-231002D01*
Y-228275D01*
X971471Y-228157D01*
X970602Y-228041D01*
X969721Y-228002D01*
X969720Y-222002D01*
X970601Y-221963D01*
X971470Y-221846D01*
X971988Y-221728D01*
Y-219002D01*
X972049Y-219572D01*
X972233Y-220082D01*
X972539Y-220532D01*
X972967Y-220922D01*
X973500Y-221241D01*
X974001Y-221029D01*
X974820Y-220601D01*
X975626Y-220096D01*
X976420Y-219512D01*
X977201Y-218851D01*
X977970Y-218112D01*
X977971Y-221998D01*
D02*
G37*
G36*
X806599Y-215969D02*
X806917Y-216815D01*
X807448Y-217562D01*
X808191Y-218209D01*
X809147Y-218756D01*
X810314Y-219204D01*
X811646Y-219540D01*
X811702Y-219528D01*
X812401Y-219320D01*
X813027Y-219074D01*
X813580Y-218791D01*
X814060Y-218470D01*
X814467Y-218111D01*
Y-219899D01*
X815091Y-219951D01*
X817108Y-220000D01*
Y-230000D01*
X815091Y-230050D01*
X814467Y-230102D01*
Y-231890D01*
X814060Y-231531D01*
X813580Y-231210D01*
X813027Y-230926D01*
X812401Y-230681D01*
X811702Y-230473D01*
X811646Y-230460D01*
X810315Y-230797D01*
X809147Y-231244D01*
X808192Y-231792D01*
X807449Y-232439D01*
X806918Y-233185D01*
X806600Y-234031D01*
X806494Y-234977D01*
X806493Y-215024D01*
X806599Y-215969D01*
D02*
G37*
G36*
X1134631Y-240517D02*
X1133535Y-241655D01*
X1131819Y-243701D01*
X1131198Y-244610D01*
X1130737Y-245442D01*
X1130435Y-246198D01*
X1130291Y-246877D01*
X1130306Y-247481D01*
X1130480Y-248007D01*
X1130813Y-248458D01*
X1122448Y-240093D01*
X1122899Y-240425D01*
X1123425Y-240599D01*
X1124028Y-240615D01*
X1124708Y-240471D01*
X1125464Y-240169D01*
X1126296Y-239707D01*
X1127205Y-239087D01*
X1128190Y-238309D01*
X1129251Y-237371D01*
X1130389Y-236274D01*
X1134631Y-240517D01*
D02*
G37*
G36*
X2692971Y-241890D02*
X2692202Y-241151D01*
X2691421Y-240489D01*
X2690627Y-239906D01*
X2689821Y-239400D01*
X2689002Y-238972D01*
X2688171Y-238622D01*
X2687327Y-238350D01*
X2686470Y-238156D01*
X2685602Y-238039D01*
X2684720Y-238000D01*
Y-232000D01*
X2685602Y-231961D01*
X2686470Y-231844D01*
X2687327Y-231650D01*
X2688171Y-231378D01*
X2689002Y-231028D01*
X2689821Y-230600D01*
X2690627Y-230094D01*
X2691421Y-229511D01*
X2692202Y-228849D01*
X2692971Y-228110D01*
Y-241890D01*
D02*
G37*
G36*
X1182050Y-251086D02*
X1182218Y-251505D01*
X1182497Y-251874D01*
X1182888Y-252194D01*
X1183390Y-252464D01*
X1184004Y-252686D01*
X1184729Y-252858D01*
X1185566Y-252981D01*
X1186515Y-253055D01*
X1187575Y-253079D01*
Y-259079D01*
X1186515Y-259104D01*
X1185566Y-259178D01*
X1184729Y-259301D01*
X1184004Y-259473D01*
X1183390Y-259695D01*
X1182888Y-259965D01*
X1182497Y-260285D01*
X1182218Y-260654D01*
X1182050Y-261072D01*
X1181995Y-261540D01*
Y-250619D01*
X1182050Y-251086D01*
D02*
G37*
G36*
X2346151Y-267798D02*
X2345489Y-268579D01*
X2344906Y-269373D01*
X2344400Y-270179D01*
X2343972Y-270998D01*
X2343622Y-271829D01*
X2343350Y-272673D01*
X2343156Y-273529D01*
X2343039Y-274398D01*
X2343000Y-275280D01*
X2337000D01*
X2336961Y-274398D01*
X2336844Y-273529D01*
X2336650Y-272673D01*
X2336378Y-271829D01*
X2336028Y-270998D01*
X2335600Y-270179D01*
X2335094Y-269373D01*
X2334511Y-268579D01*
X2333849Y-267798D01*
X2333110Y-267029D01*
X2346890D01*
X2346151Y-267798D01*
D02*
G37*
G36*
X1301326Y-273723D02*
X1301063Y-274166D01*
X1300961Y-274686D01*
X1301020Y-275284D01*
X1301241Y-275961D01*
X1301622Y-276715D01*
X1302164Y-277548D01*
X1302867Y-278459D01*
X1303732Y-279447D01*
X1304757Y-280514D01*
X1299661Y-283904D01*
X1298573Y-282857D01*
X1296582Y-281196D01*
X1295679Y-280582D01*
X1294838Y-280112D01*
X1294059Y-279786D01*
X1293341Y-279604D01*
X1292686Y-279567D01*
X1292091Y-279673D01*
X1291559Y-279924D01*
X1301750Y-273359D01*
X1301326Y-273723D01*
D02*
G37*
G36*
X849509Y-286556D02*
X849697Y-289334D01*
X849809Y-290041D01*
X849947Y-290637D01*
X850110Y-291125D01*
X850298Y-291503D01*
X850510Y-291771D01*
X850748Y-291929D01*
X842244D01*
X842482Y-291771D01*
X842695Y-291503D01*
X842883Y-291125D01*
X843045Y-290637D01*
X843183Y-290041D01*
X843296Y-289334D01*
X843446Y-287592D01*
X843496Y-285411D01*
X849496D01*
X849509Y-286556D01*
D02*
G37*
G36*
X832339Y-282485D02*
X831703Y-283306D01*
X831143Y-284133D01*
X830657Y-284967D01*
X830246Y-285807D01*
X829909Y-286654D01*
X829648Y-287507D01*
X829469Y-288329D01*
Y-288329D01*
X829591Y-289160D01*
X829749Y-289885D01*
X829942Y-290505D01*
X830170Y-291019D01*
X830433Y-291428D01*
X830730Y-291731D01*
X831063Y-291929D01*
X822559D01*
X822702Y-291810D01*
X822830Y-291577D01*
X822943Y-291231D01*
X823040Y-290770D01*
X823123Y-290196D01*
X823211Y-289105D01*
X823150Y-288665D01*
X822949Y-287813D01*
X822667Y-286980D01*
X822305Y-286165D01*
X821863Y-285369D01*
X821340Y-284591D01*
X820736Y-283832D01*
X820052Y-283092D01*
X819287Y-282370D01*
X833049Y-281670D01*
X832339Y-282485D01*
D02*
G37*
G36*
X2343030Y-285228D02*
X2343120Y-286337D01*
X2343270Y-287305D01*
X2343480Y-288130D01*
X2343750Y-288813D01*
X2344080Y-289354D01*
X2344470Y-289753D01*
X2344920Y-290009D01*
X2345430Y-290123D01*
X2346000Y-290096D01*
X2334067Y-292063D01*
X2334624Y-291899D01*
X2335123Y-291600D01*
X2335563Y-291167D01*
X2335944Y-290600D01*
X2336267Y-289898D01*
X2336531Y-289062D01*
X2336736Y-288091D01*
X2336883Y-286986D01*
X2336971Y-285747D01*
X2337000Y-284373D01*
X2343000Y-283976D01*
X2343030Y-285228D01*
D02*
G37*
G36*
X496496Y-305000D02*
X446496Y-355000D01*
Y-380000D01*
X476496D01*
X491496Y-395000D01*
X535000D01*
Y-650000D01*
X405000D01*
Y-622795D01*
X463819D01*
Y-577205D01*
X407205D01*
X361496Y-531496D01*
Y-360000D01*
X288886Y-287390D01*
Y-257202D01*
X288886Y-257201D01*
X288854Y-257044D01*
Y-233205D01*
X288217Y-230000D01*
X291793Y-225065D01*
X291932Y-225000D01*
X306496D01*
Y-280000D01*
X326496Y-300000D01*
X389227D01*
X392923Y-300736D01*
X412190D01*
X415886Y-300000D01*
X461496D01*
X476496Y-285000D01*
Y-281032D01*
X476770Y-280622D01*
X477776Y-275568D01*
Y-230293D01*
X477717Y-230000D01*
X481821Y-225000D01*
X496496D01*
Y-305000D01*
D02*
G37*
G36*
X2267798Y-298849D02*
X2268579Y-299511D01*
X2269373Y-300094D01*
X2270179Y-300600D01*
X2270998Y-301028D01*
X2271829Y-301378D01*
X2272673Y-301650D01*
X2273530Y-301845D01*
X2274398Y-301961D01*
X2274915Y-301984D01*
X2275453Y-301970D01*
X2276494Y-301880D01*
X2277412Y-301730D01*
X2278207Y-301520D01*
X2278880Y-301250D01*
X2279431Y-300920D01*
X2279860Y-300530D01*
X2280166Y-300080D01*
X2280349Y-299570D01*
X2280410Y-299000D01*
Y-311000D01*
X2280349Y-310430D01*
X2280166Y-309920D01*
X2279860Y-309470D01*
X2279431Y-309080D01*
X2278880Y-308750D01*
X2278207Y-308480D01*
X2277412Y-308270D01*
X2276494Y-308120D01*
X2275453Y-308030D01*
X2274915Y-308016D01*
X2274398Y-308039D01*
X2273529Y-308156D01*
X2272673Y-308350D01*
X2271829Y-308623D01*
X2270998Y-308973D01*
X2270179Y-309401D01*
X2269373Y-309906D01*
X2268579Y-310490D01*
X2267798Y-311151D01*
X2267029Y-311890D01*
X2267029Y-298110D01*
X2267798Y-298849D01*
D02*
G37*
G36*
X2351926Y-319966D02*
X2351416Y-320150D01*
X2350966Y-320456D01*
X2350576Y-320884D01*
X2350246Y-321435D01*
X2349976Y-322108D01*
X2349766Y-322904D01*
X2349616Y-323822D01*
X2349526Y-324862D01*
X2349496Y-326025D01*
X2343496D01*
X2343466Y-324862D01*
X2343376Y-323822D01*
X2343226Y-322904D01*
X2343016Y-322108D01*
X2342746Y-321435D01*
X2342416Y-320884D01*
X2342026Y-320456D01*
X2341576Y-320150D01*
X2341066Y-319966D01*
X2340496Y-319905D01*
X2352496D01*
X2351926Y-319966D01*
D02*
G37*
G36*
X1158232Y-328575D02*
X1158169Y-328010D01*
X1157979Y-327504D01*
X1157662Y-327057D01*
X1157219Y-326670D01*
X1156649Y-326343D01*
X1155953Y-326075D01*
X1155130Y-325867D01*
X1154180Y-325718D01*
X1153103Y-325628D01*
X1151900Y-325599D01*
Y-319599D01*
X1153103Y-319569D01*
X1154180Y-319480D01*
X1155130Y-319331D01*
X1155953Y-319122D01*
X1156649Y-318855D01*
X1157219Y-318527D01*
X1157662Y-318140D01*
X1157979Y-317694D01*
X1158169Y-317188D01*
X1158232Y-316622D01*
Y-328575D01*
D02*
G37*
G36*
X1184531Y-323629D02*
X1184633Y-324546D01*
X1184805Y-325424D01*
X1185045Y-326264D01*
X1185354Y-327066D01*
X1185732Y-327830D01*
X1186178Y-328556D01*
X1186693Y-329243D01*
X1187277Y-329893D01*
X1187929Y-330505D01*
X1175064D01*
X1175716Y-329893D01*
X1176299Y-329243D01*
X1176814Y-328556D01*
X1177261Y-327830D01*
X1177638Y-327066D01*
X1177947Y-326264D01*
X1178187Y-325424D01*
X1178359Y-324546D01*
X1178462Y-323629D01*
X1178496Y-322675D01*
X1184496D01*
X1184531Y-323629D01*
D02*
G37*
G36*
X1186553Y-332352D02*
X1186121Y-332522D01*
X1185741Y-332805D01*
X1185410Y-333201D01*
X1185131Y-333710D01*
X1184902Y-334333D01*
X1184725Y-335068D01*
X1184598Y-335917D01*
X1184522Y-336880D01*
X1184496Y-337955D01*
X1178496D01*
X1178471Y-336880D01*
X1178395Y-335917D01*
X1178268Y-335068D01*
X1178090Y-334333D01*
X1177861Y-333710D01*
X1177582Y-333201D01*
X1177252Y-332805D01*
X1176871Y-332522D01*
X1176439Y-332352D01*
X1175957Y-332295D01*
X1187036D01*
X1186553Y-332352D01*
D02*
G37*
G36*
X2952135Y-330870D02*
X2952664Y-332553D01*
X2953248Y-334038D01*
X2953889Y-335324D01*
X2954586Y-336413D01*
X2955340Y-337304D01*
X2956150Y-337997D01*
X2957016Y-338491D01*
X2957939Y-338788D01*
X2958917Y-338887D01*
X2938430D01*
X2939371Y-338789D01*
X2940167Y-338493D01*
X2940816Y-338001D01*
X2941321Y-337312D01*
X2941680Y-336426D01*
X2941893Y-335343D01*
X2941961Y-334063D01*
X2941883Y-332587D01*
X2941660Y-330913D01*
X2941291Y-329043D01*
X2951663Y-328990D01*
X2952135Y-330870D01*
D02*
G37*
G36*
X522597Y-330439D02*
X522630Y-333068D01*
X523133Y-339930D01*
X523434Y-341875D01*
X524237Y-345250D01*
X524740Y-346680D01*
X525309Y-347939D01*
X525945Y-349027D01*
X500163Y-345734D01*
X501576Y-345741D01*
X502839Y-345384D01*
X503954Y-344661D01*
X504921Y-343573D01*
X505738Y-342121D01*
X506408Y-340303D01*
X506928Y-338120D01*
X507300Y-335572D01*
X507522Y-332660D01*
X507597Y-329382D01*
X522597Y-330439D01*
D02*
G37*
G36*
X2666893Y-337265D02*
X2668598Y-338727D01*
X2669312Y-339258D01*
X2669932Y-339656D01*
X2670460Y-339920D01*
X2670895Y-340050D01*
X2671237Y-340048D01*
X2671487Y-339912D01*
X2670473Y-346583D01*
X2664816Y-335269D01*
X2666893Y-337265D01*
D02*
G37*
G36*
X1082647Y-342798D02*
X1081986Y-343579D01*
X1081402Y-344373D01*
X1080897Y-345180D01*
X1080469Y-345998D01*
X1080119Y-346830D01*
X1079846Y-347673D01*
X1079846Y-347676D01*
X1079976Y-348177D01*
X1080246Y-348854D01*
X1080576Y-349401D01*
X1080966Y-349820D01*
X1081416Y-350110D01*
X1081926Y-350271D01*
X1082496Y-350304D01*
X1070563Y-350941D01*
X1071120Y-350845D01*
X1071619Y-350620D01*
X1072059Y-350267D01*
X1072440Y-349784D01*
X1072763Y-349173D01*
X1073027Y-348433D01*
X1073176Y-347803D01*
X1073146Y-347673D01*
X1072874Y-346830D01*
X1072524Y-345998D01*
X1072096Y-345180D01*
X1071590Y-344373D01*
X1071007Y-343579D01*
X1070345Y-342798D01*
X1069606Y-342029D01*
X1083386D01*
X1082647Y-342798D01*
D02*
G37*
G36*
X2472857Y-339565D02*
X2475078Y-341456D01*
X2476057Y-342147D01*
X2476950Y-342668D01*
X2477754Y-343020D01*
X2478472Y-343201D01*
X2479102Y-343213D01*
X2479646Y-343056D01*
X2480102Y-342728D01*
X2471736Y-351094D01*
X2472064Y-350638D01*
X2472221Y-350094D01*
X2472209Y-349464D01*
X2472028Y-348746D01*
X2471676Y-347942D01*
X2471155Y-347049D01*
X2470464Y-346070D01*
X2469604Y-345003D01*
X2467374Y-342608D01*
X2471616Y-338366D01*
X2472857Y-339565D01*
D02*
G37*
G36*
X617060Y-354607D02*
X618138Y-354688D01*
X619203Y-354707D01*
X619550Y-364707D01*
X618487Y-364726D01*
X617120Y-364839D01*
X617148Y-369683D01*
X617036Y-368738D01*
X616712Y-367892D01*
X616175Y-367145D01*
X615427Y-366498D01*
X614465Y-365951D01*
X613693Y-365656D01*
X613654Y-365672D01*
X613106Y-365968D01*
X612632Y-366303D01*
X612231Y-366677D01*
X612188Y-365225D01*
X611906Y-365154D01*
X610308Y-364906D01*
X608497Y-364756D01*
X606475Y-364707D01*
Y-354707D01*
X608486Y-354657D01*
X610284Y-354507D01*
X611861Y-354260D01*
X611820Y-352904D01*
X612232Y-353246D01*
X612716Y-353553D01*
X613273Y-353823D01*
X613374Y-353861D01*
X614407Y-353462D01*
X615356Y-352915D01*
X616093Y-352268D01*
X616619Y-351522D01*
X616931Y-350675D01*
X617031Y-349730D01*
X617060Y-354607D01*
D02*
G37*
G36*
X278618Y-345627D02*
X278843Y-348425D01*
X279218Y-350856D01*
X279743Y-352920D01*
X280418Y-354616D01*
X281243Y-355944D01*
X282218Y-356904D01*
X283343Y-357497D01*
X284618Y-357723D01*
X286043Y-357580D01*
X259473Y-363356D01*
X260246Y-362210D01*
X260938Y-360894D01*
X261549Y-359407D01*
X262078Y-357750D01*
X262525Y-355923D01*
X262892Y-353925D01*
X263380Y-349418D01*
X263502Y-346909D01*
X263543Y-344229D01*
X278543Y-342460D01*
X278618Y-345627D01*
D02*
G37*
G36*
X1151159Y-350361D02*
X1152061Y-351082D01*
X1152997Y-351718D01*
X1153968Y-352270D01*
X1154975Y-352737D01*
X1156017Y-353118D01*
X1157094Y-353416D01*
X1158206Y-353628D01*
X1159353Y-353755D01*
X1160536Y-353797D01*
Y-359797D01*
X1159353Y-359840D01*
X1158206Y-359967D01*
X1157094Y-360179D01*
X1156017Y-360476D01*
X1154975Y-360858D01*
X1153968Y-361325D01*
X1152997Y-361876D01*
X1152061Y-362513D01*
X1151159Y-363234D01*
X1150293Y-364040D01*
X1144808Y-361040D01*
X1145572Y-360191D01*
X1146166Y-359343D01*
X1146590Y-358494D01*
X1146844Y-357646D01*
X1146929Y-356797D01*
X1146844Y-355949D01*
X1146590Y-355100D01*
X1146166Y-354252D01*
X1145572Y-353403D01*
X1144808Y-352555D01*
X1150293Y-349555D01*
X1151159Y-350361D01*
D02*
G37*
G36*
X2349526Y-360138D02*
X2349616Y-361178D01*
X2349766Y-362096D01*
X2349976Y-362892D01*
X2350246Y-363565D01*
X2350576Y-364116D01*
X2350966Y-364544D01*
X2351416Y-364850D01*
X2351926Y-365034D01*
X2352496Y-365095D01*
X2340496D01*
X2341066Y-365034D01*
X2341576Y-364850D01*
X2342026Y-364544D01*
X2342416Y-364116D01*
X2342746Y-363565D01*
X2343016Y-362892D01*
X2343226Y-362096D01*
X2343376Y-361178D01*
X2343466Y-360138D01*
X2343496Y-358975D01*
X2349496D01*
X2349526Y-360138D01*
D02*
G37*
G36*
X1205118Y-381990D02*
X1204720Y-390607D01*
X1196118Y-387705D01*
X1196688Y-387826D01*
X1197198Y-387784D01*
X1197648Y-387580D01*
X1198038Y-387212D01*
X1198368Y-386681D01*
X1198638Y-385988D01*
X1198848Y-385132D01*
X1198998Y-384112D01*
X1199088Y-382930D01*
X1199118Y-381585D01*
X1205118Y-381990D01*
D02*
G37*
G36*
X2305695Y-394451D02*
X2303039Y-395076D01*
X2300408Y-395889D01*
X2297804Y-396890D01*
X2295225Y-398080D01*
X2292672Y-399457D01*
X2290144Y-401023D01*
X2287642Y-402776D01*
X2285166Y-404718D01*
X2280290Y-409166D01*
X2266148Y-395024D01*
X2268466Y-392599D01*
X2272538Y-387672D01*
X2274292Y-385170D01*
X2275857Y-382643D01*
X2277235Y-380089D01*
X2278424Y-377511D01*
X2279425Y-374906D01*
X2280238Y-372276D01*
X2280863Y-369620D01*
X2305695Y-394451D01*
D02*
G37*
G36*
X786947Y-410315D02*
X786846Y-409365D01*
X786542Y-408515D01*
X786036Y-407765D01*
X785328Y-407115D01*
X784417Y-406565D01*
X783304Y-406115D01*
X781988Y-405765D01*
X780470Y-405515D01*
X778750Y-405365D01*
X776827Y-405315D01*
Y-395315D01*
X778750Y-395265D01*
X780470Y-395115D01*
X781988Y-394865D01*
X783304Y-394515D01*
X784417Y-394065D01*
X785328Y-393515D01*
X786036Y-392865D01*
X786542Y-392115D01*
X786846Y-391265D01*
X786947Y-390315D01*
Y-410315D01*
D02*
G37*
G36*
X1329316Y-415517D02*
X1328220Y-416654D01*
X1326504Y-418701D01*
X1325883Y-419609D01*
X1325422Y-420442D01*
X1325120Y-421197D01*
X1324976Y-421877D01*
X1324992Y-422480D01*
X1325166Y-423007D01*
X1325498Y-423457D01*
X1317133Y-415092D01*
X1317584Y-415425D01*
X1318110Y-415599D01*
X1318714Y-415614D01*
X1319393Y-415471D01*
X1320149Y-415168D01*
X1320981Y-414707D01*
X1321890Y-414087D01*
X1322875Y-413308D01*
X1323936Y-412371D01*
X1325074Y-411274D01*
X1329316Y-415517D01*
D02*
G37*
G36*
X1278135D02*
X1277039Y-416654D01*
X1275322Y-418701D01*
X1274702Y-419609D01*
X1274241Y-420442D01*
X1273939Y-421197D01*
X1273795Y-421877D01*
X1273810Y-422480D01*
X1273984Y-423007D01*
X1274317Y-423457D01*
X1265952Y-415092D01*
X1266402Y-415425D01*
X1266929Y-415599D01*
X1267532Y-415614D01*
X1268212Y-415471D01*
X1268968Y-415168D01*
X1269800Y-414707D01*
X1270709Y-414087D01*
X1271694Y-413308D01*
X1272755Y-412371D01*
X1273893Y-411274D01*
X1278135Y-415517D01*
D02*
G37*
G36*
X845679Y-412106D02*
X849719Y-415672D01*
X849940Y-415780D01*
X837346Y-421373D01*
X837493Y-420864D01*
X837542Y-420326D01*
X837493Y-419759D01*
X837346Y-419163D01*
X837100Y-418538D01*
X836757Y-417884D01*
X836316Y-417201D01*
X835776Y-416489D01*
X835138Y-415748D01*
X834403Y-414978D01*
X844890Y-411323D01*
X845679Y-412106D01*
D02*
G37*
G36*
X646071Y-417584D02*
X645897Y-418111D01*
X645882Y-418714D01*
X646025Y-419393D01*
X646328Y-420149D01*
X646789Y-420981D01*
X647409Y-421890D01*
X648188Y-422875D01*
X649126Y-423937D01*
X650222Y-425074D01*
X645980Y-429317D01*
X644842Y-428220D01*
X642795Y-426504D01*
X641887Y-425884D01*
X641055Y-425423D01*
X640299Y-425120D01*
X639619Y-424977D01*
X639016Y-424992D01*
X638489Y-425166D01*
X638039Y-425499D01*
X646404Y-417133D01*
X646071Y-417584D01*
D02*
G37*
G36*
X1169194Y-458363D02*
X1169269Y-459337D01*
X1169395Y-460194D01*
X1169570Y-460933D01*
X1169796Y-461555D01*
X1170072Y-462059D01*
X1170399Y-462446D01*
X1170776Y-462716D01*
X1171203Y-462868D01*
X1171680Y-462902D01*
X1160724Y-463431D01*
X1161188Y-463348D01*
X1161604Y-463147D01*
X1161971Y-462827D01*
X1162289Y-462389D01*
X1162557Y-461832D01*
X1162777Y-461157D01*
X1162948Y-460363D01*
X1163071Y-459451D01*
X1163144Y-458420D01*
X1163168Y-457271D01*
X1169168D01*
X1169194Y-458363D01*
D02*
G37*
G36*
X718425Y-463622D02*
X718267Y-463385D01*
X717999Y-463172D01*
X717621Y-462984D01*
X717133Y-462821D01*
X716536Y-462683D01*
X715830Y-462571D01*
X714087Y-462421D01*
X711907Y-462370D01*
Y-456370D01*
X713052Y-456358D01*
X715830Y-456170D01*
X716536Y-456057D01*
X717133Y-455920D01*
X717621Y-455757D01*
X717999Y-455569D01*
X718267Y-455356D01*
X718425Y-455118D01*
Y-463622D01*
D02*
G37*
G36*
X2361012Y-445968D02*
X2361330Y-446814D01*
X2361861Y-447560D01*
X2362604Y-448207D01*
X2363559Y-448755D01*
X2364727Y-449202D01*
X2366107Y-449551D01*
X2367699Y-449800D01*
X2369504Y-449949D01*
X2371521Y-449999D01*
Y-459999D01*
X2369504Y-460048D01*
X2367699Y-460198D01*
X2366107Y-460447D01*
X2364727Y-460795D01*
X2363559Y-461243D01*
X2362604Y-461790D01*
X2361861Y-462437D01*
X2361330Y-463184D01*
X2361012Y-464030D01*
X2360906Y-464975D01*
Y-445022D01*
X2361012Y-445968D01*
D02*
G37*
G36*
X2300745Y-469964D02*
X2300235Y-470148D01*
X2299785Y-470454D01*
X2299395Y-470882D01*
X2299065Y-471433D01*
X2298795Y-472106D01*
X2298585Y-472902D01*
X2298435Y-473820D01*
X2298345Y-474861D01*
X2298315Y-476023D01*
X2292315D01*
X2292285Y-474861D01*
X2292195Y-473820D01*
X2292045Y-472902D01*
X2291835Y-472106D01*
X2291565Y-471433D01*
X2291235Y-470882D01*
X2290845Y-470454D01*
X2290395Y-470148D01*
X2289885Y-469964D01*
X2289315Y-469903D01*
X2301315D01*
X2300745Y-469964D01*
D02*
G37*
G36*
X2355527Y-469514D02*
X2354681Y-469833D01*
X2353935Y-470364D01*
X2353288Y-471107D01*
X2352740Y-472062D01*
X2352293Y-473230D01*
X2351944Y-474610D01*
X2351695Y-476202D01*
X2351546Y-478006D01*
X2351496Y-480023D01*
X2341496D01*
X2341446Y-478006D01*
X2341297Y-476202D01*
X2341048Y-474610D01*
X2340700Y-473230D01*
X2340252Y-472062D01*
X2339705Y-471107D01*
X2339058Y-470364D01*
X2338311Y-469833D01*
X2337465Y-469514D01*
X2336520Y-469408D01*
X2356473D01*
X2355527Y-469514D01*
D02*
G37*
G36*
X2298354Y-478100D02*
X2298471Y-478969D01*
X2298665Y-479825D01*
X2298937Y-480669D01*
X2299287Y-481500D01*
X2299715Y-482319D01*
X2300221Y-483125D01*
X2300804Y-483919D01*
X2301466Y-484701D01*
X2302205Y-485469D01*
X2288425D01*
X2289164Y-484701D01*
X2289826Y-483919D01*
X2290409Y-483125D01*
X2290915Y-482319D01*
X2291343Y-481500D01*
X2291693Y-480669D01*
X2291965Y-479825D01*
X2292159Y-478969D01*
X2292276Y-478100D01*
X2292315Y-477219D01*
X2298315D01*
X2298354Y-478100D01*
D02*
G37*
G36*
X767871Y-477248D02*
X767999Y-477921D01*
X768211Y-478615D01*
X768508Y-479329D01*
X768890Y-480065D01*
X769356Y-480820D01*
X769908Y-481597D01*
X770544Y-482394D01*
X772072Y-484050D01*
X767829Y-488292D01*
X766615Y-487119D01*
X764430Y-485264D01*
X763460Y-484583D01*
X762571Y-484065D01*
X761763Y-483710D01*
X761036Y-483519D01*
X760391Y-483492D01*
X759827Y-483629D01*
X759344Y-483930D01*
X767829Y-476595D01*
X767871Y-477248D01*
D02*
G37*
G36*
X1328723Y-505520D02*
X1327626Y-506658D01*
X1325910Y-508704D01*
X1325290Y-509613D01*
X1324829Y-510445D01*
X1324526Y-511201D01*
X1324382Y-511880D01*
X1324398Y-512483D01*
X1324572Y-513010D01*
X1324905Y-513461D01*
X1316539Y-505095D01*
X1316990Y-505428D01*
X1317517Y-505602D01*
X1318120Y-505618D01*
X1318799Y-505474D01*
X1319555Y-505171D01*
X1320387Y-504710D01*
X1321296Y-504090D01*
X1322281Y-503311D01*
X1323342Y-502374D01*
X1324480Y-501277D01*
X1328723Y-505520D01*
D02*
G37*
G36*
X783285Y-495231D02*
X784900Y-496589D01*
X785676Y-497140D01*
X786432Y-497607D01*
X787167Y-497989D01*
X787882Y-498286D01*
X788576Y-498498D01*
X789249Y-498625D01*
X789902Y-498668D01*
X782567Y-507153D01*
X782867Y-506670D01*
X783004Y-506106D01*
X782977Y-505461D01*
X782787Y-504734D01*
X782432Y-503926D01*
X781914Y-503037D01*
X781232Y-502067D01*
X780387Y-501015D01*
X778205Y-498668D01*
X782447Y-494425D01*
X783285Y-495231D01*
D02*
G37*
G36*
X2301466Y-500296D02*
X2300804Y-501077D01*
X2300221Y-501871D01*
X2299715Y-502678D01*
X2299287Y-503496D01*
X2298937Y-504328D01*
X2298665Y-505171D01*
X2298471Y-506028D01*
X2298354Y-506897D01*
X2298315Y-507778D01*
X2292315D01*
X2292276Y-506897D01*
X2292159Y-506028D01*
X2291965Y-505171D01*
X2291693Y-504328D01*
X2291343Y-503496D01*
X2290915Y-502678D01*
X2290409Y-501871D01*
X2289826Y-501077D01*
X2289164Y-500296D01*
X2288425Y-499527D01*
X2302205D01*
X2301466Y-500296D01*
D02*
G37*
G36*
X2298345Y-510136D02*
X2298435Y-511176D01*
X2298585Y-512095D01*
X2298795Y-512890D01*
X2299065Y-513563D01*
X2299395Y-514114D01*
X2299785Y-514543D01*
X2300235Y-514848D01*
X2300745Y-515032D01*
X2301315Y-515093D01*
X2289315D01*
X2289885Y-515032D01*
X2290395Y-514848D01*
X2290845Y-514543D01*
X2291235Y-514114D01*
X2291565Y-513563D01*
X2291835Y-512890D01*
X2292045Y-512095D01*
X2292195Y-511176D01*
X2292285Y-510136D01*
X2292315Y-508973D01*
X2298315D01*
X2298345Y-510136D01*
D02*
G37*
G36*
X1114823Y-504589D02*
X1115013Y-505095D01*
X1115330Y-505542D01*
X1115773Y-505929D01*
X1116343Y-506256D01*
X1117040Y-506524D01*
X1117863Y-506732D01*
X1118813Y-506881D01*
X1119889Y-506971D01*
X1121092Y-507000D01*
Y-513000D01*
X1119889Y-513030D01*
X1118813Y-513119D01*
X1117863Y-513268D01*
X1117040Y-513477D01*
X1116343Y-513744D01*
X1115773Y-514072D01*
X1115330Y-514459D01*
X1115013Y-514905D01*
X1114823Y-515411D01*
X1114760Y-515977D01*
Y-504024D01*
X1114823Y-504589D01*
D02*
G37*
G36*
X2351517Y-505066D02*
X2351814Y-509555D01*
X2351944Y-510387D01*
X2352293Y-511767D01*
X2352740Y-512935D01*
X2353288Y-513890D01*
X2353935Y-514633D01*
X2354681Y-515164D01*
X2355527Y-515482D01*
X2356473Y-515588D01*
X2352213D01*
X2352513Y-520115D01*
X2352825Y-521403D01*
X2353177Y-522341D01*
X2353572Y-522931D01*
X2339421D01*
X2339815Y-522341D01*
X2340168Y-521403D01*
X2340479Y-520115D01*
X2340749Y-518479D01*
X2341027Y-515588D01*
X2336520D01*
X2337465Y-515482D01*
X2338311Y-515164D01*
X2339058Y-514633D01*
X2339705Y-513890D01*
X2340252Y-512935D01*
X2340700Y-511767D01*
X2341048Y-510387D01*
X2341297Y-508795D01*
X2341383Y-507750D01*
X2341475Y-505066D01*
X2341496Y-501338D01*
X2351496D01*
X2351517Y-505066D01*
D02*
G37*
G36*
X1264249Y-534966D02*
X1263739Y-535149D01*
X1263289Y-535455D01*
X1262899Y-535884D01*
X1262569Y-536435D01*
X1262299Y-537108D01*
X1262089Y-537903D01*
X1261939Y-538821D01*
X1261849Y-539862D01*
X1261819Y-541025D01*
X1255819D01*
X1255789Y-539862D01*
X1255699Y-538821D01*
X1255549Y-537903D01*
X1255339Y-537108D01*
X1255069Y-536435D01*
X1254739Y-535884D01*
X1254349Y-535455D01*
X1253899Y-535149D01*
X1253389Y-534966D01*
X1252819Y-534905D01*
X1264819D01*
X1264249Y-534966D01*
D02*
G37*
G36*
X2427568Y-538569D02*
X2428378Y-539211D01*
X2429197Y-539778D01*
X2430024Y-540269D01*
X2430859Y-540685D01*
X2431702Y-541025D01*
X2432552Y-541290D01*
X2433411Y-541479D01*
X2434278Y-541592D01*
X2435153Y-541630D01*
X2435390Y-547630D01*
X2434503Y-547670D01*
X2433632Y-547789D01*
X2432779Y-547989D01*
X2431943Y-548268D01*
X2431124Y-548628D01*
X2430322Y-549067D01*
X2429536Y-549585D01*
X2428768Y-550184D01*
X2428017Y-550862D01*
X2427283Y-551621D01*
X2426765Y-537851D01*
X2427568Y-538569D01*
D02*
G37*
G36*
X850510Y-548230D02*
X850298Y-548498D01*
X850110Y-548876D01*
X849947Y-549363D01*
X849809Y-549960D01*
X849697Y-550667D01*
X849546Y-552409D01*
X849496Y-554590D01*
X843496D01*
X843484Y-553445D01*
X843296Y-550667D01*
X843183Y-549960D01*
X843045Y-549363D01*
X842883Y-548876D01*
X842695Y-548498D01*
X842482Y-548230D01*
X842244Y-548071D01*
X850748D01*
X850510Y-548230D01*
D02*
G37*
G36*
X811140D02*
X810928Y-548498D01*
X810740Y-548876D01*
X810577Y-549363D01*
X810439Y-549960D01*
X810327Y-550667D01*
X810176Y-552409D01*
X810126Y-554590D01*
X804126D01*
X804114Y-553445D01*
X803926Y-550667D01*
X803813Y-549960D01*
X803676Y-549363D01*
X803513Y-548876D01*
X803325Y-548498D01*
X803112Y-548230D01*
X802874Y-548071D01*
X811378D01*
X811140Y-548230D01*
D02*
G37*
G36*
X791455D02*
X791242Y-548498D01*
X791055Y-548876D01*
X790892Y-549363D01*
X790754Y-549960D01*
X790641Y-550667D01*
X790491Y-552409D01*
X790441Y-554590D01*
X784441D01*
X784429Y-553445D01*
X784241Y-550667D01*
X784128Y-549960D01*
X783990Y-549363D01*
X783828Y-548876D01*
X783640Y-548498D01*
X783427Y-548230D01*
X783189Y-548071D01*
X791693D01*
X791455Y-548230D01*
D02*
G37*
G36*
X2426151Y-552798D02*
X2425489Y-553579D01*
X2424906Y-554373D01*
X2424400Y-555179D01*
X2423972Y-555998D01*
X2423622Y-556829D01*
X2423350Y-557673D01*
X2423156Y-558529D01*
X2423039Y-559398D01*
X2423000Y-560280D01*
X2417000D01*
X2416961Y-559398D01*
X2416844Y-558529D01*
X2416650Y-557673D01*
X2416378Y-556829D01*
X2416028Y-555998D01*
X2415600Y-555179D01*
X2415094Y-554373D01*
X2414511Y-553579D01*
X2413849Y-552798D01*
X2413110Y-552029D01*
X2426890D01*
X2426151Y-552798D01*
D02*
G37*
G36*
X1186926Y-557160D02*
X1186416Y-557343D01*
X1185966Y-557649D01*
X1185576Y-558078D01*
X1185246Y-558629D01*
X1184976Y-559302D01*
X1184766Y-560097D01*
X1184616Y-561015D01*
X1184526Y-562056D01*
X1184496Y-563218D01*
X1178496D01*
X1178466Y-562056D01*
X1178376Y-561015D01*
X1178226Y-560097D01*
X1178016Y-559302D01*
X1177746Y-558629D01*
X1177416Y-558078D01*
X1177026Y-557649D01*
X1176576Y-557343D01*
X1176066Y-557160D01*
X1175496Y-557098D01*
X1187496D01*
X1186926Y-557160D01*
D02*
G37*
G36*
X636929Y-560560D02*
X636419Y-560744D01*
X635969Y-561049D01*
X635579Y-561478D01*
X635249Y-562029D01*
X634979Y-562702D01*
X634769Y-563497D01*
X634619Y-564415D01*
X634529Y-565456D01*
X634499Y-566619D01*
X628499D01*
X628469Y-565456D01*
X628379Y-564415D01*
X628229Y-563497D01*
X628019Y-562702D01*
X627749Y-562029D01*
X627419Y-561478D01*
X627029Y-561049D01*
X626579Y-560744D01*
X626069Y-560560D01*
X625499Y-560499D01*
X637499D01*
X636929Y-560560D01*
D02*
G37*
G36*
X790441Y-588670D02*
X790470Y-590011D01*
X790705Y-592295D01*
X790910Y-593238D01*
X791174Y-594048D01*
X791497Y-594725D01*
X791878Y-595268D01*
X792318Y-595679D01*
X792817Y-595957D01*
X793374Y-596102D01*
X781441Y-594502D01*
X782011Y-594513D01*
X782521Y-594386D01*
X782971Y-594120D01*
X783361Y-593716D01*
X783691Y-593173D01*
X783961Y-592492D01*
X784171Y-591672D01*
X784321Y-590714D01*
X784411Y-589617D01*
X784441Y-588382D01*
X790441Y-588670D01*
D02*
G37*
G36*
X634529Y-590119D02*
X634619Y-591159D01*
X634769Y-592077D01*
X634979Y-592873D01*
X635249Y-593546D01*
X635579Y-594097D01*
X635969Y-594525D01*
X636419Y-594831D01*
X636929Y-595015D01*
X637499Y-595076D01*
X625499D01*
X626069Y-595015D01*
X626579Y-594831D01*
X627029Y-594525D01*
X627419Y-594097D01*
X627749Y-593546D01*
X628019Y-592873D01*
X628229Y-592077D01*
X628379Y-591159D01*
X628469Y-590119D01*
X628499Y-588956D01*
X634499D01*
X634529Y-590119D01*
D02*
G37*
G36*
X1127647Y-592798D02*
X1126986Y-593579D01*
X1126402Y-594373D01*
X1125897Y-595179D01*
X1125469Y-595998D01*
X1125119Y-596830D01*
X1124846Y-597673D01*
X1124652Y-598530D01*
X1124604Y-598885D01*
X1124767Y-604621D01*
X1115496Y-600096D01*
X1116066Y-600299D01*
X1116576Y-600325D01*
X1117026Y-600172D01*
X1117416Y-599841D01*
X1117746Y-599332D01*
X1118016Y-598644D01*
X1118197Y-597898D01*
X1118146Y-597673D01*
X1117874Y-596830D01*
X1117524Y-595998D01*
X1117096Y-595179D01*
X1116590Y-594373D01*
X1116007Y-593579D01*
X1115345Y-592798D01*
X1114606Y-592029D01*
X1128386D01*
X1127647Y-592798D01*
D02*
G37*
G36*
X1180219Y-600520D02*
X1179122Y-601658D01*
X1177406Y-603704D01*
X1176786Y-604613D01*
X1176325Y-605445D01*
X1176022Y-606201D01*
X1175879Y-606881D01*
X1175894Y-607484D01*
X1176068Y-608010D01*
X1176401Y-608461D01*
X1168035Y-600096D01*
X1168486Y-600429D01*
X1169013Y-600603D01*
X1169616Y-600618D01*
X1170295Y-600474D01*
X1171051Y-600172D01*
X1171884Y-599711D01*
X1172792Y-599091D01*
X1173777Y-598312D01*
X1174839Y-597374D01*
X1175976Y-596278D01*
X1180219Y-600520D01*
D02*
G37*
G36*
X838157Y-591787D02*
X840203Y-593503D01*
X841112Y-594123D01*
X841944Y-594584D01*
X842700Y-594887D01*
X843380Y-595030D01*
X843983Y-595015D01*
X844510Y-594841D01*
X844960Y-594508D01*
X836595Y-602874D01*
X836928Y-602423D01*
X837102Y-601896D01*
X837117Y-601293D01*
X836973Y-600614D01*
X836671Y-599858D01*
X836210Y-599025D01*
X835590Y-598117D01*
X834811Y-597132D01*
X833873Y-596071D01*
X832777Y-594933D01*
X837019Y-590690D01*
X838157Y-591787D01*
D02*
G37*
G36*
X789562Y-605580D02*
X789510Y-605670D01*
X789457Y-605839D01*
X789402Y-606086D01*
X789286Y-606816D01*
X789035Y-609216D01*
X788969Y-610012D01*
X780887Y-601931D01*
X785320Y-601337D01*
X789562Y-605580D01*
D02*
G37*
G36*
X1264159Y-602626D02*
X1266120Y-604255D01*
X1266994Y-604839D01*
X1267798Y-605269D01*
X1268531Y-605546D01*
X1269193Y-605669D01*
X1269785Y-605638D01*
X1270305Y-605454D01*
X1270756Y-605116D01*
X1262365Y-613507D01*
X1262703Y-613057D01*
X1262887Y-612536D01*
X1262918Y-611944D01*
X1262795Y-611282D01*
X1262518Y-610549D01*
X1262088Y-609745D01*
X1261504Y-608871D01*
X1260766Y-607926D01*
X1259875Y-606910D01*
X1258830Y-605824D01*
X1263073Y-601581D01*
X1264159Y-602626D01*
D02*
G37*
G36*
X766588Y-606109D02*
X770895Y-605830D01*
X772433Y-605576D01*
X773731Y-605276D01*
X774791Y-604930D01*
X775612Y-604538D01*
X776193Y-604100D01*
Y-614713D01*
X775612Y-614275D01*
X774791Y-613883D01*
X773731Y-613537D01*
X772433Y-613237D01*
X770895Y-612983D01*
X767102Y-612614D01*
X766588Y-612594D01*
Y-615407D01*
X766527Y-614837D01*
X766344Y-614327D01*
X766038Y-613876D01*
X765609Y-613486D01*
X765058Y-613157D01*
X764385Y-612886D01*
X763590Y-612677D01*
X762672Y-612527D01*
X761631Y-612437D01*
X760882Y-612417D01*
X759619Y-612407D01*
Y-606407D01*
X760882Y-606396D01*
X761631Y-606376D01*
X762672Y-606287D01*
X763590Y-606136D01*
X764385Y-605927D01*
X765058Y-605657D01*
X765609Y-605327D01*
X766038Y-604937D01*
X766344Y-604486D01*
X766527Y-603976D01*
X766588Y-603407D01*
Y-606109D01*
D02*
G37*
G36*
X394606Y-585787D02*
X402050D01*
X403303Y-586625D01*
X407205Y-587401D01*
X453623D01*
Y-612599D01*
X405000D01*
X401098Y-613375D01*
X399845Y-614213D01*
X394606D01*
Y-615000D01*
X365394D01*
Y-614213D01*
X296181D01*
X295000Y-609702D01*
Y-590298D01*
X296181Y-585787D01*
X365394D01*
Y-585000D01*
X394606D01*
Y-585787D01*
D02*
G37*
G36*
X726459Y-603976D02*
X726642Y-604486D01*
X726948Y-604937D01*
X727377Y-605327D01*
X727928Y-605657D01*
X728601Y-605927D01*
X729396Y-606136D01*
X730314Y-606287D01*
X731355Y-606376D01*
X732518Y-606407D01*
Y-612407D01*
X731355Y-612437D01*
X730314Y-612527D01*
X729396Y-612677D01*
X728601Y-612886D01*
X727928Y-613157D01*
X727377Y-613486D01*
X726948Y-613876D01*
X726642Y-614327D01*
X726459Y-614837D01*
X726398Y-615407D01*
Y-603407D01*
X726459Y-603976D01*
D02*
G37*
G36*
X906595Y-615413D02*
X906534Y-614843D01*
X906350Y-614333D01*
X906044Y-613883D01*
X905616Y-613493D01*
X905065Y-613163D01*
X904392Y-612893D01*
X903596Y-612683D01*
X902678Y-612533D01*
X901638Y-612443D01*
X900475Y-612413D01*
Y-606413D01*
X901638Y-606383D01*
X902678Y-606293D01*
X903596Y-606143D01*
X904392Y-605933D01*
X905065Y-605663D01*
X905616Y-605333D01*
X906044Y-604943D01*
X906350Y-604493D01*
X906534Y-603983D01*
X906595Y-603413D01*
Y-615413D01*
D02*
G37*
G36*
X2282718Y-578148D02*
X2287645Y-582220D01*
X2290147Y-583974D01*
X2292675Y-585539D01*
X2295228Y-586917D01*
X2297807Y-588106D01*
X2300412Y-589107D01*
X2303042Y-589920D01*
X2305698Y-590545D01*
X2289420Y-606823D01*
X2298584Y-619902D01*
X2297267Y-618555D01*
X2295626Y-617812D01*
X2293663Y-617672D01*
X2291375Y-618137D01*
X2288765Y-619205D01*
X2285830Y-620877D01*
X2282573Y-623153D01*
X2278992Y-626033D01*
X2270860Y-633604D01*
X2259080Y-617099D01*
X2274889Y-600786D01*
X2274295Y-599826D01*
X2272541Y-597324D01*
X2270599Y-594848D01*
X2266151Y-589972D01*
X2280294Y-575830D01*
X2282718Y-578148D01*
D02*
G37*
G36*
X796342Y-606333D02*
X796553Y-606978D01*
X797030Y-607547D01*
X797772Y-608041D01*
X798781Y-608458D01*
X800055Y-608799D01*
X801595Y-609065D01*
X803402Y-609255D01*
X807812Y-609407D01*
X804117Y-624407D01*
X791872Y-623858D01*
X796398Y-605612D01*
X796342Y-606333D01*
D02*
G37*
G36*
X992508Y-644880D02*
X992058Y-644542D01*
X991537Y-644357D01*
X990945Y-644327D01*
X990283Y-644450D01*
X989550Y-644726D01*
X988746Y-645157D01*
X987872Y-645740D01*
X986927Y-646478D01*
X985911Y-647369D01*
X984825Y-648414D01*
X980582Y-644172D01*
X981627Y-643085D01*
X983256Y-641124D01*
X983840Y-640250D01*
X984270Y-639447D01*
X984547Y-638713D01*
X984670Y-638051D01*
X984639Y-637460D01*
X984455Y-636939D01*
X984117Y-636489D01*
X992508Y-644880D01*
D02*
G37*
G36*
X767083Y-670564D02*
X766977Y-669619D01*
X766659Y-668773D01*
X766128Y-668026D01*
X765385Y-667379D01*
X764430Y-666832D01*
X763262Y-666384D01*
X761882Y-666036D01*
X760290Y-665787D01*
X758944Y-665675D01*
X757904Y-665758D01*
X757059Y-665890D01*
X756287Y-666060D01*
X755588Y-666268D01*
X754962Y-666514D01*
X754409Y-666797D01*
X753929Y-667118D01*
X753522Y-667477D01*
Y-653698D01*
X753929Y-654057D01*
X754409Y-654378D01*
X754962Y-654662D01*
X755588Y-654907D01*
X756287Y-655115D01*
X757059Y-655285D01*
X757904Y-655418D01*
X758811Y-655511D01*
X760290Y-655389D01*
X761882Y-655140D01*
X763262Y-654791D01*
X764430Y-654344D01*
X765385Y-653796D01*
X766128Y-653149D01*
X766659Y-652403D01*
X766977Y-651557D01*
X767083Y-650611D01*
Y-670564D01*
D02*
G37*
G36*
X936465Y-655164D02*
X936649Y-655674D01*
X936955Y-656124D01*
X937383Y-656514D01*
X937934Y-656844D01*
X938607Y-657114D01*
X939403Y-657324D01*
X940321Y-657474D01*
X941361Y-657564D01*
X942524Y-657594D01*
Y-663594D01*
X941361Y-663624D01*
X940321Y-663714D01*
X939403Y-663864D01*
X938607Y-664074D01*
X937934Y-664344D01*
X937383Y-664674D01*
X936955Y-665064D01*
X936649Y-665514D01*
X936465Y-666024D01*
X936404Y-666594D01*
Y-654594D01*
X936465Y-655164D01*
D02*
G37*
G36*
X839562Y-637945D02*
X845091Y-642636D01*
X847534Y-644345D01*
X849763Y-645630D01*
X851777Y-646490D01*
X853577Y-646926D01*
X855162Y-646938D01*
X856532Y-646526D01*
X857688Y-645689D01*
X836595Y-666783D01*
X837431Y-665627D01*
X837844Y-664256D01*
X837832Y-662671D01*
X837395Y-660872D01*
X836535Y-658858D01*
X835250Y-656629D01*
X833541Y-654186D01*
X831408Y-651528D01*
X825868Y-645569D01*
X836475Y-634963D01*
X839562Y-637945D01*
D02*
G37*
G36*
X726009Y-651557D02*
X726327Y-652403D01*
X726858Y-653149D01*
X727601Y-653796D01*
X728556Y-654344D01*
X729724Y-654791D01*
X731104Y-655140D01*
X732696Y-655389D01*
X734175Y-655511D01*
X735082Y-655418D01*
X735927Y-655285D01*
X736699Y-655115D01*
X737398Y-654907D01*
X738024Y-654662D01*
X738577Y-654378D01*
X739057Y-654057D01*
X739464Y-653698D01*
Y-667477D01*
X739057Y-667118D01*
X738577Y-666797D01*
X738024Y-666514D01*
X737398Y-666268D01*
X736699Y-666060D01*
X735927Y-665890D01*
X735082Y-665758D01*
X734042Y-665675D01*
X732696Y-665787D01*
X731104Y-666036D01*
X729724Y-666384D01*
X728556Y-666832D01*
X727601Y-667379D01*
X726858Y-668026D01*
X726327Y-668773D01*
X726009Y-669619D01*
X725903Y-670564D01*
Y-650611D01*
X726009Y-651557D01*
D02*
G37*
G36*
X1264488Y-670099D02*
X1268088Y-673143D01*
X1269681Y-674249D01*
X1271135Y-675078D01*
X1272452Y-675630D01*
X1273630Y-675904D01*
X1274671Y-675902D01*
X1275573Y-675623D01*
X1276337Y-675066D01*
X1262315Y-689088D01*
X1262871Y-688324D01*
X1263151Y-687422D01*
X1263153Y-686381D01*
X1262879Y-685203D01*
X1262327Y-683887D01*
X1261498Y-682432D01*
X1260391Y-680839D01*
X1259008Y-679109D01*
X1255410Y-675233D01*
X1262482Y-668162D01*
X1264488Y-670099D01*
D02*
G37*
G36*
X865105Y-672415D02*
X864347Y-674073D01*
X863679Y-675947D01*
X863100Y-678038D01*
X862610Y-680345D01*
X861897Y-685607D01*
X861674Y-688562D01*
X861496Y-695122D01*
X841496Y-695121D01*
X841452Y-691731D01*
X840784Y-682862D01*
X840384Y-680339D01*
X839316Y-675943D01*
X838649Y-674070D01*
X837893Y-672413D01*
X837048Y-670974D01*
X865951D01*
X865105Y-672415D01*
D02*
G37*
G36*
X1019027Y-680950D02*
X1019330Y-681800D01*
X1019836Y-682550D01*
X1020544Y-683200D01*
X1021455Y-683750D01*
X1021851Y-683910D01*
X1022084Y-683791D01*
X1022564Y-683469D01*
X1022971Y-683110D01*
Y-684307D01*
X1023884Y-684550D01*
X1025402Y-684800D01*
X1027122Y-684950D01*
X1029045Y-685000D01*
Y-695000D01*
X1027122Y-695050D01*
X1025402Y-695200D01*
X1023884Y-695450D01*
X1022971Y-695693D01*
Y-696890D01*
X1022564Y-696531D01*
X1022084Y-696209D01*
X1021851Y-696090D01*
X1021455Y-696250D01*
X1020544Y-696800D01*
X1019836Y-697450D01*
X1019330Y-698200D01*
X1019027Y-699050D01*
X1018925Y-700000D01*
Y-695223D01*
X1018589Y-695170D01*
X1017672Y-695076D01*
X1015617Y-695000D01*
Y-685000D01*
X1016681Y-684981D01*
X1018589Y-684830D01*
X1018925Y-684777D01*
Y-680000D01*
X1019027Y-680950D01*
D02*
G37*
G36*
X635876Y-711198D02*
X635892Y-712267D01*
X636121Y-714885D01*
X639946Y-714934D01*
X639173Y-715017D01*
X638481Y-715285D01*
X637870Y-715739D01*
X637341Y-716379D01*
X636894Y-717205D01*
X636800Y-717462D01*
X636908Y-717711D01*
X637182Y-718198D01*
X637488Y-718612D01*
X636455Y-718520D01*
X636242Y-719415D01*
X636039Y-720799D01*
X635917Y-722368D01*
X635876Y-724124D01*
X625876D01*
X625836Y-722343D01*
X625714Y-720748D01*
X625512Y-719339D01*
X625229Y-718117D01*
X625011Y-717497D01*
X623763Y-717386D01*
X624165Y-717002D01*
X624524Y-716543D01*
X624555Y-716490D01*
X624419Y-716232D01*
X623893Y-715569D01*
X623287Y-715092D01*
X622599Y-714802D01*
X621830Y-714699D01*
X625337Y-714744D01*
X625348Y-714713D01*
X625538Y-713953D01*
X625686Y-713117D01*
X625792Y-712206D01*
X625876Y-710158D01*
X635876Y-711198D01*
D02*
G37*
G36*
X1295365Y-721648D02*
X1294239Y-723790D01*
X1293245Y-726038D01*
X1292384Y-728392D01*
X1291656Y-730852D01*
X1291060Y-733418D01*
X1290596Y-736091D01*
X1290552Y-736460D01*
X1290660Y-737200D01*
X1291485Y-740200D01*
X1292639Y-742800D01*
X1294124Y-745000D01*
X1295939Y-746800D01*
X1298083Y-748200D01*
X1300558Y-749200D01*
X1303362Y-749800D01*
X1306496Y-750000D01*
X1280000Y-770000D01*
X1250000Y-750000D01*
X1253800Y-749800D01*
X1257200Y-749200D01*
X1260200Y-748200D01*
X1262800Y-746800D01*
X1265000Y-745000D01*
X1266800Y-742800D01*
X1268200Y-740200D01*
X1269200Y-737200D01*
X1269467Y-735689D01*
X1269164Y-732201D01*
X1268693Y-729809D01*
X1268118Y-727725D01*
X1267438Y-725948D01*
X1266654Y-724480D01*
X1265765Y-723320D01*
X1264772Y-722467D01*
X1296623Y-719612D01*
X1295365Y-721648D01*
D02*
G37*
G36*
X1214730Y-770000D02*
X1210930Y-770200D01*
X1207530Y-770800D01*
X1204530Y-771800D01*
X1201930Y-773200D01*
X1199730Y-775000D01*
X1197930Y-777200D01*
X1196530Y-779800D01*
X1195530Y-782800D01*
X1194930Y-786200D01*
X1194730Y-790000D01*
X1174730D01*
X1174530Y-786200D01*
X1173930Y-782800D01*
X1172930Y-779800D01*
X1171530Y-777200D01*
X1169730Y-775000D01*
X1167530Y-773200D01*
X1164930Y-771800D01*
X1161930Y-770800D01*
X1158530Y-770200D01*
X1154730Y-770000D01*
X1184730Y-750000D01*
X1214730Y-770000D01*
D02*
G37*
G36*
X1194869Y-797890D02*
X1195286Y-800835D01*
X1195981Y-803722D01*
X1196954Y-806550D01*
X1198205Y-809321D01*
X1199733Y-812033D01*
X1201540Y-814687D01*
X1203625Y-817283D01*
X1205987Y-819821D01*
X1208628Y-822301D01*
X1161842Y-824773D01*
X1164291Y-821958D01*
X1166482Y-819129D01*
X1168415Y-816286D01*
X1170091Y-813429D01*
X1171508Y-810558D01*
X1172668Y-807673D01*
X1173570Y-804775D01*
X1174215Y-801862D01*
X1174601Y-798936D01*
X1174730Y-795995D01*
X1194730Y-794888D01*
X1194869Y-797890D01*
D02*
G37*
G36*
X1591961Y-794308D02*
X1592157Y-796175D01*
X1592747Y-798315D01*
X1593730Y-800729D01*
X1595106Y-803417D01*
X1596875Y-806379D01*
X1601593Y-813124D01*
X1607883Y-820963D01*
X1611618Y-825294D01*
X1564895Y-821843D01*
X1568897Y-818359D01*
X1578377Y-808820D01*
X1580694Y-805946D01*
X1582590Y-803224D01*
X1584065Y-800655D01*
X1585118Y-798238D01*
X1585750Y-795974D01*
X1585961Y-793863D01*
X1591961Y-794308D01*
D02*
G37*
G36*
X2219923Y-805816D02*
X2218452Y-807600D01*
X2217280Y-809710D01*
X2216409Y-812145D01*
X2215837Y-814906D01*
X2215565Y-817992D01*
X2215593Y-821405D01*
X2215920Y-825143D01*
X2216548Y-829206D01*
X2217475Y-833595D01*
X2218702Y-838310D01*
X2178050Y-815021D01*
X2184304Y-813362D01*
X2211862Y-804424D01*
X2213482Y-803530D01*
X2214523Y-802731D01*
X2219923Y-805816D01*
D02*
G37*
G36*
X2119923D02*
X2118452Y-807600D01*
X2117280Y-809710D01*
X2116409Y-812145D01*
X2115837Y-814906D01*
X2115565Y-817992D01*
X2115593Y-821405D01*
X2115920Y-825143D01*
X2116548Y-829206D01*
X2117475Y-833595D01*
X2118702Y-838310D01*
X2078050Y-815021D01*
X2084304Y-813362D01*
X2111862Y-804424D01*
X2113482Y-803530D01*
X2114523Y-802731D01*
X2119923Y-805816D01*
D02*
G37*
G36*
X2019923D02*
X2018452Y-807600D01*
X2017281Y-809710D01*
X2016409Y-812145D01*
X2015837Y-814906D01*
X2015565Y-817992D01*
X2015593Y-821405D01*
X2015920Y-825143D01*
X2016548Y-829206D01*
X2017475Y-833595D01*
X2018702Y-838310D01*
X1978050Y-815021D01*
X1984304Y-813362D01*
X2011862Y-804424D01*
X2013482Y-803530D01*
X2014523Y-802731D01*
X2019923Y-805816D01*
D02*
G37*
G36*
X1919923D02*
X1918452Y-807600D01*
X1917281Y-809710D01*
X1916409Y-812145D01*
X1915837Y-814906D01*
X1915565Y-817992D01*
X1915593Y-821405D01*
X1915920Y-825143D01*
X1916548Y-829206D01*
X1917475Y-833595D01*
X1918702Y-838310D01*
X1878050Y-815021D01*
X1884304Y-813362D01*
X1911862Y-804424D01*
X1913482Y-803530D01*
X1914523Y-802731D01*
X1919923Y-805816D01*
D02*
G37*
G36*
X1819923D02*
X1818452Y-807600D01*
X1817281Y-809710D01*
X1816409Y-812145D01*
X1815837Y-814906D01*
X1815565Y-817992D01*
X1815593Y-821405D01*
X1815920Y-825143D01*
X1816548Y-829206D01*
X1817475Y-833595D01*
X1818702Y-838310D01*
X1778050Y-815021D01*
X1784304Y-813362D01*
X1811862Y-804424D01*
X1813482Y-803530D01*
X1814523Y-802731D01*
X1819923Y-805816D01*
D02*
G37*
G36*
X1719923D02*
X1718452Y-807600D01*
X1717281Y-809710D01*
X1716409Y-812145D01*
X1715837Y-814906D01*
X1715565Y-817992D01*
X1715593Y-821405D01*
X1715920Y-825143D01*
X1716548Y-829206D01*
X1717475Y-833595D01*
X1718702Y-838310D01*
X1678050Y-815021D01*
X1684304Y-813362D01*
X1711862Y-804424D01*
X1713482Y-803530D01*
X1714523Y-802731D01*
X1719923Y-805816D01*
D02*
G37*
G36*
X1519923D02*
X1518452Y-807600D01*
X1517281Y-809710D01*
X1516409Y-812145D01*
X1515837Y-814906D01*
X1515565Y-817992D01*
X1515593Y-821405D01*
X1515920Y-825143D01*
X1516548Y-829206D01*
X1517475Y-833595D01*
X1518702Y-838310D01*
X1478050Y-815021D01*
X1484304Y-813362D01*
X1511862Y-804424D01*
X1513482Y-803530D01*
X1514523Y-802731D01*
X1519923Y-805816D01*
D02*
G37*
G36*
X1319923D02*
X1318452Y-807600D01*
X1317281Y-809710D01*
X1316409Y-812145D01*
X1315837Y-814906D01*
X1315565Y-817992D01*
X1315593Y-821405D01*
X1315920Y-825143D01*
X1316548Y-829206D01*
X1317475Y-833595D01*
X1318702Y-838310D01*
X1278050Y-815021D01*
X1284304Y-813362D01*
X1311862Y-804424D01*
X1313482Y-803530D01*
X1314523Y-802731D01*
X1319923Y-805816D01*
D02*
G37*
G36*
X1426383Y-811758D02*
X1425111Y-813319D01*
X1423979Y-815317D01*
X1422987Y-817754D01*
X1422134Y-820628D01*
X1421422Y-823940D01*
X1420850Y-827690D01*
X1420124Y-836503D01*
X1419959Y-847067D01*
X1386831Y-813939D01*
X1392332Y-813926D01*
X1406208Y-813048D01*
X1409958Y-812476D01*
X1413270Y-811764D01*
X1416144Y-810911D01*
X1418581Y-809919D01*
X1420580Y-808787D01*
X1422140Y-807515D01*
X1426383Y-811758D01*
D02*
G37*
G36*
X380000Y-650000D02*
Y-850000D01*
X315000D01*
X280000Y-815000D01*
X230000D01*
Y-695000D01*
X305000Y-625000D01*
X355000D01*
X380000Y-650000D01*
D02*
G37*
G36*
X575000Y-825000D02*
Y-855000D01*
X460000D01*
X455000Y-850000D01*
Y-805000D01*
X470000Y-790000D01*
X540000D01*
X575000Y-825000D01*
D02*
G37*
G36*
X2318025Y-835848D02*
X2318812Y-837115D01*
X2319706Y-838232D01*
X2320707Y-839201D01*
X2321815Y-840021D01*
X2323030Y-840691D01*
X2324352Y-841213D01*
X2325782Y-841585D01*
X2327318Y-841809D01*
X2328961Y-841883D01*
Y-847883D01*
X2327408Y-847960D01*
X2325977Y-848192D01*
X2324669Y-848577D01*
X2323484Y-849117D01*
X2322421Y-849811D01*
X2321480Y-850659D01*
X2320662Y-851662D01*
X2319966Y-852818D01*
X2319393Y-854129D01*
X2318943Y-855594D01*
X2317345Y-834433D01*
X2318025Y-835848D01*
D02*
G37*
G36*
X2414427Y-828589D02*
X2416355Y-830572D01*
X2418311Y-832322D01*
X2420296Y-833839D01*
X2422310Y-835122D01*
X2424352Y-836172D01*
X2426422Y-836989D01*
X2428521Y-837572D01*
X2430649Y-837923D01*
X2432805Y-838039D01*
Y-844039D01*
X2430811Y-844171D01*
X2428942Y-844565D01*
X2427198Y-845223D01*
X2425579Y-846144D01*
X2424086Y-847328D01*
X2422718Y-848775D01*
X2421474Y-850485D01*
X2420357Y-852458D01*
X2419364Y-854694D01*
X2418496Y-857193D01*
X2412527Y-826372D01*
X2414427Y-828589D01*
D02*
G37*
G36*
X265726Y-860153D02*
X264781Y-860237D01*
X263935Y-860535D01*
X263188Y-861047D01*
X262541Y-861773D01*
X261994Y-862713D01*
X261546Y-863866D01*
X261198Y-865233D01*
X261140Y-865597D01*
X261164Y-865718D01*
X261346Y-866423D01*
X261561Y-867055D01*
X261809Y-867615D01*
X262091Y-868102D01*
X262405Y-868516D01*
X260817Y-868395D01*
X260800Y-868610D01*
X260750Y-870619D01*
X250750D01*
X250700Y-868564D01*
X250624Y-867616D01*
X248666Y-867467D01*
X249062Y-867079D01*
X249416Y-866616D01*
X249728Y-866078D01*
X249999Y-865466D01*
X250228Y-864780D01*
X249960Y-863684D01*
X249516Y-862485D01*
X248974Y-861500D01*
X248332Y-860729D01*
X247592Y-860172D01*
X246754Y-859828D01*
X245816Y-859699D01*
X265726Y-860153D01*
D02*
G37*
D13*
X2725000Y-260000D02*
G03*
X2694921Y-290079I0J-30079D01*
G01*
X2950000Y-354547D02*
G03*
X2855453Y-260000I-94547J0D01*
G01*
X1210000Y-75000D02*
X1237323D01*
X740000D02*
X769646D01*
X330000Y-665000D02*
Y-637795D01*
X330787Y-637008D01*
X2346496Y-454999D02*
X2411180D01*
X2421701Y-465520D01*
X2479370D01*
X2694921Y-328709D02*
Y-290079D01*
Y-328709D02*
X2694921Y-328709D01*
X1232819Y-397181D02*
X1275581Y-354419D01*
Y-334159D02*
X1284744Y-324995D01*
X1275581Y-354419D02*
Y-334159D01*
X1232819Y-645570D02*
Y-397181D01*
X1279744Y-699995D02*
Y-692495D01*
X1232819Y-645570D02*
X1279744Y-692495D01*
X2725000Y-260000D02*
X2855453D01*
X742756Y-400315D02*
X826811D01*
X846496Y-420000D01*
X255000Y-875000D02*
X255750Y-874250D01*
Y-846344D01*
X256499Y-845594D01*
X711493Y-660588D02*
X781493D01*
X630000Y-725000D02*
X630876Y-724124D01*
Y-690881D02*
X631752Y-690005D01*
X630876Y-724124D02*
Y-690881D01*
X1080000Y-115000D02*
X1080748Y-114252D01*
Y-90748D02*
X1081496Y-90000D01*
X1080748Y-114252D02*
Y-90748D01*
X1001496Y-690000D02*
X1001496Y-690000D01*
X1030000D01*
X605293Y-359707D02*
X631206D01*
X631499Y-359413D01*
X605000Y-360000D02*
X605293Y-359707D01*
X792084Y-225004D02*
X792087Y-225000D01*
X821496D01*
X2346496Y-529998D02*
Y-454999D01*
D14*
X2479370Y-465520D02*
X2480291Y-466441D01*
X2488958D01*
X2497898Y-475381D01*
X2674315Y-342740D02*
Y-329630D01*
X2670473Y-346583D02*
X2674315Y-342740D01*
Y-329630D02*
X2675236Y-328709D01*
X2715000Y-345000D02*
Y-329102D01*
Y-385000D02*
Y-345000D01*
X2713417Y-346583D02*
X2715000Y-345000D01*
X2655551Y-331661D02*
Y-328709D01*
Y-331661D02*
X2670473Y-346583D01*
X2713417D01*
X2715000Y-445000D02*
Y-385000D01*
Y-564772D02*
Y-445000D01*
X2715835Y-445835D02*
X2733307D01*
X2715000Y-445000D02*
X2715835Y-445835D01*
X2715000Y-385000D02*
X2716780Y-386779D01*
X2733307D01*
X2715000Y-564772D02*
X2732480D01*
X2505000D02*
X2715000D01*
X2714606Y-328709D02*
X2715000Y-329102D01*
X2732480Y-564772D02*
X2733307Y-563945D01*
X2497898Y-557670D02*
Y-475381D01*
Y-557670D02*
X2505000Y-564772D01*
D15*
X1375000Y-90000D02*
X1389929D01*
X1402677Y-77252D02*
Y-75000D01*
X1389929Y-90000D02*
X1402677Y-77252D01*
X1335000Y-230000D02*
X1435000Y-130000D01*
Y-90000D01*
X1459279Y-65721D01*
X1620721D01*
X1335000Y-405591D02*
Y-230000D01*
X1415339Y-179661D02*
X1504406Y-90594D01*
X1551499D01*
X1125000Y-130000D02*
Y-82323D01*
X1081496Y-38819D02*
X1125000Y-82323D01*
X1246496Y-350000D02*
Y-251496D01*
X1125000Y-130000D02*
X1246496Y-251496D01*
X922677Y-75000D02*
Y-51567D01*
X935425Y-38819D02*
X1081496D01*
X922677Y-51567D02*
X935425Y-38819D01*
X2817167Y-465520D02*
X2830000Y-478353D01*
X2701941Y-727000D02*
X2830000Y-598941D01*
Y-478353D01*
X2596496Y-328709D02*
Y-253006D01*
X2659688Y-189814D01*
X2616181Y-328709D02*
Y-263819D01*
X2665000Y-215000D01*
X2670000Y-235000D02*
X2700000D01*
X2635866Y-328709D02*
Y-269134D01*
X2670000Y-235000D01*
X2635866Y-328709D02*
X2635866Y-328709D01*
X2733307Y-465520D02*
X2817167D01*
X2733410Y-485102D02*
X2809898D01*
X2810000Y-485000D01*
X2733307Y-485205D02*
X2733410Y-485102D01*
X2733362Y-504945D02*
X2789945D01*
X2790000Y-505000D01*
X2733307Y-504890D02*
X2733362Y-504945D01*
X2782889Y-524575D02*
X2801118Y-542804D01*
X2733307Y-524575D02*
X2782889D01*
X2714606Y-650394D02*
Y-582646D01*
X2694921Y-582646D02*
X2694921Y-582646D01*
X2694921Y-651138D02*
Y-582646D01*
X2675236Y-604457D02*
Y-582646D01*
X2576811Y-645159D02*
Y-582646D01*
X2557126Y-647874D02*
Y-582646D01*
X2475528Y-563945D02*
X2477449Y-565866D01*
X2438020Y-634001D02*
Y-585000D01*
X2459075Y-563945D01*
X2475528D01*
X2477449Y-565866D02*
X2479370Y-563945D01*
X2420370Y-544630D02*
X2479000D01*
X2479370Y-544260D01*
X2420000Y-545000D02*
X2420370Y-544630D01*
X2413778Y-524575D02*
X2479370D01*
X2479370Y-524575D01*
X2416492Y-504890D02*
X2479370D01*
X2414795Y-485205D02*
X2479370D01*
X2425835Y-445835D02*
X2479370D01*
X2479370Y-426150D02*
X2479370Y-426149D01*
X2426150Y-426150D02*
X2479370D01*
X2429543Y-404543D02*
X2477449D01*
X2479370Y-406464D01*
X2436036Y-367094D02*
X2479370D01*
X2423559Y-354617D02*
X2436036Y-367094D01*
X2427888Y-384858D02*
X2477449D01*
X2479370Y-386779D01*
X2479370Y-367094D02*
X2479370Y-367094D01*
X2457559Y-328551D02*
X2476418Y-347409D01*
X2479370D01*
X2457559Y-328551D02*
Y-131063D01*
X2498071Y-328709D02*
Y-71575D01*
X2517756Y-328709D02*
Y-128740D01*
X2536157Y-327425D02*
Y-210339D01*
Y-327425D02*
X2537441Y-328709D01*
X2578732Y-326787D02*
Y-237764D01*
X2576811Y-328709D02*
X2578732Y-326787D01*
X2556063Y-327646D02*
Y-266063D01*
X2555000Y-265000D02*
X2556063Y-266063D01*
Y-327646D02*
X2557126Y-328709D01*
X2295315Y-305000D02*
X2295315Y-305000D01*
X2260000Y-305000D02*
X2295315D01*
X2260000Y-305000D02*
X2260000Y-305000D01*
X2340000Y-298246D02*
X2346496Y-304742D01*
X2340000Y-298246D02*
Y-260000D01*
X2346496Y-380000D02*
Y-304742D01*
X1320000Y-369409D02*
Y-300000D01*
X1284744Y-264744D02*
X1320000Y-300000D01*
X1284744Y-264744D02*
Y-254995D01*
X1259413Y-429997D02*
X1320000Y-369409D01*
X1310594Y-429997D02*
X1335000Y-405591D01*
X1259413Y-429997D02*
Y-429997D01*
X1218118Y-378378D02*
X1246496Y-350000D01*
X1279744Y-629995D02*
Y-622495D01*
X1258819Y-601570D02*
X1279744Y-622495D01*
X1258819Y-601570D02*
Y-520000D01*
X1310000D02*
X1350000Y-480000D01*
Y-271791D01*
X1495893Y-125898D01*
X1780653D01*
X1844032Y-62519D01*
X1883978D01*
X1886496Y-60000D01*
X1620721Y-65721D02*
X1668907Y-17536D01*
X1218118Y-498378D02*
Y-378378D01*
X1206496Y-510000D02*
X1218118Y-498378D01*
X1668907Y-17536D02*
X2044032D01*
X2085232Y-58736D01*
Y-60000D02*
Y-58736D01*
Y-60000D02*
X2096971D01*
X787441Y-523740D02*
Y-503662D01*
X742756Y-479055D02*
X762835D01*
X2001496Y-175000D02*
X2300000D01*
X1886496Y-60000D02*
X2001496Y-175000D01*
X2300000D02*
X2370496Y-245496D01*
Y-365496D02*
X2375000Y-370000D01*
X2370496Y-365496D02*
Y-245496D01*
X2310000Y-160000D02*
X2387000Y-237000D01*
X2086496Y-160000D02*
X2310000D01*
X2387000Y-387000D02*
Y-237000D01*
X2399000Y-374000D02*
Y-224000D01*
X2181970Y-145000D02*
X2320000D01*
X2399000Y-224000D01*
X2411000Y-367971D02*
X2427888Y-384858D01*
X2399000Y-374000D02*
X2429543Y-404543D01*
X2375000Y-395000D02*
Y-370000D01*
X2286496Y-60000D02*
X2423559Y-197063D01*
X2387000Y-387000D02*
X2426150Y-426150D01*
X2423559Y-354617D02*
Y-197063D01*
X2375000Y-395000D02*
X2425835Y-445835D01*
X2330829Y-130829D02*
X2411000Y-211000D01*
Y-367971D02*
Y-211000D01*
X1986496Y-60000D02*
X2086496Y-160000D01*
X2096971Y-60000D02*
X2181970Y-145000D01*
X2257325Y-130829D02*
X2330829D01*
X2186496Y-60000D02*
X2257325Y-130829D01*
X2386496Y-60000D02*
X2457559Y-131063D01*
X702496Y-406000D02*
Y-266060D01*
X582936Y-146500D02*
X702496Y-266060D01*
X686496Y-412628D02*
Y-272688D01*
X576309Y-162500D02*
X686496Y-272688D01*
X2386496Y-847402D02*
X2392859Y-841039D01*
X2468907Y-804937D02*
X2528092D01*
X2432805Y-841039D02*
X2468907Y-804937D01*
X2392859Y-841039D02*
X2432805D01*
X1430496Y-691000D02*
X2313139D01*
X2395157Y-642923D02*
Y-543195D01*
X1654496Y-727000D02*
X2328050D01*
X2352903Y-787000D02*
X2370966Y-768937D01*
X2328961Y-844883D02*
X2380907Y-792937D01*
X2357873Y-799000D02*
X2375936Y-780937D01*
X1958496Y-763000D02*
X2342962D01*
X1530898Y-703000D02*
X2318109D01*
X2380907Y-792937D02*
X2496915D01*
X2222496Y-799000D02*
X2357873D01*
X2356054Y-732937D02*
X2472063D01*
X2296379Y-844883D02*
X2328961D01*
X2318109Y-703000D02*
X2383157Y-637952D01*
X1606496Y-715000D02*
X2323080D01*
X2370966Y-768937D02*
X2486974D01*
X2375936Y-780937D02*
X2491945D01*
X2323080Y-715000D02*
X2395157Y-642923D01*
X2134496Y-787000D02*
X2352903D01*
X2046496Y-775000D02*
X2347932D01*
X2383157Y-637952D02*
Y-538225D01*
X2365995Y-756937D02*
X2482004D01*
X2328050Y-727000D02*
X2420000Y-635051D01*
Y-545000D01*
X1782496Y-739000D02*
X2333021D01*
X2347932Y-775000D02*
X2365995Y-756937D01*
X2361025Y-744937D02*
X2477033D01*
X2333021Y-739000D02*
X2438020Y-634001D01*
X2313139Y-691000D02*
X2371157Y-632982D01*
X2342962Y-763000D02*
X2361025Y-744937D01*
X2371157Y-632982D02*
Y-528842D01*
X2337991Y-751000D02*
X2356054Y-732937D01*
X1870496Y-751000D02*
X2337991D01*
X2472063Y-732937D02*
X2557126Y-647874D01*
X2482004Y-756937D02*
X2572941Y-666000D01*
X2618030Y-715000D02*
X2696970D01*
X2496915Y-792937D02*
X2586852Y-703000D01*
X2491945Y-780937D02*
X2582882Y-690000D01*
X2675000D01*
X2577912Y-678000D02*
X2668059D01*
X2477033Y-744937D02*
X2576811Y-645159D01*
X2486974Y-768937D02*
X2577912Y-678000D01*
X2528092Y-804937D02*
X2618030Y-715000D01*
X2572941Y-666000D02*
X2663088D01*
X2586852Y-703000D02*
X2692000D01*
X2675000Y-690000D02*
X2714606Y-650394D01*
X2668059Y-678000D02*
X2694921Y-651138D01*
X2663088Y-666000D02*
X2675236Y-653852D01*
Y-604457D01*
X2696970Y-715000D02*
X2801118Y-610852D01*
X2692000Y-703000D02*
X2789118Y-605882D01*
X2675236Y-604457D02*
X2675236Y-604457D01*
X2789118Y-605882D02*
Y-547775D01*
X2502598Y-847402D02*
X2623000Y-727000D01*
X2701941D01*
X2383157Y-538225D02*
X2416492Y-504890D01*
X2395157Y-543195D02*
X2413778Y-524575D01*
X2371157Y-528842D02*
X2414795Y-485205D01*
X2801118Y-610852D02*
Y-542804D01*
X2785603Y-544260D02*
X2789118Y-547775D01*
X2733307Y-544260D02*
X2785603D01*
X2486496Y-847402D02*
X2502598D01*
X1886496Y-835000D02*
X1958496Y-763000D01*
X1986496Y-835000D02*
X2046496Y-775000D01*
X1286496Y-835000D02*
X1430496Y-691000D01*
X1786496Y-835000D02*
X1870496Y-751000D01*
X2086496Y-835000D02*
X2134496Y-787000D01*
X1486496Y-835000D02*
X1606496Y-715000D01*
X1398898Y-835000D02*
X1530898Y-703000D01*
X1686496Y-835000D02*
X1782496Y-739000D01*
X1588961Y-792536D02*
X1654496Y-727000D01*
X2578732Y-237764D02*
X2747546Y-68950D01*
X2777546D01*
X2786496Y-60000D01*
X2536157Y-210339D02*
X2686496Y-60000D01*
X1588961Y-832536D02*
Y-792536D01*
X1586496Y-835000D02*
X1588961Y-832536D01*
X1386496Y-835000D02*
X1398898D01*
X2517756Y-128740D02*
X2586496Y-60000D01*
X2486496D02*
X2498071Y-71575D01*
X957085Y-225002D02*
X984998D01*
X985000Y-225000D01*
X957084Y-225004D02*
X957085Y-225002D01*
X1551793Y-39706D02*
X1579707D01*
X1551499Y-39413D02*
X1551793Y-39706D01*
X1579707D02*
X1580000Y-40000D01*
X2186496Y-835000D02*
X2222496Y-799000D01*
X442369Y-146500D02*
X582936D01*
X448996Y-162500D02*
X576309D01*
X1153293Y-356797D02*
X1201532D01*
X1216496Y-341833D01*
X1181496Y-337955D02*
Y-322599D01*
X1160874Y-465756D02*
X1167717Y-472599D01*
X1181496D01*
X631499Y-410594D02*
X680276Y-459370D01*
X742756D01*
X631499Y-619752D02*
Y-545594D01*
Y-619752D02*
X631752Y-620005D01*
X921499Y-660594D02*
X968402D01*
X1001496Y-627500D01*
Y-620000D01*
X1195276Y-397402D02*
X1202118Y-390559D01*
Y-373182D02*
X1231496Y-343804D01*
X1181496Y-397402D02*
X1195276D01*
X1202118Y-390559D02*
Y-373182D01*
X1188140Y-233319D02*
X1231496Y-276675D01*
Y-343804D02*
Y-276675D01*
X1185818Y-230997D02*
X1188140Y-233319D01*
X1188140D01*
X1187575Y-256079D02*
X1216496Y-285000D01*
Y-341833D02*
Y-285000D01*
X1166168Y-465756D02*
Y-457271D01*
X1173011Y-472599D02*
X1181496D01*
X1151496Y-442599D02*
X1166168Y-457271D01*
Y-465756D02*
X1173011Y-472599D01*
X1139909Y-230997D02*
X1185818D01*
X1115909Y-254997D02*
X1139909Y-230997D01*
X1167090Y-254997D02*
X1168172Y-256079D01*
X1187575D01*
X1151496Y-442599D02*
X1151496D01*
X1141389Y-432491D02*
Y-385108D01*
Y-432491D02*
X1151496Y-442599D01*
X1141496Y-385000D02*
Y-368594D01*
X1153293Y-356797D01*
X1141389Y-385108D02*
X1141496Y-385000D01*
X1091496Y-510000D02*
X1206496D01*
X1076496Y-353158D02*
Y-335000D01*
X1083339Y-360000D02*
X1091496D01*
X1076496Y-353158D02*
X1083339Y-360000D01*
X2295315Y-529998D02*
Y-454999D01*
X1140783Y-322599D02*
X1181496D01*
X1072732Y-254548D02*
X1140783Y-322599D01*
X818897Y-254548D02*
X1072732D01*
X789362Y-284083D02*
X818897Y-254548D01*
X846496Y-283704D02*
X851977Y-278222D01*
Y-275481D01*
X826311Y-315760D02*
X826811Y-316260D01*
X825811Y-275000D02*
X826311Y-275500D01*
Y-315760D02*
Y-275500D01*
X789362Y-314339D02*
Y-284083D01*
X787441Y-316260D02*
X789362Y-314339D01*
X867027Y-315415D02*
Y-287898D01*
X872665Y-282260D01*
X1078756D01*
X866181Y-316260D02*
X867027Y-315415D01*
X846496Y-316260D02*
Y-283704D01*
X898169Y-609413D02*
X921499D01*
X846496Y-557740D02*
X898169Y-609413D01*
X846496Y-557740D02*
Y-523740D01*
X807126Y-565040D02*
X851499Y-609413D01*
X807126Y-565040D02*
Y-523740D01*
X661496Y-175000D02*
X855899D01*
X905902Y-225004D01*
X616496Y-130000D02*
X661496Y-175000D01*
X741496Y-224410D02*
Y-200000D01*
X740902Y-225004D02*
X741496Y-224410D01*
X451496Y-208703D02*
Y-205000D01*
X441926Y-252890D02*
Y-218274D01*
X451496Y-208703D01*
X419341Y-280330D02*
Y-275481D01*
X404401Y-251045D02*
Y-184468D01*
X419341Y-275481D02*
X422246Y-272575D01*
Y-252890D01*
X420401Y-251045D02*
Y-191095D01*
X404401Y-184468D02*
X442369Y-146500D01*
X420401Y-191095D02*
X448996Y-162500D01*
X422222Y-130000D02*
X616496D01*
X326722Y-225501D02*
X422222Y-130000D01*
X326722Y-249985D02*
Y-225501D01*
X323816Y-252890D02*
X326722Y-249985D01*
X686496Y-412628D02*
X711633Y-437764D01*
X702496Y-406000D02*
X715180Y-418684D01*
X711633Y-437764D02*
X755835D01*
X715180Y-418684D02*
X756440D01*
X402556Y-252890D02*
X404401Y-251045D01*
X756440Y-418684D02*
X757756Y-420000D01*
X392510Y-218300D02*
X399651Y-225441D01*
X373243Y-218300D02*
X392510D01*
X366092Y-225451D02*
X373243Y-218300D01*
X366092Y-249985D02*
Y-225451D01*
X399651Y-249985D02*
Y-225441D01*
Y-249985D02*
X402556Y-252890D01*
X363186D02*
X366092Y-249985D01*
X420401Y-251045D02*
X422246Y-252890D01*
X755835Y-437764D02*
X757756Y-439685D01*
X382876Y-252890D02*
X385782Y-255796D01*
X412190Y-287481D02*
X419341Y-280330D01*
X392923Y-287481D02*
X412190D01*
X385782Y-280340D02*
Y-255796D01*
Y-280340D02*
X392923Y-287481D01*
X1078756Y-282260D02*
X1153293Y-356797D01*
X1121496Y-603819D02*
Y-585000D01*
X1110315Y-615000D02*
X1121496Y-603819D01*
X1161496Y-615000D02*
X1181496Y-595000D01*
Y-547402D01*
X762835Y-479055D02*
X787441Y-503662D01*
X781493Y-609407D02*
X787441Y-603458D01*
Y-523740D01*
X846496Y-425000D02*
Y-420000D01*
X711493Y-609407D02*
X781493D01*
D16*
X769646Y-75000D02*
D03*
X935000D02*
D03*
X1237323D02*
D03*
X1402677D02*
D03*
D17*
X429213Y-637008D02*
D03*
Y-600000D02*
D03*
Y-562992D02*
D03*
X330787D02*
D03*
Y-637008D02*
D03*
D18*
X2950000Y-555453D02*
D03*
Y-354547D02*
D03*
D19*
X2714606Y-328709D02*
D03*
X2694921D02*
D03*
X2675236D02*
D03*
X2655551D02*
D03*
X2635866D02*
D03*
X2616181D02*
D03*
X2596496D02*
D03*
X2576811D02*
D03*
X2557126D02*
D03*
X2537441D02*
D03*
X2517756D02*
D03*
X2498071D02*
D03*
Y-582646D02*
D03*
X2517756D02*
D03*
X2537441D02*
D03*
X2557126D02*
D03*
X2576811D02*
D03*
X2596496D02*
D03*
X2616181D02*
D03*
X2635866D02*
D03*
X2655551D02*
D03*
X2675236D02*
D03*
X2694921D02*
D03*
X2714606D02*
D03*
D20*
X2479370Y-347409D02*
D03*
Y-367094D02*
D03*
Y-386779D02*
D03*
Y-406464D02*
D03*
Y-426149D02*
D03*
Y-445835D02*
D03*
Y-465520D02*
D03*
Y-485205D02*
D03*
Y-504890D02*
D03*
Y-524575D02*
D03*
Y-544260D02*
D03*
Y-563945D02*
D03*
X2733307D02*
D03*
Y-544260D02*
D03*
Y-524575D02*
D03*
Y-504890D02*
D03*
Y-485205D02*
D03*
Y-465520D02*
D03*
Y-445835D02*
D03*
Y-426149D02*
D03*
Y-406464D02*
D03*
Y-386779D02*
D03*
Y-367094D02*
D03*
Y-347409D02*
D03*
D21*
X2606339Y-455677D02*
D03*
D22*
X1259413Y-429997D02*
D03*
X1310594D02*
D03*
X1258819Y-520000D02*
D03*
X1310000D02*
D03*
X792084Y-225004D02*
D03*
X957084D02*
D03*
X905902D02*
D03*
X2295315Y-305000D02*
D03*
X2346496D02*
D03*
Y-380000D02*
D03*
X2295315D02*
D03*
X2346496Y-529998D02*
D03*
X2346499Y-604997D02*
D03*
X2295315Y-454999D02*
D03*
Y-529998D02*
D03*
X2346496Y-454999D02*
D03*
X2295318Y-604997D02*
D03*
X1110315Y-615000D02*
D03*
X1161496D02*
D03*
X740902Y-225004D02*
D03*
X1167090Y-254997D02*
D03*
X1115909D02*
D03*
D23*
X1279744Y-699995D02*
D03*
Y-629995D02*
D03*
X1284744Y-324995D02*
D03*
Y-254995D02*
D03*
X1001496Y-620000D02*
D03*
Y-690000D02*
D03*
X631752Y-690005D02*
D03*
Y-620005D02*
D03*
D24*
X422246Y-252890D02*
D03*
X441926D02*
D03*
X461616Y-252930D02*
D03*
X343516D02*
D03*
X382876Y-252890D02*
D03*
X363186D02*
D03*
X323816D02*
D03*
X402556D02*
D03*
D25*
X487204D02*
D03*
X518701D02*
D03*
X298228Y-252900D02*
D03*
X266732Y-252890D02*
D03*
D26*
X256499Y-794413D02*
D03*
Y-845594D02*
D03*
X1551499Y-39413D02*
D03*
Y-90594D02*
D03*
X631499Y-494413D02*
D03*
Y-545594D02*
D03*
X511493Y-410588D02*
D03*
Y-359406D02*
D03*
X711493Y-660588D02*
D03*
X781493D02*
D03*
Y-609407D02*
D03*
X711493D02*
D03*
X921499Y-660594D02*
D03*
X851499D02*
D03*
X921499Y-609413D02*
D03*
X851499D02*
D03*
X631499Y-410594D02*
D03*
Y-359413D02*
D03*
X1081496Y-38819D02*
D03*
Y-90000D02*
D03*
D27*
X354567Y-820000D02*
D03*
X488425D02*
D03*
X281496Y-385000D02*
D03*
X415354D02*
D03*
D28*
X1181496Y-397402D02*
D03*
X1091496Y-510000D02*
D03*
X1181496Y-547402D02*
D03*
Y-472599D02*
D03*
Y-322599D02*
D03*
X1091496Y-360000D02*
D03*
D29*
X846496Y-420000D02*
D03*
D30*
X787441Y-316260D02*
D03*
X807126D02*
D03*
X826811D02*
D03*
X846496D02*
D03*
X866181D02*
D03*
X885866D02*
D03*
X905551D02*
D03*
Y-523740D02*
D03*
X885866D02*
D03*
X866181D02*
D03*
X846496D02*
D03*
X826811D02*
D03*
X807126D02*
D03*
X787441D02*
D03*
D31*
X950236Y-380630D02*
D03*
Y-400315D02*
D03*
Y-420000D02*
D03*
Y-439685D02*
D03*
Y-459370D02*
D03*
Y-479055D02*
D03*
X742756D02*
D03*
Y-459370D02*
D03*
Y-439685D02*
D03*
Y-420000D02*
D03*
Y-400315D02*
D03*
Y-380630D02*
D03*
Y-360945D02*
D03*
X950236D02*
D03*
D56*
X611496Y-780000D02*
X630000D01*
X630000Y-780000D01*
X525000Y-693504D02*
X611496Y-780000D01*
X525000Y-693504D02*
Y-618001D01*
X330000Y-765000D02*
X546496D01*
X596496Y-815000D02*
X911496D01*
X546496Y-765000D02*
X596496Y-815000D01*
X1280000Y-760000D02*
Y-700251D01*
X1279744Y-699995D02*
X1280000Y-700251D01*
Y-760000D02*
X1306496D01*
X1184730D02*
X1280000D01*
X2290321Y-600000D02*
X2295318Y-604997D01*
X1186496Y-847402D02*
Y-835000D01*
X1306496Y-760000D02*
X1401496Y-665000D01*
X851496Y-660597D02*
X851499Y-660594D01*
X2290321Y-609994D02*
Y-600000D01*
X2225322Y-665000D02*
X2280325Y-609997D01*
X2290318D02*
X2290321Y-609994D01*
X2280325Y-609997D02*
X2290318D01*
X1401496Y-665000D02*
X2225322D01*
X330000Y-765000D02*
X330000Y-765000D01*
X562796Y-219246D02*
Y-210870D01*
X222636Y-219246D02*
Y-210870D01*
X235221Y-231831D02*
X243597D01*
X249066Y-237300D02*
X264921D01*
X243597Y-231831D02*
X249066Y-237300D01*
X266732Y-252890D02*
Y-239111D01*
X264921Y-237300D02*
X266732Y-239111D01*
X222636Y-219246D02*
X235221Y-231831D01*
X541835D02*
X550211D01*
X520511Y-237300D02*
X536367D01*
X541835Y-231831D01*
X518701Y-252890D02*
Y-239111D01*
X550211Y-231831D02*
X562796Y-219246D01*
X518701Y-239111D02*
X520511Y-237300D01*
X911496Y-815000D02*
X966496Y-760000D01*
X1184730D01*
Y-833234D02*
Y-760000D01*
X781496Y-780000D02*
X801496D01*
X851496Y-730000D01*
Y-660597D01*
X1184730Y-833234D02*
X1186496Y-835000D01*
X2264315Y-411000D02*
X2295315Y-380000D01*
X2264315Y-573994D02*
X2290321Y-600000D01*
X2346498Y-604995D02*
Y-530000D01*
Y-604995D02*
X2346499Y-604997D01*
X2346496Y-529998D02*
X2346498Y-530000D01*
X2264315Y-573994D02*
Y-411000D01*
X415354Y-385000D02*
X416024Y-385670D01*
D57*
X807812Y-616907D02*
X851499Y-660594D01*
X788993Y-616907D02*
X807812D01*
X781493Y-609407D02*
X788993Y-616907D01*
X515097Y-355803D02*
Y-256494D01*
X511493Y-359406D02*
X515097Y-355803D01*
Y-256494D02*
X518701Y-252890D01*
X271043Y-374547D02*
X281496Y-385000D01*
X266732Y-252890D02*
X271043Y-257201D01*
Y-374547D02*
Y-257201D01*
D58*
X2951811Y-79685D02*
D03*
Y-827717D02*
D03*
X79685D02*
D03*
Y-79685D02*
D03*
D59*
X2286496Y-60000D02*
D03*
X1886496D02*
D03*
X1786496D02*
D03*
X1986496D02*
D03*
X2086496D02*
D03*
X2186496D02*
D03*
X1686496D02*
D03*
X2386496D02*
D03*
X2486496D02*
D03*
X2586496D02*
D03*
X2686496D02*
D03*
X1786496Y-847402D02*
D03*
X1686496D02*
D03*
X1586496D02*
D03*
X1386496D02*
D03*
X1886496D02*
D03*
X1486496D02*
D03*
X1986496D02*
D03*
X2086496D02*
D03*
X2186496D02*
D03*
X2286496D02*
D03*
X2686496D02*
D03*
X2586496D02*
D03*
X2486496D02*
D03*
X2386496D02*
D03*
X1286496D02*
D03*
X1186496D02*
D03*
X1086496D02*
D03*
D60*
X2786496Y-60000D02*
D03*
Y-847402D02*
D03*
D61*
X222636Y-210870D02*
D03*
X562796D02*
D03*
D62*
X278936Y-190000D02*
D03*
X506496D02*
D03*
D63*
X222636Y-46300D02*
D03*
X562796D02*
D03*
D64*
X1210000Y-75000D02*
D03*
X1375000Y-90000D02*
D03*
X1504406Y-90594D02*
D03*
X1415000Y-180000D02*
D03*
X1125000Y-130000D02*
D03*
X740000Y-75000D02*
D03*
X630000Y-780000D02*
D03*
X390000Y-600000D02*
D03*
X350000D02*
D03*
X315000D02*
D03*
X330000Y-665000D02*
D03*
X2295315Y-492498D02*
D03*
X815000Y-390000D02*
D03*
X2665000Y-515000D02*
D03*
X2610000D02*
D03*
X2555000D02*
D03*
X2665000Y-450000D02*
D03*
Y-400000D02*
D03*
X2555000Y-450000D02*
D03*
Y-400000D02*
D03*
X2610000Y-450000D02*
D03*
Y-400000D02*
D03*
X2260000Y-305000D02*
D03*
X2340000Y-260000D02*
D03*
X2790000Y-505000D02*
D03*
X2810000Y-485000D02*
D03*
X2420000Y-545000D02*
D03*
X2700000Y-235000D02*
D03*
X2665000Y-215000D02*
D03*
X2659963Y-189814D02*
D03*
X2555000Y-265000D02*
D03*
X255000Y-875000D02*
D03*
X746493Y-660588D02*
D03*
X630000Y-725000D02*
D03*
X560000Y-835000D02*
D03*
X530000D02*
D03*
Y-805000D02*
D03*
X1030000Y-690000D02*
D03*
X605000Y-360000D02*
D03*
X985000Y-225000D02*
D03*
X1080000Y-115000D02*
D03*
X1580000Y-40000D02*
D03*
X781496Y-780000D02*
D03*
X751496D02*
D03*
X721496D02*
D03*
X691496D02*
D03*
X661496D02*
D03*
X631496Y-495000D02*
D03*
X1181496Y-337955D02*
D03*
X1076496Y-335000D02*
D03*
X851977Y-275481D02*
D03*
X825811Y-275000D02*
D03*
X821496Y-225000D02*
D03*
X876496Y-390000D02*
D03*
X741496Y-200000D02*
D03*
X451496Y-205000D02*
D03*
X1121496Y-585000D02*
D03*
X846496Y-425000D02*
D03*
Y-390000D02*
D03*
X876496Y-460000D02*
D03*
X816496D02*
D03*
X846496D02*
D03*
X816496Y-425000D02*
D03*
X876496D02*
D03*
M02*
