G04*
G04 #@! TF.GenerationSoftware,Altium Limited,Altium Designer,23.1.1 (15)*
G04*
G04 Layer_Color=128*
%FSLAX26Y26*%
%MOIN*%
G70*
G04*
G04 #@! TF.SameCoordinates,D0E4B440-4BE9-487C-8C21-8B387810EFB0*
G04*
G04*
G04 #@! TF.FilePolarity,Positive*
G04*
G01*
G75*
%ADD65C,0.005000*%
D65*
X2908996Y-79685D02*
X2994626D01*
X2951811Y-122500D02*
Y-36870D01*
X2908996Y-827717D02*
X2994626D01*
X2951811Y-870532D02*
Y-784902D01*
X2268780Y-60000D02*
X2304213D01*
X2286496Y-77717D02*
Y-42284D01*
X1868780Y-60000D02*
X1904213D01*
X1886496Y-77717D02*
Y-42284D01*
X1768780Y-60000D02*
X1804213D01*
X1786496Y-77717D02*
Y-42284D01*
X1968780Y-60000D02*
X2004213D01*
X1986496Y-77717D02*
Y-42284D01*
X2068780Y-60000D02*
X2104213D01*
X2086496Y-77717D02*
Y-42284D01*
X2168780Y-60000D02*
X2204213D01*
X2186496Y-77717D02*
Y-42284D01*
X1668780Y-60000D02*
X1704213D01*
X1686496Y-77717D02*
Y-42284D01*
X2368780Y-60000D02*
X2404213D01*
X2386496Y-77717D02*
Y-42284D01*
X2468780Y-60000D02*
X2504213D01*
X2486496Y-77717D02*
Y-42284D01*
X2568780Y-60000D02*
X2604213D01*
X2586496Y-77717D02*
Y-42284D01*
X2668780Y-60000D02*
X2704213D01*
X2686496Y-77717D02*
Y-42284D01*
X2768780Y-60000D02*
X2804213D01*
X2786496Y-77717D02*
Y-42284D01*
X36870Y-827717D02*
X122500D01*
X79685Y-870532D02*
Y-784902D01*
X36870Y-79685D02*
X122500D01*
X79685Y-122500D02*
Y-36870D01*
X1768780Y-847402D02*
X1804213D01*
X1786496Y-865118D02*
Y-829685D01*
X1668780Y-847402D02*
X1704213D01*
X1686496Y-865118D02*
Y-829685D01*
X1568780Y-847402D02*
X1604213D01*
X1586496Y-865118D02*
Y-829685D01*
X1368780Y-847402D02*
X1404213D01*
X1386496Y-865118D02*
Y-829685D01*
X1868780Y-847402D02*
X1904213D01*
X1886496Y-865118D02*
Y-829685D01*
X1468780Y-847402D02*
X1504213D01*
X1486496Y-865118D02*
Y-829685D01*
X1968780Y-847402D02*
X2004213D01*
X1986496Y-865118D02*
Y-829685D01*
X2068780Y-847402D02*
X2104213D01*
X2086496Y-865118D02*
Y-829685D01*
X2168780Y-847402D02*
X2204213D01*
X2186496Y-865118D02*
Y-829685D01*
X2268780Y-847402D02*
X2304213D01*
X2286496Y-865118D02*
Y-829685D01*
X2768780Y-847402D02*
X2804213D01*
X2786496Y-865118D02*
Y-829685D01*
X2668780Y-847402D02*
X2704213D01*
X2686496Y-865118D02*
Y-829685D01*
X2568780Y-847402D02*
X2604213D01*
X2586496Y-865118D02*
Y-829685D01*
X2468780Y-847402D02*
X2504213D01*
X2486496Y-865118D02*
Y-829685D01*
X2368780Y-847402D02*
X2404213D01*
X2386496Y-865118D02*
Y-829685D01*
X1268780Y-847402D02*
X1304213D01*
X1286496Y-865118D02*
Y-829685D01*
X1168780Y-847402D02*
X1204213D01*
X1186496Y-865118D02*
Y-829685D01*
X1068780Y-847402D02*
X1104213D01*
X1086496Y-865118D02*
Y-829685D01*
X206888Y-210870D02*
X238384D01*
X222636Y-226618D02*
Y-195122D01*
X547048Y-210870D02*
X578544D01*
X562796Y-226618D02*
Y-195122D01*
X264172Y-190000D02*
X293700D01*
X278936Y-204764D02*
Y-175236D01*
X491732Y-190000D02*
X521260D01*
X506496Y-204764D02*
Y-175236D01*
X206888Y-46300D02*
X238384D01*
X222636Y-62048D02*
Y-30552D01*
X547048Y-46300D02*
X578544D01*
X562796Y-62048D02*
Y-30552D01*
X1204094Y-75000D02*
X1215906D01*
X1210000Y-80906D02*
Y-69094D01*
X1369094Y-90000D02*
X1380906D01*
X1375000Y-95906D02*
Y-84094D01*
X1498500Y-90594D02*
X1510311D01*
X1504406Y-96500D02*
Y-84689D01*
X1409094Y-180000D02*
X1420906D01*
X1415000Y-185905D02*
Y-174095D01*
X1119094Y-130000D02*
X1130906D01*
X1125000Y-135905D02*
Y-124094D01*
X734095Y-75000D02*
X745905D01*
X740000Y-80906D02*
Y-69094D01*
X624095Y-780000D02*
X635905D01*
X630000Y-785905D02*
Y-774095D01*
X384094Y-600000D02*
X395906D01*
X390000Y-605905D02*
Y-594095D01*
X344094Y-600000D02*
X355906D01*
X350000Y-605905D02*
Y-594095D01*
X309094Y-600000D02*
X320906D01*
X315000Y-605905D02*
Y-594095D01*
X324094Y-665000D02*
X335906D01*
X330000Y-670905D02*
Y-659095D01*
X2289410Y-492498D02*
X2301220D01*
X2295315Y-498404D02*
Y-486593D01*
X809095Y-390000D02*
X820905D01*
X815000Y-395906D02*
Y-384094D01*
X2659095Y-515000D02*
X2670905D01*
X2665000Y-520905D02*
Y-509094D01*
X2604095Y-515000D02*
X2615905D01*
X2610000Y-520905D02*
Y-509094D01*
X2549095Y-515000D02*
X2560905D01*
X2555000Y-520905D02*
Y-509094D01*
X2659095Y-450000D02*
X2670905D01*
X2665000Y-455906D02*
Y-444094D01*
X2659095Y-400000D02*
X2670905D01*
X2665000Y-405906D02*
Y-394094D01*
X2549095Y-450000D02*
X2560905D01*
X2555000Y-455906D02*
Y-444094D01*
X2549095Y-400000D02*
X2560905D01*
X2555000Y-405906D02*
Y-394094D01*
X2604095Y-450000D02*
X2615905D01*
X2610000Y-455906D02*
Y-444094D01*
X2604095Y-400000D02*
X2615905D01*
X2610000Y-405906D02*
Y-394094D01*
X2254095Y-305000D02*
X2265905D01*
X2260000Y-310906D02*
Y-299094D01*
X2334095Y-260000D02*
X2345905D01*
X2340000Y-265906D02*
Y-254095D01*
X2784095Y-505000D02*
X2795905D01*
X2790000Y-510906D02*
Y-499094D01*
X2804095Y-485000D02*
X2815905D01*
X2810000Y-490906D02*
Y-479094D01*
X2414095Y-545000D02*
X2425905D01*
X2420000Y-550905D02*
Y-539095D01*
X2694095Y-235000D02*
X2705905D01*
X2700000Y-240905D02*
Y-229095D01*
X2659095Y-215000D02*
X2670905D01*
X2665000Y-220905D02*
Y-209095D01*
X2654057Y-189814D02*
X2665868D01*
X2659963Y-195719D02*
Y-183908D01*
X2549095Y-265000D02*
X2560905D01*
X2555000Y-270906D02*
Y-259094D01*
X249095Y-875000D02*
X260906D01*
X255000Y-880905D02*
Y-869095D01*
X740587Y-660588D02*
X752399D01*
X746493Y-666493D02*
Y-654682D01*
X624095Y-725000D02*
X635905D01*
X630000Y-730905D02*
Y-719095D01*
X554095Y-835000D02*
X565905D01*
X560000Y-840905D02*
Y-829095D01*
X524095Y-835000D02*
X535905D01*
X530000Y-840905D02*
Y-829095D01*
X524095Y-805000D02*
X535905D01*
X530000Y-810905D02*
Y-799095D01*
X1024094Y-690000D02*
X1035906D01*
X1030000Y-695905D02*
Y-684095D01*
X599095Y-360000D02*
X610905D01*
X605000Y-365906D02*
Y-354094D01*
X979095Y-225000D02*
X990905D01*
X985000Y-230905D02*
Y-219095D01*
X1074094Y-115000D02*
X1085906D01*
X1080000Y-120906D02*
Y-109094D01*
X1574094Y-40000D02*
X1585906D01*
X1580000Y-45906D02*
Y-34094D01*
X775591Y-780000D02*
X787402D01*
X781496Y-785906D02*
Y-774095D01*
X745591Y-780000D02*
X757402D01*
X751496Y-785906D02*
Y-774095D01*
X715591Y-780000D02*
X727402D01*
X721496Y-785906D02*
Y-774095D01*
X685591Y-780000D02*
X697402D01*
X691496Y-785906D02*
Y-774095D01*
X655591Y-780000D02*
X667402D01*
X661496Y-785906D02*
Y-774095D01*
X625591Y-495000D02*
X637402D01*
X631496Y-500906D02*
Y-489095D01*
X1175591Y-337955D02*
X1187402D01*
X1181496Y-343860D02*
Y-332049D01*
X1070591Y-335000D02*
X1082402D01*
X1076496Y-340906D02*
Y-329095D01*
X846072Y-275481D02*
X857883D01*
X851977Y-281387D02*
Y-269576D01*
X819906Y-275000D02*
X831717D01*
X825811Y-280906D02*
Y-269095D01*
X815591Y-225000D02*
X827402D01*
X821496Y-230906D02*
Y-219095D01*
X870591Y-390000D02*
X882402D01*
X876496Y-395906D02*
Y-384095D01*
X735591Y-200000D02*
X747402D01*
X741496Y-205906D02*
Y-194095D01*
X445591Y-205000D02*
X457402D01*
X451496Y-210906D02*
Y-199095D01*
X1115591Y-585000D02*
X1127402D01*
X1121496Y-590906D02*
Y-579095D01*
X840591Y-425000D02*
X852402D01*
X846496Y-430906D02*
Y-419095D01*
X840591Y-390000D02*
X852402D01*
X846496Y-395906D02*
Y-384095D01*
X870591Y-460000D02*
X882402D01*
X876496Y-465906D02*
Y-454095D01*
X810591Y-460000D02*
X822402D01*
X816496Y-465906D02*
Y-454095D01*
X840591Y-460000D02*
X852402D01*
X846496Y-465906D02*
Y-454095D01*
X810591Y-425000D02*
X822402D01*
X816496Y-430906D02*
Y-419095D01*
X870591Y-425000D02*
X882402D01*
X876496Y-430906D02*
Y-419095D01*
M02*
