G04*
G04 #@! TF.GenerationSoftware,Altium Limited,Altium Designer,23.1.1 (15)*
G04*
G04 Layer_Color=16711935*
%FSLAX26Y26*%
%MOIN*%
G70*
G04*
G04 #@! TF.SameCoordinates,D0E4B440-4BE9-487C-8C21-8B387810EFB0*
G04*
G04*
G04 #@! TF.FilePolarity,Negative*
G04*
G01*
G75*
%ADD32R,0.160000X0.415000*%
%ADD49C,0.093630*%
%ADD50C,0.074929*%
%ADD51R,0.074929X0.074929*%
%ADD52O,0.055244X0.086740*%
%ADD53C,0.037528*%
%ADD54O,0.055244X0.078866*%
%ADD55C,0.027685*%
D32*
X2950000Y-455000D02*
D03*
D49*
X2951811Y-79685D02*
D03*
Y-827717D02*
D03*
X79685D02*
D03*
Y-79685D02*
D03*
D50*
X2286496Y-60000D02*
D03*
X1886496D02*
D03*
X1786496D02*
D03*
X1986496D02*
D03*
X2086496D02*
D03*
X2186496D02*
D03*
X1686496D02*
D03*
X2386496D02*
D03*
X2486496D02*
D03*
X2586496D02*
D03*
X2686496D02*
D03*
X1786496Y-847402D02*
D03*
X1686496D02*
D03*
X1586496D02*
D03*
X1386496D02*
D03*
X1886496D02*
D03*
X1486496D02*
D03*
X1986496D02*
D03*
X2086496D02*
D03*
X2186496D02*
D03*
X2286496D02*
D03*
X2686496D02*
D03*
X2586496D02*
D03*
X2486496D02*
D03*
X2386496D02*
D03*
X1286496D02*
D03*
X1186496D02*
D03*
X1086496D02*
D03*
D51*
X2786496Y-60000D02*
D03*
Y-847402D02*
D03*
D52*
X222636Y-210870D02*
D03*
X562796D02*
D03*
D53*
X278936Y-190000D02*
D03*
X506496D02*
D03*
D54*
X222636Y-46300D02*
D03*
X562796D02*
D03*
D55*
X1210000Y-75000D02*
D03*
X1375000Y-90000D02*
D03*
X1504406Y-90594D02*
D03*
X740000Y-75000D02*
D03*
X390000Y-600000D02*
D03*
X350000D02*
D03*
X315000D02*
D03*
X330000Y-665000D02*
D03*
M02*
