M48
;Layer_Color=9474304
;FILE_FORMAT=2:5
INCH,LZ
;TYPE=PLATED
T1F00S00C0.01181
T3F00S00C0.03543
T4F00S00C0.08563
;TYPE=NON_PLATED
T5F00S00C0.02953
%
T01
X00255Y-00875
X0053Y-00835
X0056
X0053Y-00805
X0063Y-0078
X006615Y-0078
X006915
X007215
X007515
X007815
X0063Y-00725
X0074649Y-0066059
X008165Y-0046
X008465
X008765
Y-00425
X008465
X008165
X00815Y-0039
X008465Y-0039
X008765
X0085198Y-0027548
X0082581Y-00275
X008215Y-00225
X007415Y-002
X0074Y-00075
X004515Y-00205
X00605Y-0036
X006315Y-00495
X0039Y-006
X0035
X00315
X0033Y-00665
X0103Y-0069
X011215Y-00585
X010765Y-00335
X011815Y-0033795
X01125Y-0013
X0108Y-00115
X0121Y-00075
X01375Y-0009
X0150441Y-0009059
X0158Y-0004
X01415Y-0018
X00985Y-00225
X0226Y-00305
X0234Y-0026
X0229532Y-004925
X0242Y-00545
X02555Y-00515
X0261
X02665
Y-0045
Y-004
X0261
Y-0045
X02555
Y-004
Y-00265
X02665Y-00215
X0265996Y-0018981
X027Y-00235
X0279Y-00505
X0281Y-00485
T03
X024865Y-008474
X025865
X026865
X027865
X023865
X022865
X021865
X020865
X019865
X018865
X017865
X016865
X015865
X014865
X013865
X012865
X011865
X010865
X016865Y-0006
X017865
X018865
X019865
X020865
X021865
X022865
X023865
X024865
X025865
X026865
X027865
T04
X0295181Y-0082772
X0007969
Y-0007969
X0295181
T05
X0027894Y-0019
X005065
M30
