G04*
G04 #@! TF.GenerationSoftware,Altium Limited,Altium Designer,23.1.1 (15)*
G04*
G04 Layer_Color=8388736*
%FSLAX26Y26*%
%MOIN*%
G70*
G04*
G04 #@! TF.SameCoordinates,D0E4B440-4BE9-487C-8C21-8B387810EFB0*
G04*
G04*
G04 #@! TF.FilePolarity,Negative*
G04*
G01*
G75*
%ADD32R,0.160000X0.415000*%
G04:AMPARAMS|DCode=33|XSize=86.74mil|YSize=39.496mil|CornerRadius=11.874mil|HoleSize=0mil|Usage=FLASHONLY|Rotation=90.000|XOffset=0mil|YOffset=0mil|HoleType=Round|Shape=RoundedRectangle|*
%AMROUNDEDRECTD33*
21,1,0.086740,0.015748,0,0,90.0*
21,1,0.062992,0.039496,0,0,90.0*
1,1,0.023748,0.007874,0.031496*
1,1,0.023748,0.007874,-0.031496*
1,1,0.023748,-0.007874,-0.031496*
1,1,0.023748,-0.007874,0.031496*
%
%ADD33ROUNDEDRECTD33*%
G04:AMPARAMS|DCode=34|XSize=57.213mil|YSize=33.591mil|CornerRadius=10.398mil|HoleSize=0mil|Usage=FLASHONLY|Rotation=180.000|XOffset=0mil|YOffset=0mil|HoleType=Round|Shape=RoundedRectangle|*
%AMROUNDEDRECTD34*
21,1,0.057213,0.012795,0,0,180.0*
21,1,0.036417,0.033591,0,0,180.0*
1,1,0.020795,-0.018209,0.006398*
1,1,0.020795,0.018209,0.006398*
1,1,0.020795,0.018209,-0.006398*
1,1,0.020795,-0.018209,-0.006398*
%
%ADD34ROUNDEDRECTD34*%
G04:AMPARAMS|DCode=35|XSize=39.496mil|YSize=78.866mil|CornerRadius=11.874mil|HoleSize=0mil|Usage=FLASHONLY|Rotation=270.000|XOffset=0mil|YOffset=0mil|HoleType=Round|Shape=RoundedRectangle|*
%AMROUNDEDRECTD35*
21,1,0.039496,0.055118,0,0,270.0*
21,1,0.015748,0.078866,0,0,270.0*
1,1,0.023748,-0.027559,-0.007874*
1,1,0.023748,-0.027559,0.007874*
1,1,0.023748,0.027559,0.007874*
1,1,0.023748,0.027559,-0.007874*
%
%ADD35ROUNDEDRECTD35*%
%ADD36R,0.017843X0.023748*%
%ADD37R,0.023748X0.017843*%
%ADD38R,0.202882X0.202882*%
G04:AMPARAMS|DCode=39|XSize=38mil|YSize=38mil|CornerRadius=11.5mil|HoleSize=0mil|Usage=FLASHONLY|Rotation=180.000|XOffset=0mil|YOffset=0mil|HoleType=Round|Shape=RoundedRectangle|*
%AMROUNDEDRECTD39*
21,1,0.038000,0.015000,0,0,180.0*
21,1,0.015000,0.038000,0,0,180.0*
1,1,0.023000,-0.007500,0.007500*
1,1,0.023000,0.007500,0.007500*
1,1,0.023000,0.007500,-0.007500*
1,1,0.023000,-0.007500,-0.007500*
%
%ADD39ROUNDEDRECTD39*%
G04:AMPARAMS|DCode=40|XSize=58mil|YSize=43mil|CornerRadius=12.75mil|HoleSize=0mil|Usage=FLASHONLY|Rotation=90.000|XOffset=0mil|YOffset=0mil|HoleType=Round|Shape=RoundedRectangle|*
%AMROUNDEDRECTD40*
21,1,0.058000,0.017500,0,0,90.0*
21,1,0.032500,0.043000,0,0,90.0*
1,1,0.025500,0.008750,0.016250*
1,1,0.025500,0.008750,-0.016250*
1,1,0.025500,-0.008750,-0.016250*
1,1,0.025500,-0.008750,0.016250*
%
%ADD40ROUNDEDRECTD40*%
G04:AMPARAMS|DCode=41|XSize=19.811mil|YSize=59.181mil|CornerRadius=6.953mil|HoleSize=0mil|Usage=FLASHONLY|Rotation=180.000|XOffset=0mil|YOffset=0mil|HoleType=Round|Shape=RoundedRectangle|*
%AMROUNDEDRECTD41*
21,1,0.019811,0.045275,0,0,180.0*
21,1,0.005905,0.059181,0,0,180.0*
1,1,0.013906,-0.002953,0.022638*
1,1,0.013906,0.002953,0.022638*
1,1,0.013906,0.002953,-0.022638*
1,1,0.013906,-0.002953,-0.022638*
%
%ADD41ROUNDEDRECTD41*%
G04:AMPARAMS|DCode=42|XSize=31.622mil|YSize=59.181mil|CornerRadius=9.906mil|HoleSize=0mil|Usage=FLASHONLY|Rotation=180.000|XOffset=0mil|YOffset=0mil|HoleType=Round|Shape=RoundedRectangle|*
%AMROUNDEDRECTD42*
21,1,0.031622,0.039370,0,0,180.0*
21,1,0.011811,0.059181,0,0,180.0*
1,1,0.019811,-0.005906,0.019685*
1,1,0.019811,0.005906,0.019685*
1,1,0.019811,0.005906,-0.019685*
1,1,0.019811,-0.005906,-0.019685*
%
%ADD42ROUNDEDRECTD42*%
G04:AMPARAMS|DCode=43|XSize=38mil|YSize=38mil|CornerRadius=11.5mil|HoleSize=0mil|Usage=FLASHONLY|Rotation=90.000|XOffset=0mil|YOffset=0mil|HoleType=Round|Shape=RoundedRectangle|*
%AMROUNDEDRECTD43*
21,1,0.038000,0.015000,0,0,90.0*
21,1,0.015000,0.038000,0,0,90.0*
1,1,0.023000,0.007500,0.007500*
1,1,0.023000,0.007500,-0.007500*
1,1,0.023000,-0.007500,-0.007500*
1,1,0.023000,-0.007500,0.007500*
%
%ADD43ROUNDEDRECTD43*%
G04:AMPARAMS|DCode=44|XSize=55.244mil|YSize=63.118mil|CornerRadius=15.811mil|HoleSize=0mil|Usage=FLASHONLY|Rotation=0.000|XOffset=0mil|YOffset=0mil|HoleType=Round|Shape=RoundedRectangle|*
%AMROUNDEDRECTD44*
21,1,0.055244,0.031496,0,0,0.0*
21,1,0.023622,0.063118,0,0,0.0*
1,1,0.031622,0.011811,-0.015748*
1,1,0.031622,-0.011811,-0.015748*
1,1,0.031622,-0.011811,0.015748*
1,1,0.031622,0.011811,0.015748*
%
%ADD44ROUNDEDRECTD44*%
G04:AMPARAMS|DCode=45|XSize=27.685mil|YSize=55.244mil|CornerRadius=8.921mil|HoleSize=0mil|Usage=FLASHONLY|Rotation=270.000|XOffset=0mil|YOffset=0mil|HoleType=Round|Shape=RoundedRectangle|*
%AMROUNDEDRECTD45*
21,1,0.027685,0.037402,0,0,270.0*
21,1,0.009843,0.055244,0,0,270.0*
1,1,0.017842,-0.018701,-0.004921*
1,1,0.017842,-0.018701,0.004921*
1,1,0.017842,0.018701,0.004921*
1,1,0.017842,0.018701,-0.004921*
%
%ADD45ROUNDEDRECTD45*%
G04:AMPARAMS|DCode=46|XSize=127.291mil|YSize=127.291mil|CornerRadius=33.823mil|HoleSize=0mil|Usage=FLASHONLY|Rotation=0.000|XOffset=0mil|YOffset=0mil|HoleType=Round|Shape=RoundedRectangle|*
%AMROUNDEDRECTD46*
21,1,0.127291,0.059646,0,0,0.0*
21,1,0.059646,0.127291,0,0,0.0*
1,1,0.067646,0.029823,-0.029823*
1,1,0.067646,-0.029823,-0.029823*
1,1,0.067646,-0.029823,0.029823*
1,1,0.067646,0.029823,0.029823*
%
%ADD46ROUNDEDRECTD46*%
G04:AMPARAMS|DCode=47|XSize=17.843mil|YSize=58mil|CornerRadius=6.461mil|HoleSize=0mil|Usage=FLASHONLY|Rotation=0.000|XOffset=0mil|YOffset=0mil|HoleType=Round|Shape=RoundedRectangle|*
%AMROUNDEDRECTD47*
21,1,0.017843,0.045079,0,0,0.0*
21,1,0.004921,0.058000,0,0,0.0*
1,1,0.012921,0.002461,-0.022539*
1,1,0.012921,-0.002461,-0.022539*
1,1,0.012921,-0.002461,0.022539*
1,1,0.012921,0.002461,0.022539*
%
%ADD47ROUNDEDRECTD47*%
G04:AMPARAMS|DCode=48|XSize=17.843mil|YSize=58mil|CornerRadius=6.461mil|HoleSize=0mil|Usage=FLASHONLY|Rotation=90.000|XOffset=0mil|YOffset=0mil|HoleType=Round|Shape=RoundedRectangle|*
%AMROUNDEDRECTD48*
21,1,0.017843,0.045079,0,0,90.0*
21,1,0.004921,0.058000,0,0,90.0*
1,1,0.012921,0.022539,0.002461*
1,1,0.012921,0.022539,-0.002461*
1,1,0.012921,-0.022539,-0.002461*
1,1,0.012921,-0.022539,0.002461*
%
%ADD48ROUNDEDRECTD48*%
%ADD49C,0.093630*%
%ADD50C,0.074929*%
%ADD51R,0.074929X0.074929*%
%ADD52O,0.055244X0.086740*%
%ADD53C,0.037528*%
%ADD54O,0.055244X0.078866*%
%ADD55C,0.027685*%
D32*
X2950000Y-455000D02*
D03*
D33*
X769646Y-75000D02*
D03*
X935000D02*
D03*
X1237323D02*
D03*
X1402677D02*
D03*
D34*
X429213Y-637008D02*
D03*
Y-600000D02*
D03*
Y-562992D02*
D03*
X330787D02*
D03*
Y-637008D02*
D03*
D35*
X2950000Y-555453D02*
D03*
Y-354547D02*
D03*
D36*
X2714606Y-328709D02*
D03*
X2694921D02*
D03*
X2675236D02*
D03*
X2655551D02*
D03*
X2635866D02*
D03*
X2616181D02*
D03*
X2596496D02*
D03*
X2576811D02*
D03*
X2557126D02*
D03*
X2537441D02*
D03*
X2517756D02*
D03*
X2498071D02*
D03*
Y-582646D02*
D03*
X2517756D02*
D03*
X2537441D02*
D03*
X2557126D02*
D03*
X2576811D02*
D03*
X2596496D02*
D03*
X2616181D02*
D03*
X2635866D02*
D03*
X2655551D02*
D03*
X2675236D02*
D03*
X2694921D02*
D03*
X2714606D02*
D03*
D37*
X2479370Y-347409D02*
D03*
Y-367094D02*
D03*
Y-386779D02*
D03*
Y-406464D02*
D03*
Y-426149D02*
D03*
Y-445835D02*
D03*
Y-465520D02*
D03*
Y-485205D02*
D03*
Y-504890D02*
D03*
Y-524575D02*
D03*
Y-544260D02*
D03*
Y-563945D02*
D03*
X2733307D02*
D03*
Y-544260D02*
D03*
Y-524575D02*
D03*
Y-504890D02*
D03*
Y-485205D02*
D03*
Y-465520D02*
D03*
Y-445835D02*
D03*
Y-426149D02*
D03*
Y-406464D02*
D03*
Y-386779D02*
D03*
Y-367094D02*
D03*
Y-347409D02*
D03*
D38*
X2606339Y-455677D02*
D03*
D39*
X1259413Y-429997D02*
D03*
X1310594D02*
D03*
X1258819Y-520000D02*
D03*
X1310000D02*
D03*
X792084Y-225004D02*
D03*
X957084D02*
D03*
X905902D02*
D03*
X2295315Y-305000D02*
D03*
X2346496D02*
D03*
Y-380000D02*
D03*
X2295315D02*
D03*
X2346496Y-529998D02*
D03*
X2346499Y-604997D02*
D03*
X2295315Y-454999D02*
D03*
Y-529998D02*
D03*
X2346496Y-454999D02*
D03*
X2295318Y-604997D02*
D03*
X1110315Y-615000D02*
D03*
X1161496D02*
D03*
X740902Y-225004D02*
D03*
X1167090Y-254997D02*
D03*
X1115909D02*
D03*
D40*
X1279744Y-699995D02*
D03*
Y-629995D02*
D03*
X1284744Y-324995D02*
D03*
Y-254995D02*
D03*
X1001496Y-620000D02*
D03*
Y-690000D02*
D03*
X631752Y-690005D02*
D03*
Y-620005D02*
D03*
D41*
X422246Y-252890D02*
D03*
X441926D02*
D03*
X461616Y-252930D02*
D03*
X343516D02*
D03*
X382876Y-252890D02*
D03*
X363186D02*
D03*
X323816D02*
D03*
X402556D02*
D03*
D42*
X487204D02*
D03*
X518701D02*
D03*
X298228Y-252900D02*
D03*
X266732Y-252890D02*
D03*
D43*
X256499Y-794413D02*
D03*
Y-845594D02*
D03*
X1551499Y-39413D02*
D03*
Y-90594D02*
D03*
X631499Y-494413D02*
D03*
Y-545594D02*
D03*
X511493Y-410588D02*
D03*
Y-359406D02*
D03*
X711493Y-660588D02*
D03*
X781493D02*
D03*
Y-609407D02*
D03*
X711493D02*
D03*
X921499Y-660594D02*
D03*
X851499D02*
D03*
X921499Y-609413D02*
D03*
X851499D02*
D03*
X631499Y-410594D02*
D03*
Y-359413D02*
D03*
X1081496Y-38819D02*
D03*
Y-90000D02*
D03*
D44*
X354567Y-820000D02*
D03*
X488425D02*
D03*
X281496Y-385000D02*
D03*
X415354D02*
D03*
D45*
X1181496Y-397402D02*
D03*
X1091496Y-510000D02*
D03*
X1181496Y-547402D02*
D03*
Y-472599D02*
D03*
Y-322599D02*
D03*
X1091496Y-360000D02*
D03*
D46*
X846496Y-420000D02*
D03*
D47*
X787441Y-316260D02*
D03*
X807126D02*
D03*
X826811D02*
D03*
X846496D02*
D03*
X866181D02*
D03*
X885866D02*
D03*
X905551D02*
D03*
Y-523740D02*
D03*
X885866D02*
D03*
X866181D02*
D03*
X846496D02*
D03*
X826811D02*
D03*
X807126D02*
D03*
X787441D02*
D03*
D48*
X950236Y-380630D02*
D03*
Y-400315D02*
D03*
Y-420000D02*
D03*
Y-439685D02*
D03*
Y-459370D02*
D03*
Y-479055D02*
D03*
X742756D02*
D03*
Y-459370D02*
D03*
Y-439685D02*
D03*
Y-420000D02*
D03*
Y-400315D02*
D03*
Y-380630D02*
D03*
Y-360945D02*
D03*
X950236D02*
D03*
D49*
X2951811Y-79685D02*
D03*
Y-827717D02*
D03*
X79685D02*
D03*
Y-79685D02*
D03*
D50*
X2286496Y-60000D02*
D03*
X1886496D02*
D03*
X1786496D02*
D03*
X1986496D02*
D03*
X2086496D02*
D03*
X2186496D02*
D03*
X1686496D02*
D03*
X2386496D02*
D03*
X2486496D02*
D03*
X2586496D02*
D03*
X2686496D02*
D03*
X1786496Y-847402D02*
D03*
X1686496D02*
D03*
X1586496D02*
D03*
X1386496D02*
D03*
X1886496D02*
D03*
X1486496D02*
D03*
X1986496D02*
D03*
X2086496D02*
D03*
X2186496D02*
D03*
X2286496D02*
D03*
X2686496D02*
D03*
X2586496D02*
D03*
X2486496D02*
D03*
X2386496D02*
D03*
X1286496D02*
D03*
X1186496D02*
D03*
X1086496D02*
D03*
D51*
X2786496Y-60000D02*
D03*
Y-847402D02*
D03*
D52*
X222636Y-210870D02*
D03*
X562796D02*
D03*
D53*
X278936Y-190000D02*
D03*
X506496D02*
D03*
D54*
X222636Y-46300D02*
D03*
X562796D02*
D03*
D55*
X1210000Y-75000D02*
D03*
X1375000Y-90000D02*
D03*
X1504406Y-90594D02*
D03*
X740000Y-75000D02*
D03*
X390000Y-600000D02*
D03*
X350000D02*
D03*
X315000D02*
D03*
X330000Y-665000D02*
D03*
M02*
